<?xml version="1.0" encoding="utf-8"?>
<!-- Generator: Adobe Illustrator 26.0.1, SVG Export Plug-In . SVG Version: 6.00 Build 0)  -->
<svg version="1.1" id="レイヤー_1" xmlns="http://www.w3.org/2000/svg" xmlns:xlink="http://www.w3.org/1999/xlink" x="0px"
	 y="0px" viewBox="0 0 1985 1974.9" style="enable-background:new 0 0 1985 1974.9;" xml:space="preserve">
<style type="text/css">
	.st0{fill:#FFFFFF;}
	.st1{clip-path:url(#SVGID_00000027582566337263891510000009459857339124585148_);}
	.st2{fill:#005B97;}
	.st3{fill:#FFFFFF;stroke:#005B97;stroke-width:7;stroke-linecap:round;stroke-linejoin:round;stroke-miterlimit:10;}
	.st4{fill:#FFDAC4;}
	.st5{fill:none;stroke:#005B97;stroke-width:7;stroke-linecap:round;stroke-linejoin:round;stroke-miterlimit:10;}
	.st6{fill:#FFFFFF;stroke:#3E487D;stroke-width:7;stroke-linecap:round;stroke-linejoin:round;stroke-miterlimit:10;}
	.st7{fill:none;stroke:#005B97;stroke-width:6;stroke-linecap:round;stroke-linejoin:round;stroke-miterlimit:10;}
	.st8{fill:none;stroke:#3E487D;stroke-width:6;stroke-linecap:round;stroke-linejoin:round;stroke-miterlimit:10;}
</style>
<g>
	<circle class="st0" cx="992.5" cy="987.5" r="987.5"/>
	<g>
		<g>
			<defs>
				<circle id="SVGID_1_" cx="992.5" cy="987.5" r="987.5"/>
			</defs>
			<clipPath id="SVGID_00000112605336361201294510000002083569388716700076_">
				<use xlink:href="#SVGID_1_"  style="overflow:visible;"/>
			</clipPath>
			<g id="_x3C_グループ_x3E__2_" style="clip-path:url(#SVGID_00000112605336361201294510000002083569388716700076_);">
				<g>
					<path class="st2" d="M1600.5,960.4c-44,283.4-337.3,351.4-557.4,367.5c-13.3,1-26.3,1.8-38.9,2.4c-0.2,0-0.5,0-0.7,0.1
						c-0.3-0.1-0.6-0.1-0.9-0.1c-12.7-0.6-25.7-1.4-39-2.4c-220.2-16.2-513.4-84-557.4-367.5c-41.6-267.8-88.1-409,56.1-600.3
						c100-132.5,258.1-266.5,538.3-268.3h5.5c280.3,1.8,438.3,135.7,538.3,268.3C1688.5,551.3,1642.1,692.6,1600.5,960.4z"/>
					<path class="st2" d="M1635.9,1316c-8.5-117.3-122.5-216.5-239.8-208.5s-216.9,121.6-209.4,239
						c7.4,117.4,127.1,215.5,237.6,206.6S1644.4,1433.3,1635.9,1316z"/>
					<path class="st3" d="M1646.6,991.7c-4.4,88-75,143.3-152,148.5c-32.4,140.9-48.6,163.3-103.8,218.6
						c-96.4,96.4-186.7,114.1-224.8,154.2c-22.4,23.6-17.9,75.4-21.4,108.3c49,16.4,93,40.8,110.8,73
						c36.1,65.2,41.8,143.2,34.2,217.2c-95.5,2.9-477.8,2.9-573.3,0c-7.6-74-1.9-152.1,34.2-217.2c18.7-33.5,65.5-58.6,116.8-75
						c-3.6-32.1,0.8-83.2-21.2-106.3c-38.1-40.1-128.4-57.8-224.8-154.2c-55.2-55.3-71.5-77.7-103.8-218.6
						c-77-5.1-147.6-60.5-152-148.5c-4.5-88,32.4-169.6,166.4-158c-23.3-177.8-2-430.8,29-498.6h890.3c31,67.8,52.3,320.8,29,498.6
						C1614.2,822,1651.1,903.7,1646.6,991.7z"/>
					<g>
						<path class="st4" d="M681.1,1152c-114.5-4.1-102.6-156.9,10.4-148.6S795.5,1156.1,681.1,1152z"/>
						<path class="st4" d="M1331,1152c114.5-4.1,102.6-156.9-10.4-148.6C1207.7,1011.7,1216.6,1156.1,1331,1152z"/>
					</g>
					<g>
						<ellipse class="st2" cx="809.5" cy="881.7" rx="42.9" ry="53.6"/>
						<ellipse class="st2" cx="1202.6" cy="881.7" rx="42.9" ry="53.6"/>
					</g>
					<path class="st5" d="M992.7,1036.6c-4.3,10.2-5.8,22.6-6.1,31c-0.3,9.4,0,14.5,4.6,22.6"/>
					<path class="st5" d="M871.1,1222.3c20,104.7,248,120.5,269.9-3.5"/>
					<path class="st2" d="M546.6,878.2C652.8,675,993.4,647.7,1210.5,430.4c64.9,149.4,135.2,280,238.4,399.2
						c13.3,15.4,38.3,10.1,44.1-9.3c42.9-143,23.2-387.6-34.8-485.7c-64-108.1-221.7-180.3-367.4-201.8
						c-160.2-23.7-389.6,47.6-492.9,148.7c-96.6,94.5-114.4,331.2-94.8,529.3C505.2,832.2,536.6,897.3,546.6,878.2z"/>
					<path class="st2" d="M519,547.2c47.5-90.9,199.9-103.1,297-200.3c29,66.8,60.5,125.2,106.6,178.6c5.9,6.9,17.1,4.5,19.7-4.2
						c19.2-64,10.4-173.4-15.6-217.3c-28.6-48.4-99.2-80.6-164.3-90.3c-71.7-10.6-174.3,21.3-220.5,66.5
						c-43.2,42.3-51.2,148.1-42.4,236.8C500.5,526.6,514.5,555.7,519,547.2z"/>
				</g>
				<g>
					<path class="st6" d="M284.5,2478.8c0,0,12.4-322.5,91-564.4c77.5-158.6,188.5-173.2,383.8-267.2c0,0,64.2,143.5,246.2,147.4
						c181.9-3.9,246.2-147.4,246.2-147.4c195.3,94,306.2,108.6,383.7,267.2c78.7,241.9,91,564.4,91,564.4"/>
					<path class="st3" d="M538.9,2478.8c0,0-5.7-51.5-2.1-120.2c-110.1-28.6-286.3-148.8-284.4-163c13.4-99.8,34.8-160.6,68.9-265.2
						c76.6-156.6,277.5-234.2,438.1-283.2c0,0,61.9,146.5,246.2,146.5s246.2-146.5,246.2-146.5c160.6,49.1,361.5,126.6,438.1,283.2
						c34,104.6,55.5,165.4,68.9,265.2c1.9,14.2-174.2,134.4-284.4,163c3.6,68.7-2.1,120.2-2.1,120.2"/>
					<path class="st7" d="M1266.6,1893.5c24.2,211.4,38.4,372.3,42.6,585.2"/>
					<path class="st3" d="M1348.4,1668.6c0,73.7-50.5,227.7-168.4,259.3c-47.1,12.6-116.7-27.7-174.4-70.5
						c-57.7,42.8-127.4,83.1-174.4,70.5c-117.9-31.5-168.4-185.6-168.4-259.3c15.7-15.7,143.4-98.6,149.1-91.3
						c49.6,64.7,83.9,112.8,193.9,171.5c109.9-58.8,144.2-106.9,193.8-171.5C1205,1570,1332.8,1653,1348.4,1668.6z"/>
					<path class="st8" d="M1154.7,2087.8c21.4-7,34.9-32.1,29-53.8s-30.3-36.5-52.3-31.6c-22,4.8-37.9,28.5-34.2,50.7
						C1101,2075.2,1125,2097.5,1154.7,2087.8z"/>
				</g>
			</g>
		</g>
	</g>
</g>
</svg>
