<?xml version="1.0" encoding="utf-8"?>
<!-- Generator: Adobe Illustrator 26.0.1, SVG Export Plug-In . SVG Version: 6.00 Build 0)  -->
<svg version="1.1" id="レイヤー_1" xmlns="http://www.w3.org/2000/svg" xmlns:xlink="http://www.w3.org/1999/xlink" x="0px"
	 y="0px" viewBox="0 0 568 110.2" style="enable-background:new 0 0 568 110.2;" xml:space="preserve">
<style type="text/css">
	.st0{opacity:0.75;}
	.st1{enable-background:new    ;}
	.st2{fill:none;stroke:#000000;stroke-width:7;stroke-linecap:round;stroke-linejoin:round;stroke-miterlimit:10;}
	.st3{fill:#005B97;}
	.st4{fill:none;stroke:#FFFFFF;stroke-width:7;stroke-linecap:round;stroke-linejoin:round;stroke-miterlimit:10;}
	.st5{fill:none;stroke:#005B97;stroke-width:6;stroke-linecap:round;stroke-linejoin:round;stroke-miterlimit:10;}
</style>
<g>
	<g class="st0">
		<g class="st1">
			<path d="M82,32.4c-1.3,1-2.2,1.8-2.7,2.3c-1,1.2-1.4,2.2-1.2,3.1c0.3,1.2,1.4,2,3.5,2.5c1.7,0.4,3.6,0.6,5.6,0.6
				c4.6,0,10.7-0.8,18.2-2.5l1.4,7c-10.6,2.3-19.1,3-25.6,2.1c-6.1-0.8-9.6-3-10.7-6.8c-1.2-4.4,1-8.7,6.6-12.8L82,32.4z M74,11.2
				c10.7,0.3,19.2-0.1,25.6-1l3.9,6.2c-4.1,1.7-8.8,4.6-14,8.7l-4.5-4.8c0.8-0.5,2.5-1.6,5-3.3c-4.5,0.5-9.8,0.8-15.9,0.8L74,11.2z
				 M101.2,10.9l3.3-1.7l3.1,5.4l-3.3,1.7L101.2,10.9z M105.4,8.9l3.3-1.7l2.7,5.2l-3.3,1.7L105.4,8.9z"/>
			<path d="M120,20.4l-3.9-2.7l3.3-3.3h-3.3V8.7h17.4l0.4-0.4L137,13c-0.9,2.1-3.1,4.5-6.6,7.4h12c-1-0.8-2.2-2.3-3.5-4.5
				c-0.9-1.5-1.9-3.8-2.9-6.8l6-2.1c0.9,2.2,1.5,3.4,1.7,3.7l3.1-3.9l5,3.5l-4.5,5.2l1,1l4.5-5.4l5,3.7l-4.5,5.6
				c1.3,1.2,3.4,2.1,6.2,2.7l-3.5,6.4c-2.6-0.5-6-2.5-10.3-5.8V26h-19.4v-2.3c-3.4,2.7-6.8,4.5-10.3,5.4l-2.9-6.4
				C116.2,22.3,118.4,21.5,120,20.4z M146.1,44h12.4v6.4h-44.4V44h12.4l-1.2-3.3h-3.5V27.3h28.9v13.4h-3.1L146.1,44z M127.9,14.3h-6
				l3.5,2.3C126.5,15.9,127.4,15.1,127.9,14.3z M128.7,35.1H144v-2.1h-15.3V35.1z M138.4,44l1.2-3.3h-6.4l1.2,3.3H138.4z"/>
			<path d="M171.3,7l6,0.6l-0.4,1.4c1.4,2.7,3.8,5,7.2,7l-3.1,5.8l-1.2-1v3.1h-2.9v3.1h4.5v-4.5h15.9v-1.5h-12.2v-5.4h12.2V14h-13.4
				V8.3H204v14.1h4.1v6.6h-10.5c0.3,1.2,0.9,2.4,1.9,3.7l3.7-3.5l4.5,3.9l-4.6,5c1,1.9,3.1,4.1,6.2,6.6l-3.9,6.2
				c-1.3-0.9-2.8-2.5-4.5-4.7c-1.6-1.9-2.6-3.6-3.3-5v6.6c0,2.6-1.4,3.9-4.3,3.9h-5.6l-1.5-6c-1.2,1.2-2.4,2.4-3.7,3.7l-1.2-1.4
				c-1.6,0.6-6.9,1.8-16.1,3.5l-1.4-6.2l6.4-1V32.6h-6v-5.6h6v-3.1h-3.9v-0.8l-1,1l-2.3-6.2C167.3,14.7,170,11.1,171.3,7z
				 M164.5,34.9l4.5-0.6c0.5,2.1,0.8,4.9,0.8,8.5l-4.5,0.6C165.3,40.3,165,37.5,164.5,34.9z M171.1,18.2h6c-1.7-1.8-2.7-3-3.1-3.7
				C173.2,16.1,172.3,17.3,171.1,18.2z M176.9,43l2.9-0.8l0.2,0.4l5.2-4.7l-1.2,0.4c-0.1-1.2-0.7-2.5-1.7-3.9l-1.2,6.6l-3.9-0.4
				l0.8-7l3.9,0.2l-1-1.4h-4.1V43z M190.9,42.8V29.1h-9.3v2.3l4.5-1.7c0.4,0.4,1,1.4,1.9,2.9c0.9,1.5,1.4,2.7,1.5,3.5l-2.7,1.4
				l3.5,4.3l-3.1,2.9h1.9C190.4,44.6,191,44,190.9,42.8z"/>
			<path d="M227.3,26.7l-1.4-1.7c-3.7-4.8-4-9.1-0.8-13c1.2-1.4,2.6-2.5,4.5-3.3c2.2-0.8,4.3-1,6.2-0.6c5.6,1.3,8.3,4.3,8.1,8.9
				c-0.1,4.4-2.5,8.1-7.2,11.2l5.4,6.8c1-1.8,1.9-4.5,2.7-7.9h6.6c-0.8,5-2.5,9.4-5.2,13.2l6.8,7.9h-8.1l-2.9-3.5
				c-2.2,1.5-3.9,2.6-5,3.1c-1.8,0.8-3.7,1.2-5.6,1.2c-3.7,0-6.8-1.2-9.1-3.5c-2.3-2.5-3.1-5.5-2.3-9.1
				C220.8,33.1,223.3,29.8,227.3,26.7z M237.9,39.9l-7-8.3c-1.7,0.9-3,2.2-3.9,3.9c-1.3,2.1-1.3,3.9,0,5.6c1,1.4,2.6,2,4.6,1.7
				C234.2,42.6,236.3,41.6,237.9,39.9z M232.7,23.3c2.6-1.3,4.1-3.1,4.5-5.4c0.5-2.7-0.6-4.1-3.3-4.3c-2.6-0.1-4,0.9-4.3,3.1
				C229.4,18.9,230.4,21.1,232.7,23.3z"/>
			<path d="M273.2,28.5v-4.8l-8.5,0.4l-0.2-6.6l8.9-0.4c0-2.7,0.1-5.6,0.2-8.7l6.8,0.4c-0.3,3.9-0.4,6.5-0.4,7.9
				c2.2-0.1,4.8-0.5,7.9-1l0.2,6.8l-8.1,0.8v3.3c3.9-1,7.2-1.4,9.9-1.2c3.6,0.4,6.6,1.8,8.9,4.3c2.1,2.2,3.2,4.9,3.3,8.1
				c0.1,3.4-0.8,6-2.9,7.9c-1.8,1.9-4.1,3-7,3.3c-2.7,0.3-5-0.3-7-1.7c-1.9-1.4-3.1-3.6-3.5-6.6l6.4-1.9c0.5,2.2,1.8,3.2,3.9,2.9
				c1.4-0.3,2.3-1.1,2.7-2.5c0.4-1.3,0.2-2.6-0.6-4.1c-1.2-1.9-3.4-3-6.6-3.3c-2.3-0.1-4.8,0.2-7.6,1l0.2,8.9c0,2.3-0.6,4.3-1.7,5.8
				c-1.4,1.8-3.4,2.7-6,2.7c-2.8-0.1-5.2-1.2-7.2-3.3c-2.1-2.2-2.8-4.8-2.3-7.9c0.4-2.1,1.7-4.2,3.9-6.4
				C268.8,30.8,270.9,29.4,273.2,28.5z M273.4,35.7c-1.4,0.8-2.4,1.4-2.9,1.9c-1,0.9-1.4,1.9-1.2,2.9c0.1,0.9,0.5,1.6,1.2,1.9
				c0.6,0.4,1.3,0.4,1.9,0c0.5-0.4,0.8-1,1-1.9C273.5,39.7,273.5,38.1,273.4,35.7z M290.6,19.8l4.1-5.2c4,2.8,7.3,5.4,9.9,7.8
				l-4.3,5.2C297.1,24.6,293.9,22,290.6,19.8z"/>
			<path d="M322.2,9.3c-0.8,3.6-1.9,7-3.3,10.1v32.9h-6.6V29.8c-0.9,1.8-1.7,3.1-2.5,3.9l-2.7-8.5c4.1-5.2,7-11.2,8.7-18L322.2,9.3z
				 M320.1,27.1v-6.2h12.6V7h7v14h13v6.2h-13v16.5h10.7v6.2h-28.1v-6.2h10.5V27.1H320.1z"/>
			<path d="M376.5,9.1V6.4h7v2.7h18.8v5.4h-18.8v1.2h12.8v10.1h-12.8v1h14.7v6h4.3v5h-4.3v7.6h-7v-1.7h-7.8v3.9c0,3-1.3,4.5-3.9,4.5
				h-7.4l-2.3-5.8h4.8c1.2,0.1,1.7-0.5,1.7-1.7v-0.8H361v-4.8h15.5v-1.2h-19v-4.8h19v-1.2H361v-4.8h15.5v-1h-12.8V15.7h12.8v-1.2
				h-19V9.1H376.5z M370.5,21.3h6v-1.6h-6V21.3z M383.5,21.3h6v-1.6h-6V21.3z M383.5,32.8h7.8v-1.2h-7.8V32.8z M383.5,38.8h7.8v-1.2
				h-7.8V38.8z"/>
			<path d="M408.3,51.9V7.8h20.2v16.9h-13.2v27.3H408.3z M415.2,14.3h6.8v-1.5h-6.8V14.3z M415.2,19.8h6.8V18h-6.8V19.8z M421,40.7
				h-4.6v-5.6h5.2v-3.3h-4.3v-5.6h24.2v5.6h-4.3v3.3h5v5.6h-5v10.1h-6.4V40.7H428c-0.4,2.2-1,4.1-1.7,5.6c-1.2,2.1-3,3.9-5.6,5.6
				l-4.7-5.4C419.2,44.6,420.9,42.6,421,40.7z M428.4,35.1h2.5v-3.3h-2.5V35.1z M440.8,51.7l-2.3-6.4h3.7c0.9,0,1.4-0.8,1.4-2.5
				V24.6h-13V7.8h20v37.6c0,2.1-0.3,3.6-0.8,4.5c-0.6,1.3-1.8,1.9-3.5,1.9H440.8z M436.7,14.3h6.8v-1.5h-6.8V14.3z M436.7,19.8h6.8
				V18h-6.8V19.8z"/>
			<path d="M489.8,15.1l5.6-2.9c2.1,3.5,4.3,7.8,6.6,13l-5.8,2.9l-1-2.3l-19.8,1.7c-0.1,1.4-0.5,3.3-1.2,5.6
				c-0.6,2.2-1.3,3.8-1.9,4.8l3.3,2.9l-3.5,5.6l-2.9-2.7c-1.9,3.5-4.5,6.3-7.6,8.3l-4.8-5.8c3.4-1.9,5.7-4.3,7.2-7l-1.9-1.7l-1,1.7
				l-5.6-3.5c1.4-2.3,2.7-4.9,3.9-7.8c1-2.6,1.7-4.9,2.1-7h-4.8v-6h6c0.5-2.5,0.8-5.2,1-8.3l6.4,0.6c0,0.6-0.1,1.9-0.4,3.7
				c-0.3,2.2-0.5,3.6-0.6,4.1h7.4l-0.4,6h2.5c1.2-3,2.6-7.8,4.5-14.5l6.8,0.8c-1.4,5-2.9,9.4-4.5,13.2l7-0.8
				C492.1,18.7,491.2,17.2,489.8,15.1z M469.9,21.1h-1.9c-0.8,4-1.9,7.5-3.3,10.5l2.7,1.9c0.6-1,1.2-2.9,1.7-5.6
				C469.6,25.2,469.9,22.9,469.9,21.1z M477.2,29.7h21.5v22.1H492V50h-7.8v1.7h-7V29.7z M484.2,43.8h7.8v-7.9h-7.8V43.8z"/>
		</g>
		<g class="st1">
			<path d="M161.6,81l16.1-1.9l-0.6-5.2l-12,1.5l-1.2-6.8l12.2-1.5l-1.2-7.4l7.6-1l1,7.6l12-1.4l0.8,6.8l-12,1.4l0.8,5l15.3-1.9
				l1,6.8L186,84.7l2.1,14.7l-7.2,1l-2.1-14.7l-16.5,1.9L161.6,81z"/>
			<path d="M204.6,77.9l8.3-1.4l-1.5-7.4l6.2-1.2l1.7,7.8l12.4-1.7l0.6-0.6l4.8,4.5c-3.2,4.7-6.1,8.3-8.7,11l-4.5-3.3
				c1.7-1.8,3.2-3.7,4.6-5.6l-8.3,1.4l3.7,17.4l-6.2,1.4l-3.7-17.8l-8.5,1.4L204.6,77.9z"/>
			<path d="M240,66.1l4.8-6c3.2,2.2,6.7,4.8,10.5,7.9l-5,6C247.2,71.3,243.8,68.7,240,66.1z M240.2,92.2c7.6-2.1,14.1-4.9,19.4-8.5
				c5.9-4,11-9.3,15.3-15.9l5,6.2c-4.8,6.3-10.1,11.6-16.1,15.7c-5.4,3.7-12.2,7.1-20.3,10.1L240.2,92.2z"/>
			<path d="M295.2,65.9c0.9-1.2,2-1.9,3.3-2.1c2.1-0.3,3.8,0.5,5.2,2.1c8,9.2,15.7,16.9,23.1,23.1l-5.4,6.6
				c-4.3-4.4-8.1-8.5-11.6-12.4c-3.2-3.5-6.3-6.8-9.1-10.1c-0.8-0.9-1.4-0.9-1.9,0c-4,6.3-7.6,11.3-10.9,14.9l-5.4-6.4
				c2.8-2.7,5.2-5.4,7.2-7.9C291.7,70.9,293.6,68.4,295.2,65.9z M318.1,70.2c-1.5,0.1-2.8-0.3-3.7-1.4c-0.8-0.9-1.2-1.9-1.2-3.1
				c0-1.4,0.3-2.5,1-3.3c0.9-1.2,2.1-1.7,3.7-1.7c1.4,0.1,2.6,0.6,3.5,1.5c0.8,0.9,1.2,1.9,1.2,3.1c0,1.2-0.3,2.2-1,3.1
				C320.7,69.6,319.5,70.2,318.1,70.2z M319.5,66.9c0.4-0.4,0.6-0.8,0.6-1.4c0-0.5-0.2-1-0.6-1.4s-0.8-0.6-1.4-0.6
				c-0.5,0-1,0.2-1.4,0.6s-0.6,0.8-0.6,1.4c0,0.5,0.2,1,0.6,1.4c0.4,0.4,0.8,0.6,1.4,0.6C318.6,67.4,319.1,67.3,319.5,66.9z"/>
			<path d="M329.7,76.2h37.6v6.6h-37.6V76.2z"/>
			<path d="M371.2,66.1l4.8-6c3.2,2.2,6.7,4.8,10.5,7.9l-5,6C378.4,71.3,374.9,68.7,371.2,66.1z M371.4,92.2
				c7.6-2.1,14.1-4.9,19.4-8.5c5.9-4,11-9.3,15.3-15.9l5,6.2c-4.8,6.3-10.1,11.6-16.1,15.7c-5.4,3.7-12.2,7.1-20.3,10.1L371.4,92.2z
				"/>
		</g>
		<g class="st1">
			<path class="st2" d="M82,32.4c-1.3,1-2.2,1.8-2.7,2.3c-1,1.2-1.4,2.2-1.2,3.1c0.3,1.2,1.4,2,3.5,2.5c1.7,0.4,3.6,0.6,5.6,0.6
				c4.6,0,10.7-0.8,18.2-2.5l1.4,7c-10.6,2.3-19.1,3-25.6,2.1c-6.1-0.8-9.6-3-10.7-6.8c-1.2-4.4,1-8.7,6.6-12.8L82,32.4z M74,11.2
				c10.7,0.3,19.2-0.1,25.6-1l3.9,6.2c-4.1,1.7-8.8,4.6-14,8.7l-4.5-4.8c0.8-0.5,2.5-1.6,5-3.3c-4.5,0.5-9.8,0.8-15.9,0.8L74,11.2z
				 M101.2,10.9l3.3-1.7l3.1,5.4l-3.3,1.7L101.2,10.9z M105.4,8.9l3.3-1.7l2.7,5.2l-3.3,1.7L105.4,8.9z"/>
			<path class="st2" d="M120,20.4l-3.9-2.7l3.3-3.3h-3.3V8.7h17.4l0.4-0.4L137,13c-0.9,2.1-3.1,4.5-6.6,7.4h12
				c-1-0.8-2.2-2.3-3.5-4.5c-0.9-1.5-1.9-3.8-2.9-6.8l6-2.1c0.9,2.2,1.5,3.4,1.7,3.7l3.1-3.9l5,3.5l-4.5,5.2l1,1l4.5-5.4l5,3.7
				l-4.5,5.6c1.3,1.2,3.4,2.1,6.2,2.7l-3.5,6.4c-2.6-0.5-6-2.5-10.3-5.8V26h-19.4v-2.3c-3.4,2.7-6.8,4.5-10.3,5.4l-2.9-6.4
				C116.2,22.3,118.4,21.5,120,20.4z M146.1,44h12.4v6.4h-44.4V44h12.4l-1.2-3.3h-3.5V27.3h28.9v13.4h-3.1L146.1,44z M127.9,14.3h-6
				l3.5,2.3C126.5,15.9,127.4,15.1,127.9,14.3z M128.7,35.1H144v-2.1h-15.3V35.1z M138.4,44l1.2-3.3h-6.4l1.2,3.3H138.4z"/>
			<path class="st2" d="M171.3,7l6,0.6l-0.4,1.4c1.4,2.7,3.8,5,7.2,7l-3.1,5.8l-1.2-1v3.1h-2.9v3.1h4.5v-4.5h15.9v-1.5h-12.2v-5.4
				h12.2V14h-13.4V8.3H204v14.1h4.1v6.6h-10.5c0.3,1.2,0.9,2.4,1.9,3.7l3.7-3.5l4.5,3.9l-4.6,5c1,1.9,3.1,4.1,6.2,6.6l-3.9,6.2
				c-1.3-0.9-2.8-2.5-4.5-4.7c-1.6-1.9-2.6-3.6-3.3-5v6.6c0,2.6-1.4,3.9-4.3,3.9h-5.6l-1.5-6c-1.2,1.2-2.4,2.4-3.7,3.7l-1.2-1.4
				c-1.6,0.6-6.9,1.8-16.1,3.5l-1.4-6.2l6.4-1V32.6h-6v-5.6h6v-3.1h-3.9v-0.8l-1,1l-2.3-6.2C167.3,14.7,170,11.1,171.3,7z
				 M164.5,34.9l4.5-0.6c0.5,2.1,0.8,4.9,0.8,8.5l-4.5,0.6C165.3,40.3,165,37.5,164.5,34.9z M171.1,18.2h6c-1.7-1.8-2.7-3-3.1-3.7
				C173.2,16.1,172.3,17.3,171.1,18.2z M176.9,43l2.9-0.8l0.2,0.4l5.2-4.7l-1.2,0.4c-0.1-1.2-0.7-2.5-1.7-3.9l-1.2,6.6l-3.9-0.4
				l0.8-7l3.9,0.2l-1-1.4h-4.1V43z M190.9,42.8V29.1h-9.3v2.3l4.5-1.7c0.4,0.4,1,1.4,1.9,2.9c0.9,1.5,1.4,2.7,1.5,3.5l-2.7,1.4
				l3.5,4.3l-3.1,2.9h1.9C190.4,44.6,191,44,190.9,42.8z"/>
			<path class="st2" d="M227.3,26.7l-1.4-1.7c-3.7-4.8-4-9.1-0.8-13c1.2-1.4,2.6-2.5,4.5-3.3c2.2-0.8,4.3-1,6.2-0.6
				c5.6,1.3,8.3,4.3,8.1,8.9c-0.1,4.4-2.5,8.1-7.2,11.2l5.4,6.8c1-1.8,1.9-4.5,2.7-7.9h6.6c-0.8,5-2.5,9.4-5.2,13.2l6.8,7.9h-8.1
				l-2.9-3.5c-2.2,1.5-3.9,2.6-5,3.1c-1.8,0.8-3.7,1.2-5.6,1.2c-3.7,0-6.8-1.2-9.1-3.5c-2.3-2.5-3.1-5.5-2.3-9.1
				C220.8,33.1,223.3,29.8,227.3,26.7z M237.9,39.9l-7-8.3c-1.7,0.9-3,2.2-3.9,3.9c-1.3,2.1-1.3,3.9,0,5.6c1,1.4,2.6,2,4.6,1.7
				C234.2,42.6,236.3,41.6,237.9,39.9z M232.7,23.3c2.6-1.3,4.1-3.1,4.5-5.4c0.5-2.7-0.6-4.1-3.3-4.3c-2.6-0.1-4,0.9-4.3,3.1
				C229.4,18.9,230.4,21.1,232.7,23.3z"/>
			<path class="st2" d="M273.2,28.5v-4.8l-8.5,0.4l-0.2-6.6l8.9-0.4c0-2.7,0.1-5.6,0.2-8.7l6.8,0.4c-0.3,3.9-0.4,6.5-0.4,7.9
				c2.2-0.1,4.8-0.5,7.9-1l0.2,6.8l-8.1,0.8v3.3c3.9-1,7.2-1.4,9.9-1.2c3.6,0.4,6.6,1.8,8.9,4.3c2.1,2.2,3.2,4.9,3.3,8.1
				c0.1,3.4-0.8,6-2.9,7.9c-1.8,1.9-4.1,3-7,3.3c-2.7,0.3-5-0.3-7-1.7c-1.9-1.4-3.1-3.6-3.5-6.6l6.4-1.9c0.5,2.2,1.8,3.2,3.9,2.9
				c1.4-0.3,2.3-1.1,2.7-2.5c0.4-1.3,0.2-2.6-0.6-4.1c-1.2-1.9-3.4-3-6.6-3.3c-2.3-0.1-4.8,0.2-7.6,1l0.2,8.9c0,2.3-0.6,4.3-1.7,5.8
				c-1.4,1.8-3.4,2.7-6,2.7c-2.8-0.1-5.2-1.2-7.2-3.3c-2.1-2.2-2.8-4.8-2.3-7.9c0.4-2.1,1.7-4.2,3.9-6.4
				C268.8,30.8,270.9,29.4,273.2,28.5z M273.4,35.7c-1.4,0.8-2.4,1.4-2.9,1.9c-1,0.9-1.4,1.9-1.2,2.9c0.1,0.9,0.5,1.6,1.2,1.9
				c0.6,0.4,1.3,0.4,1.9,0c0.5-0.4,0.8-1,1-1.9C273.5,39.7,273.5,38.1,273.4,35.7z M290.6,19.8l4.1-5.2c4,2.8,7.3,5.4,9.9,7.8
				l-4.3,5.2C297.1,24.6,293.9,22,290.6,19.8z"/>
			<path class="st2" d="M322.2,9.3c-0.8,3.6-1.9,7-3.3,10.1v32.9h-6.6V29.8c-0.9,1.8-1.7,3.1-2.5,3.9l-2.7-8.5
				c4.1-5.2,7-11.2,8.7-18L322.2,9.3z M320.1,27.1v-6.2h12.6V7h7v14h13v6.2h-13v16.5h10.7v6.2h-28.1v-6.2h10.5V27.1H320.1z"/>
			<path class="st2" d="M376.5,9.1V6.4h7v2.7h18.8v5.4h-18.8v1.2h12.8v10.1h-12.8v1h14.7v6h4.3v5h-4.3v7.6h-7v-1.7h-7.8v3.9
				c0,3-1.3,4.5-3.9,4.5h-7.4l-2.3-5.8h4.8c1.2,0.1,1.7-0.5,1.7-1.7v-0.8H361v-4.8h15.5v-1.2h-19v-4.8h19v-1.2H361v-4.8h15.5v-1
				h-12.8V15.7h12.8v-1.2h-19V9.1H376.5z M370.5,21.3h6v-1.6h-6V21.3z M383.5,21.3h6v-1.6h-6V21.3z M383.5,32.8h7.8v-1.2h-7.8V32.8z
				 M383.5,38.8h7.8v-1.2h-7.8V38.8z"/>
			<path class="st2" d="M408.3,51.9V7.8h20.2v16.9h-13.2v27.3H408.3z M415.2,14.3h6.8v-1.5h-6.8V14.3z M415.2,19.8h6.8V18h-6.8V19.8
				z M421,40.7h-4.6v-5.6h5.2v-3.3h-4.3v-5.6h24.2v5.6h-4.3v3.3h5v5.6h-5v10.1h-6.4V40.7H428c-0.4,2.2-1,4.1-1.7,5.6
				c-1.2,2.1-3,3.9-5.6,5.6l-4.7-5.4C419.2,44.6,420.9,42.6,421,40.7z M428.4,35.1h2.5v-3.3h-2.5V35.1z M440.8,51.7l-2.3-6.4h3.7
				c0.9,0,1.4-0.8,1.4-2.5V24.6h-13V7.8h20v37.6c0,2.1-0.3,3.6-0.8,4.5c-0.6,1.3-1.8,1.9-3.5,1.9H440.8z M436.7,14.3h6.8v-1.5h-6.8
				V14.3z M436.7,19.8h6.8V18h-6.8V19.8z"/>
			<path class="st2" d="M489.8,15.1l5.6-2.9c2.1,3.5,4.3,7.8,6.6,13l-5.8,2.9l-1-2.3l-19.8,1.7c-0.1,1.4-0.5,3.3-1.2,5.6
				c-0.6,2.2-1.3,3.8-1.9,4.8l3.3,2.9l-3.5,5.6l-2.9-2.7c-1.9,3.5-4.5,6.3-7.6,8.3l-4.8-5.8c3.4-1.9,5.7-4.3,7.2-7l-1.9-1.7l-1,1.7
				l-5.6-3.5c1.4-2.3,2.7-4.9,3.9-7.8c1-2.6,1.7-4.9,2.1-7h-4.8v-6h6c0.5-2.5,0.8-5.2,1-8.3l6.4,0.6c0,0.6-0.1,1.9-0.4,3.7
				c-0.3,2.2-0.5,3.6-0.6,4.1h7.4l-0.4,6h2.5c1.2-3,2.6-7.8,4.5-14.5l6.8,0.8c-1.4,5-2.9,9.4-4.5,13.2l7-0.8
				C492.1,18.7,491.2,17.2,489.8,15.1z M469.9,21.1h-1.9c-0.8,4-1.9,7.5-3.3,10.5l2.7,1.9c0.6-1,1.2-2.9,1.7-5.6
				C469.6,25.2,469.9,22.9,469.9,21.1z M477.2,29.7h21.5v22.1H492V50h-7.8v1.7h-7V29.7z M484.2,43.8h7.8v-7.9h-7.8V43.8z"/>
		</g>
		<g class="st1">
			<path class="st2" d="M161.6,81l16.1-1.9l-0.6-5.2l-12,1.5l-1.2-6.8l12.2-1.5l-1.2-7.4l7.6-1l1,7.6l12-1.4l0.8,6.8l-12,1.4l0.8,5
				l15.3-1.9l1,6.8L186,84.7l2.1,14.7l-7.2,1l-2.1-14.7l-16.5,1.9L161.6,81z"/>
			<path class="st2" d="M204.6,77.9l8.3-1.4l-1.5-7.4l6.2-1.2l1.7,7.8l12.4-1.7l0.6-0.6l4.8,4.5c-3.2,4.7-6.1,8.3-8.7,11l-4.5-3.3
				c1.7-1.8,3.2-3.7,4.6-5.6l-8.3,1.4l3.7,17.4l-6.2,1.4l-3.7-17.8l-8.5,1.4L204.6,77.9z"/>
			<path class="st2" d="M240,66.1l4.8-6c3.2,2.2,6.7,4.8,10.5,7.9l-5,6C247.2,71.3,243.8,68.7,240,66.1z M240.2,92.2
				c7.6-2.1,14.1-4.9,19.4-8.5c5.9-4,11-9.3,15.3-15.9l5,6.2c-4.8,6.3-10.1,11.6-16.1,15.7c-5.4,3.7-12.2,7.1-20.3,10.1L240.2,92.2z
				"/>
			<path class="st2" d="M295.2,65.9c0.9-1.2,2-1.9,3.3-2.1c2.1-0.3,3.8,0.5,5.2,2.1c8,9.2,15.7,16.9,23.1,23.1l-5.4,6.6
				c-4.3-4.4-8.1-8.5-11.6-12.4c-3.2-3.5-6.3-6.8-9.1-10.1c-0.8-0.9-1.4-0.9-1.9,0c-4,6.3-7.6,11.3-10.9,14.9l-5.4-6.4
				c2.8-2.7,5.2-5.4,7.2-7.9C291.7,70.9,293.6,68.4,295.2,65.9z M318.1,70.2c-1.5,0.1-2.8-0.3-3.7-1.4c-0.8-0.9-1.2-1.9-1.2-3.1
				c0-1.4,0.3-2.5,1-3.3c0.9-1.2,2.1-1.7,3.7-1.7c1.4,0.1,2.6,0.6,3.5,1.5c0.8,0.9,1.2,1.9,1.2,3.1c0,1.2-0.3,2.2-1,3.1
				C320.7,69.6,319.5,70.2,318.1,70.2z M319.5,66.9c0.4-0.4,0.6-0.8,0.6-1.4c0-0.5-0.2-1-0.6-1.4s-0.8-0.6-1.4-0.6
				c-0.5,0-1,0.2-1.4,0.6s-0.6,0.8-0.6,1.4c0,0.5,0.2,1,0.6,1.4c0.4,0.4,0.8,0.6,1.4,0.6C318.6,67.4,319.1,67.3,319.5,66.9z"/>
			<path class="st2" d="M329.7,76.2h37.6v6.6h-37.6V76.2z"/>
			<path class="st2" d="M371.2,66.1l4.8-6c3.2,2.2,6.7,4.8,10.5,7.9l-5,6C378.4,71.3,374.9,68.7,371.2,66.1z M371.4,92.2
				c7.6-2.1,14.1-4.9,19.4-8.5c5.9-4,11-9.3,15.3-15.9l5,6.2c-4.8,6.3-10.1,11.6-16.1,15.7c-5.4,3.7-12.2,7.1-20.3,10.1L371.4,92.2z
				"/>
		</g>
		<g class="st1">
			<path d="M82,32.4c-1.3,1-2.2,1.8-2.7,2.3c-1,1.2-1.4,2.2-1.2,3.1c0.3,1.2,1.4,2,3.5,2.5c1.7,0.4,3.6,0.6,5.6,0.6
				c4.6,0,10.7-0.8,18.2-2.5l1.4,7c-10.6,2.3-19.1,3-25.6,2.1c-6.1-0.8-9.6-3-10.7-6.8c-1.2-4.4,1-8.7,6.6-12.8L82,32.4z M74,11.2
				c10.7,0.3,19.2-0.1,25.6-1l3.9,6.2c-4.1,1.7-8.8,4.6-14,8.7l-4.5-4.8c0.8-0.5,2.5-1.6,5-3.3c-4.5,0.5-9.8,0.8-15.9,0.8L74,11.2z
				 M101.2,10.9l3.3-1.7l3.1,5.4l-3.3,1.7L101.2,10.9z M105.4,8.9l3.3-1.7l2.7,5.2l-3.3,1.7L105.4,8.9z"/>
			<path d="M120,20.4l-3.9-2.7l3.3-3.3h-3.3V8.7h17.4l0.4-0.4L137,13c-0.9,2.1-3.1,4.5-6.6,7.4h12c-1-0.8-2.2-2.3-3.5-4.5
				c-0.9-1.5-1.9-3.8-2.9-6.8l6-2.1c0.9,2.2,1.5,3.4,1.7,3.7l3.1-3.9l5,3.5l-4.5,5.2l1,1l4.5-5.4l5,3.7l-4.5,5.6
				c1.3,1.2,3.4,2.1,6.2,2.7l-3.5,6.4c-2.6-0.5-6-2.5-10.3-5.8V26h-19.4v-2.3c-3.4,2.7-6.8,4.5-10.3,5.4l-2.9-6.4
				C116.2,22.3,118.4,21.5,120,20.4z M146.1,44h12.4v6.4h-44.4V44h12.4l-1.2-3.3h-3.5V27.3h28.9v13.4h-3.1L146.1,44z M127.9,14.3h-6
				l3.5,2.3C126.5,15.9,127.4,15.1,127.9,14.3z M128.7,35.1H144v-2.1h-15.3V35.1z M138.4,44l1.2-3.3h-6.4l1.2,3.3H138.4z"/>
			<path d="M171.3,7l6,0.6l-0.4,1.4c1.4,2.7,3.8,5,7.2,7l-3.1,5.8l-1.2-1v3.1h-2.9v3.1h4.5v-4.5h15.9v-1.5h-12.2v-5.4h12.2V14h-13.4
				V8.3H204v14.1h4.1v6.6h-10.5c0.3,1.2,0.9,2.4,1.9,3.7l3.7-3.5l4.5,3.9l-4.6,5c1,1.9,3.1,4.1,6.2,6.6l-3.9,6.2
				c-1.3-0.9-2.8-2.5-4.5-4.7c-1.6-1.9-2.6-3.6-3.3-5v6.6c0,2.6-1.4,3.9-4.3,3.9h-5.6l-1.5-6c-1.2,1.2-2.4,2.4-3.7,3.7l-1.2-1.4
				c-1.6,0.6-6.9,1.8-16.1,3.5l-1.4-6.2l6.4-1V32.6h-6v-5.6h6v-3.1h-3.9v-0.8l-1,1l-2.3-6.2C167.3,14.7,170,11.1,171.3,7z
				 M164.5,34.9l4.5-0.6c0.5,2.1,0.8,4.9,0.8,8.5l-4.5,0.6C165.3,40.3,165,37.5,164.5,34.9z M171.1,18.2h6c-1.7-1.8-2.7-3-3.1-3.7
				C173.2,16.1,172.3,17.3,171.1,18.2z M176.9,43l2.9-0.8l0.2,0.4l5.2-4.7l-1.2,0.4c-0.1-1.2-0.7-2.5-1.7-3.9l-1.2,6.6l-3.9-0.4
				l0.8-7l3.9,0.2l-1-1.4h-4.1V43z M190.9,42.8V29.1h-9.3v2.3l4.5-1.7c0.4,0.4,1,1.4,1.9,2.9c0.9,1.5,1.4,2.7,1.5,3.5l-2.7,1.4
				l3.5,4.3l-3.1,2.9h1.9C190.4,44.6,191,44,190.9,42.8z"/>
			<path d="M227.3,26.7l-1.4-1.7c-3.7-4.8-4-9.1-0.8-13c1.2-1.4,2.6-2.5,4.5-3.3c2.2-0.8,4.3-1,6.2-0.6c5.6,1.3,8.3,4.3,8.1,8.9
				c-0.1,4.4-2.5,8.1-7.2,11.2l5.4,6.8c1-1.8,1.9-4.5,2.7-7.9h6.6c-0.8,5-2.5,9.4-5.2,13.2l6.8,7.9h-8.1l-2.9-3.5
				c-2.2,1.5-3.9,2.6-5,3.1c-1.8,0.8-3.7,1.2-5.6,1.2c-3.7,0-6.8-1.2-9.1-3.5c-2.3-2.5-3.1-5.5-2.3-9.1
				C220.8,33.1,223.3,29.8,227.3,26.7z M237.9,39.9l-7-8.3c-1.7,0.9-3,2.2-3.9,3.9c-1.3,2.1-1.3,3.9,0,5.6c1,1.4,2.6,2,4.6,1.7
				C234.2,42.6,236.3,41.6,237.9,39.9z M232.7,23.3c2.6-1.3,4.1-3.1,4.5-5.4c0.5-2.7-0.6-4.1-3.3-4.3c-2.6-0.1-4,0.9-4.3,3.1
				C229.4,18.9,230.4,21.1,232.7,23.3z"/>
			<path d="M273.2,28.5v-4.8l-8.5,0.4l-0.2-6.6l8.9-0.4c0-2.7,0.1-5.6,0.2-8.7l6.8,0.4c-0.3,3.9-0.4,6.5-0.4,7.9
				c2.2-0.1,4.8-0.5,7.9-1l0.2,6.8l-8.1,0.8v3.3c3.9-1,7.2-1.4,9.9-1.2c3.6,0.4,6.6,1.8,8.9,4.3c2.1,2.2,3.2,4.9,3.3,8.1
				c0.1,3.4-0.8,6-2.9,7.9c-1.8,1.9-4.1,3-7,3.3c-2.7,0.3-5-0.3-7-1.7c-1.9-1.4-3.1-3.6-3.5-6.6l6.4-1.9c0.5,2.2,1.8,3.2,3.9,2.9
				c1.4-0.3,2.3-1.1,2.7-2.5c0.4-1.3,0.2-2.6-0.6-4.1c-1.2-1.9-3.4-3-6.6-3.3c-2.3-0.1-4.8,0.2-7.6,1l0.2,8.9c0,2.3-0.6,4.3-1.7,5.8
				c-1.4,1.8-3.4,2.7-6,2.7c-2.8-0.1-5.2-1.2-7.2-3.3c-2.1-2.2-2.8-4.8-2.3-7.9c0.4-2.1,1.7-4.2,3.9-6.4
				C268.8,30.8,270.9,29.4,273.2,28.5z M273.4,35.7c-1.4,0.8-2.4,1.4-2.9,1.9c-1,0.9-1.4,1.9-1.2,2.9c0.1,0.9,0.5,1.6,1.2,1.9
				c0.6,0.4,1.3,0.4,1.9,0c0.5-0.4,0.8-1,1-1.9C273.5,39.7,273.5,38.1,273.4,35.7z M290.6,19.8l4.1-5.2c4,2.8,7.3,5.4,9.9,7.8
				l-4.3,5.2C297.1,24.6,293.9,22,290.6,19.8z"/>
			<path d="M322.2,9.3c-0.8,3.6-1.9,7-3.3,10.1v32.9h-6.6V29.8c-0.9,1.8-1.7,3.1-2.5,3.9l-2.7-8.5c4.1-5.2,7-11.2,8.7-18L322.2,9.3z
				 M320.1,27.1v-6.2h12.6V7h7v14h13v6.2h-13v16.5h10.7v6.2h-28.1v-6.2h10.5V27.1H320.1z"/>
			<path d="M376.5,9.1V6.4h7v2.7h18.8v5.4h-18.8v1.2h12.8v10.1h-12.8v1h14.7v6h4.3v5h-4.3v7.6h-7v-1.7h-7.8v3.9c0,3-1.3,4.5-3.9,4.5
				h-7.4l-2.3-5.8h4.8c1.2,0.1,1.7-0.5,1.7-1.7v-0.8H361v-4.8h15.5v-1.2h-19v-4.8h19v-1.2H361v-4.8h15.5v-1h-12.8V15.7h12.8v-1.2
				h-19V9.1H376.5z M370.5,21.3h6v-1.6h-6V21.3z M383.5,21.3h6v-1.6h-6V21.3z M383.5,32.8h7.8v-1.2h-7.8V32.8z M383.5,38.8h7.8v-1.2
				h-7.8V38.8z"/>
			<path d="M408.3,51.9V7.8h20.2v16.9h-13.2v27.3H408.3z M415.2,14.3h6.8v-1.5h-6.8V14.3z M415.2,19.8h6.8V18h-6.8V19.8z M421,40.7
				h-4.6v-5.6h5.2v-3.3h-4.3v-5.6h24.2v5.6h-4.3v3.3h5v5.6h-5v10.1h-6.4V40.7H428c-0.4,2.2-1,4.1-1.7,5.6c-1.2,2.1-3,3.9-5.6,5.6
				l-4.7-5.4C419.2,44.6,420.9,42.6,421,40.7z M428.4,35.1h2.5v-3.3h-2.5V35.1z M440.8,51.7l-2.3-6.4h3.7c0.9,0,1.4-0.8,1.4-2.5
				V24.6h-13V7.8h20v37.6c0,2.1-0.3,3.6-0.8,4.5c-0.6,1.3-1.8,1.9-3.5,1.9H440.8z M436.7,14.3h6.8v-1.5h-6.8V14.3z M436.7,19.8h6.8
				V18h-6.8V19.8z"/>
			<path d="M489.8,15.1l5.6-2.9c2.1,3.5,4.3,7.8,6.6,13l-5.8,2.9l-1-2.3l-19.8,1.7c-0.1,1.4-0.5,3.3-1.2,5.6
				c-0.6,2.2-1.3,3.8-1.9,4.8l3.3,2.9l-3.5,5.6l-2.9-2.7c-1.9,3.5-4.5,6.3-7.6,8.3l-4.8-5.8c3.4-1.9,5.7-4.3,7.2-7l-1.9-1.7l-1,1.7
				l-5.6-3.5c1.4-2.3,2.7-4.9,3.9-7.8c1-2.6,1.7-4.9,2.1-7h-4.8v-6h6c0.5-2.5,0.8-5.2,1-8.3l6.4,0.6c0,0.6-0.1,1.9-0.4,3.7
				c-0.3,2.2-0.5,3.6-0.6,4.1h7.4l-0.4,6h2.5c1.2-3,2.6-7.8,4.5-14.5l6.8,0.8c-1.4,5-2.9,9.4-4.5,13.2l7-0.8
				C492.1,18.7,491.2,17.2,489.8,15.1z M469.9,21.1h-1.9c-0.8,4-1.9,7.5-3.3,10.5l2.7,1.9c0.6-1,1.2-2.9,1.7-5.6
				C469.6,25.2,469.9,22.9,469.9,21.1z M477.2,29.7h21.5v22.1H492V50h-7.8v1.7h-7V29.7z M484.2,43.8h7.8v-7.9h-7.8V43.8z"/>
		</g>
		<g class="st1">
			<path d="M161.6,81l16.1-1.9l-0.6-5.2l-12,1.5l-1.2-6.8l12.2-1.5l-1.2-7.4l7.6-1l1,7.6l12-1.4l0.8,6.8l-12,1.4l0.8,5l15.3-1.9
				l1,6.8L186,84.7l2.1,14.7l-7.2,1l-2.1-14.7l-16.5,1.9L161.6,81z"/>
			<path d="M204.6,77.9l8.3-1.4l-1.5-7.4l6.2-1.2l1.7,7.8l12.4-1.7l0.6-0.6l4.8,4.5c-3.2,4.7-6.1,8.3-8.7,11l-4.5-3.3
				c1.7-1.8,3.2-3.7,4.6-5.6l-8.3,1.4l3.7,17.4l-6.2,1.4l-3.7-17.8l-8.5,1.4L204.6,77.9z"/>
			<path d="M240,66.1l4.8-6c3.2,2.2,6.7,4.8,10.5,7.9l-5,6C247.2,71.3,243.8,68.7,240,66.1z M240.2,92.2c7.6-2.1,14.1-4.9,19.4-8.5
				c5.9-4,11-9.3,15.3-15.9l5,6.2c-4.8,6.3-10.1,11.6-16.1,15.7c-5.4,3.7-12.2,7.1-20.3,10.1L240.2,92.2z"/>
			<path d="M295.2,65.9c0.9-1.2,2-1.9,3.3-2.1c2.1-0.3,3.8,0.5,5.2,2.1c8,9.2,15.7,16.9,23.1,23.1l-5.4,6.6
				c-4.3-4.4-8.1-8.5-11.6-12.4c-3.2-3.5-6.3-6.8-9.1-10.1c-0.8-0.9-1.4-0.9-1.9,0c-4,6.3-7.6,11.3-10.9,14.9l-5.4-6.4
				c2.8-2.7,5.2-5.4,7.2-7.9C291.7,70.9,293.6,68.4,295.2,65.9z M318.1,70.2c-1.5,0.1-2.8-0.3-3.7-1.4c-0.8-0.9-1.2-1.9-1.2-3.1
				c0-1.4,0.3-2.5,1-3.3c0.9-1.2,2.1-1.7,3.7-1.7c1.4,0.1,2.6,0.6,3.5,1.5c0.8,0.9,1.2,1.9,1.2,3.1c0,1.2-0.3,2.2-1,3.1
				C320.7,69.6,319.5,70.2,318.1,70.2z M319.5,66.9c0.4-0.4,0.6-0.8,0.6-1.4c0-0.5-0.2-1-0.6-1.4s-0.8-0.6-1.4-0.6
				c-0.5,0-1,0.2-1.4,0.6s-0.6,0.8-0.6,1.4c0,0.5,0.2,1,0.6,1.4c0.4,0.4,0.8,0.6,1.4,0.6C318.6,67.4,319.1,67.3,319.5,66.9z"/>
			<path d="M329.7,76.2h37.6v6.6h-37.6V76.2z"/>
			<path d="M371.2,66.1l4.8-6c3.2,2.2,6.7,4.8,10.5,7.9l-5,6C378.4,71.3,374.9,68.7,371.2,66.1z M371.4,92.2
				c7.6-2.1,14.1-4.9,19.4-8.5c5.9-4,11-9.3,15.3-15.9l5,6.2c-4.8,6.3-10.1,11.6-16.1,15.7c-5.4,3.7-12.2,7.1-20.3,10.1L371.4,92.2z
				"/>
		</g>
	</g>
	<g>
		<g class="st1">
			<path class="st3" d="M80,30.4c-1.3,1-2.2,1.8-2.7,2.3c-1,1.2-1.4,2.2-1.2,3.1c0.3,1.2,1.4,2,3.5,2.5c1.7,0.4,3.6,0.6,5.6,0.6
				c4.6,0,10.7-0.8,18.2-2.5l1.4,7c-10.6,2.3-19.1,3-25.6,2.1c-6.1-0.8-9.6-3-10.7-6.8c-1.2-4.4,1-8.7,6.6-12.8L80,30.4z M72,9.2
				c10.7,0.3,19.2-0.1,25.6-1l3.9,6.2c-4.1,1.7-8.8,4.6-14,8.7l-4.5-4.8c0.8-0.5,2.5-1.6,5-3.3c-4.5,0.5-9.8,0.8-15.9,0.8L72,9.2z
				 M99.2,8.9l3.3-1.7l3.1,5.4l-3.3,1.7L99.2,8.9z M103.4,6.9l3.3-1.7l2.7,5.2l-3.3,1.7L103.4,6.9z"/>
			<path class="st3" d="M118,18.4l-3.9-2.7l3.3-3.3h-3.3V6.7h17.4l0.4-0.4L135,11c-0.9,2.1-3.1,4.5-6.6,7.4h12
				c-1-0.8-2.2-2.3-3.5-4.5c-0.9-1.5-1.9-3.8-2.9-6.8l6-2.1c0.9,2.2,1.5,3.4,1.7,3.7l3.1-3.9l5,3.5l-4.5,5.2l1,1l4.5-5.4l5,3.7
				l-4.5,5.6c1.3,1.2,3.4,2.1,6.2,2.7l-3.5,6.4c-2.6-0.5-6-2.5-10.3-5.8V24h-19.4v-2.3c-3.4,2.7-6.8,4.5-10.3,5.4l-2.9-6.4
				C114.2,20.3,116.4,19.5,118,18.4z M144.1,42h12.4v6.4h-44.4V42h12.4l-1.2-3.3h-3.5V25.3h28.9v13.4h-3.1L144.1,42z M125.9,12.3h-6
				l3.5,2.3C124.5,13.9,125.4,13.1,125.9,12.3z M126.7,33.1H142v-2.1h-15.3V33.1z M136.4,42l1.2-3.3h-6.4l1.2,3.3H136.4z"/>
			<path class="st3" d="M169.3,5l6,0.6l-0.4,1.4c1.4,2.7,3.8,5,7.2,7l-3.1,5.8l-1.2-1v3.1h-2.9v3.1h4.5v-4.5h15.9v-1.5h-12.2v-5.4
				h12.2V12h-13.4V6.3H202v14.1h4.1v6.6h-10.5c0.3,1.2,0.9,2.4,1.9,3.7l3.7-3.5l4.5,3.9l-4.6,5c1,1.9,3.1,4.1,6.2,6.6l-3.9,6.2
				c-1.3-0.9-2.8-2.5-4.5-4.7c-1.6-1.9-2.6-3.6-3.3-5v6.6c0,2.6-1.4,3.9-4.3,3.9h-5.6l-1.5-6c-1.2,1.2-2.4,2.4-3.7,3.7l-1.2-1.4
				c-1.6,0.6-6.9,1.8-16.1,3.5l-1.4-6.2l6.4-1V30.6h-6v-5.6h6v-3.1h-3.9v-0.8l-1,1l-2.3-6.2C165.3,12.7,168,9.1,169.3,5z
				 M162.5,32.9l4.5-0.6c0.5,2.1,0.8,4.9,0.8,8.5l-4.5,0.6C163.3,38.3,163,35.5,162.5,32.9z M169.1,16.2h6c-1.7-1.8-2.7-3-3.1-3.7
				C171.2,14.1,170.3,15.3,169.1,16.2z M174.9,41l2.9-0.8l0.2,0.4l5.2-4.7l-1.2,0.4c-0.1-1.2-0.7-2.5-1.7-3.9l-1.2,6.6l-3.9-0.4
				l0.8-7l3.9,0.2l-1-1.4h-4.1V41z M188.9,40.8V27.1h-9.3v2.3l4.5-1.7c0.4,0.4,1,1.4,1.9,2.9c0.9,1.5,1.4,2.7,1.5,3.5l-2.7,1.4
				l3.5,4.3l-3.1,2.9h1.9C188.4,42.6,189,42,188.9,40.8z"/>
			<path class="st3" d="M225.3,24.7l-1.4-1.7c-3.7-4.8-4-9.1-0.8-13c1.2-1.4,2.6-2.5,4.5-3.3c2.2-0.8,4.3-1,6.2-0.6
				c5.6,1.3,8.3,4.3,8.1,8.9c-0.1,4.4-2.5,8.1-7.2,11.2l5.4,6.8c1-1.8,1.9-4.5,2.7-7.9h6.6c-0.8,5-2.5,9.4-5.2,13.2l6.8,7.9h-8.1
				l-2.9-3.5c-2.2,1.5-3.9,2.6-5,3.1c-1.8,0.8-3.7,1.2-5.6,1.2c-3.7,0-6.8-1.2-9.1-3.5c-2.3-2.5-3.1-5.5-2.3-9.1
				C218.8,31.1,221.3,27.8,225.3,24.7z M235.9,37.9l-7-8.3c-1.7,0.9-3,2.2-3.9,3.9c-1.3,2.1-1.3,3.9,0,5.6c1,1.4,2.6,2,4.6,1.7
				C232.2,40.6,234.3,39.6,235.9,37.9z M230.7,21.3c2.6-1.3,4.1-3.1,4.5-5.4c0.5-2.7-0.6-4.1-3.3-4.3c-2.6-0.1-4,0.9-4.3,3.1
				C227.4,16.9,228.4,19.1,230.7,21.3z"/>
			<path class="st3" d="M271.2,26.5v-4.8l-8.5,0.4l-0.2-6.6l8.9-0.4c0-2.7,0.1-5.6,0.2-8.7l6.8,0.4c-0.3,3.9-0.4,6.5-0.4,7.9
				c2.2-0.1,4.8-0.5,7.9-1l0.2,6.8l-8.1,0.8v3.3c3.9-1,7.2-1.4,9.9-1.2c3.6,0.4,6.6,1.8,8.9,4.3c2.1,2.2,3.2,4.9,3.3,8.1
				c0.1,3.4-0.8,6-2.9,7.9c-1.8,1.9-4.1,3-7,3.3c-2.7,0.3-5-0.3-7-1.7c-1.9-1.4-3.1-3.6-3.5-6.6l6.4-1.9c0.5,2.2,1.8,3.2,3.9,2.9
				c1.4-0.3,2.3-1.1,2.7-2.5c0.4-1.3,0.2-2.6-0.6-4.1c-1.2-1.9-3.4-3-6.6-3.3c-2.3-0.1-4.8,0.2-7.6,1l0.2,8.9c0,2.3-0.6,4.3-1.7,5.8
				c-1.4,1.8-3.4,2.7-6,2.7c-2.8-0.1-5.2-1.2-7.2-3.3c-2.1-2.2-2.8-4.8-2.3-7.9c0.4-2.1,1.7-4.2,3.9-6.4
				C266.8,28.8,268.9,27.4,271.2,26.5z M271.4,33.7c-1.4,0.8-2.4,1.4-2.9,1.9c-1,0.9-1.4,1.9-1.2,2.9c0.1,0.9,0.5,1.6,1.2,1.9
				c0.6,0.4,1.3,0.4,1.9,0c0.5-0.4,0.8-1,1-1.9C271.5,37.7,271.5,36.1,271.4,33.7z M288.6,17.8l4.1-5.2c4,2.8,7.3,5.4,9.9,7.8
				l-4.3,5.2C295.1,22.6,291.9,20,288.6,17.8z"/>
			<path class="st3" d="M320.2,7.3c-0.8,3.6-1.9,7-3.3,10.1v32.9h-6.6V27.8c-0.9,1.8-1.7,3.1-2.5,3.9l-2.7-8.5
				c4.1-5.2,7-11.2,8.7-18L320.2,7.3z M318.1,25.1v-6.2h12.6V5h7v14h13v6.2h-13v16.5h10.7v6.2h-28.1v-6.2h10.5V25.1H318.1z"/>
			<path class="st3" d="M374.5,7.1V4.4h7v2.7h18.8v5.4h-18.8v1.2h12.8v10.1h-12.8v1h14.7v6h4.3v5h-4.3v7.6h-7v-1.7h-7.8v3.9
				c0,3-1.3,4.5-3.9,4.5h-7.4l-2.3-5.8h4.8c1.2,0.1,1.7-0.5,1.7-1.7v-0.8H359v-4.8h15.5v-1.2h-19v-4.8h19v-1.2H359v-4.8h15.5v-1
				h-12.8V13.7h12.8v-1.2h-19V7.1H374.5z M368.5,19.3h6v-1.6h-6V19.3z M381.5,19.3h6v-1.6h-6V19.3z M381.5,30.8h7.8v-1.2h-7.8V30.8z
				 M381.5,36.8h7.8v-1.2h-7.8V36.8z"/>
			<path class="st3" d="M406.3,49.9V5.8h20.2v16.9h-13.2v27.3H406.3z M413.2,12.3h6.8v-1.5h-6.8V12.3z M413.2,17.8h6.8V16h-6.8V17.8
				z M419,38.7h-4.6v-5.6h5.2v-3.3h-4.3v-5.6h24.2v5.6h-4.3v3.3h5v5.6h-5v10.1h-6.4V38.7H426c-0.4,2.2-1,4.1-1.7,5.6
				c-1.2,2.1-3,3.9-5.6,5.6l-4.7-5.4C417.2,42.6,418.9,40.6,419,38.7z M426.4,33.1h2.5v-3.3h-2.5V33.1z M438.8,49.7l-2.3-6.4h3.7
				c0.9,0,1.4-0.8,1.4-2.5V22.6h-13V5.8h20v37.6c0,2.1-0.3,3.6-0.8,4.5c-0.6,1.3-1.8,1.9-3.5,1.9H438.8z M434.7,12.3h6.8v-1.5h-6.8
				V12.3z M434.7,17.8h6.8V16h-6.8V17.8z"/>
			<path class="st3" d="M487.8,13.1l5.6-2.9c2.1,3.5,4.3,7.8,6.6,13l-5.8,2.9l-1-2.3l-19.8,1.7c-0.1,1.4-0.5,3.3-1.2,5.6
				c-0.6,2.2-1.3,3.8-1.9,4.8l3.3,2.9l-3.5,5.6l-2.9-2.7c-1.9,3.5-4.5,6.3-7.6,8.3l-4.8-5.8c3.4-1.9,5.7-4.3,7.2-7l-1.9-1.7l-1,1.7
				l-5.6-3.5c1.4-2.3,2.7-4.9,3.9-7.8c1-2.6,1.7-4.9,2.1-7h-4.8v-6h6c0.5-2.5,0.8-5.2,1-8.3l6.4,0.6c0,0.6-0.1,1.9-0.4,3.7
				c-0.3,2.2-0.5,3.6-0.6,4.1h7.4l-0.4,6h2.5c1.2-3,2.6-7.8,4.5-14.5l6.8,0.8c-1.4,5-2.9,9.4-4.5,13.2l7-0.8
				C490.1,16.7,489.2,15.2,487.8,13.1z M467.9,19.1h-1.9c-0.8,4-1.9,7.5-3.3,10.5l2.7,1.9c0.6-1,1.2-2.9,1.7-5.6
				C467.6,23.2,467.9,20.9,467.9,19.1z M475.2,27.7h21.5v22.1H490V48h-7.8v1.7h-7V27.7z M482.2,41.8h7.8v-7.9h-7.8V41.8z"/>
		</g>
		<g class="st1">
			<path class="st3" d="M159.6,79l16.1-1.9l-0.6-5.2l-12,1.5l-1.2-6.8l12.2-1.5l-1.2-7.4l7.6-1l1,7.6l12-1.4l0.8,6.8l-12,1.4l0.8,5
				l15.3-1.9l1,6.8L184,82.7l2.1,14.7l-7.2,1l-2.1-14.7l-16.5,1.9L159.6,79z"/>
			<path class="st3" d="M202.6,75.9l8.3-1.4l-1.5-7.4l6.2-1.2l1.7,7.8l12.4-1.7l0.6-0.6l4.8,4.5c-3.2,4.7-6.1,8.3-8.7,11l-4.5-3.3
				c1.7-1.8,3.2-3.7,4.6-5.6l-8.3,1.4l3.7,17.4l-6.2,1.4l-3.7-17.8l-8.5,1.4L202.6,75.9z"/>
			<path class="st3" d="M238,64.1l4.8-6c3.2,2.2,6.7,4.8,10.5,7.9l-5,6C245.2,69.3,241.8,66.7,238,64.1z M238.2,90.2
				c7.6-2.1,14.1-4.9,19.4-8.5c5.9-4,11-9.3,15.3-15.9l5,6.2c-4.8,6.3-10.1,11.6-16.1,15.7c-5.4,3.7-12.2,7.1-20.3,10.1L238.2,90.2z
				"/>
			<path class="st3" d="M293.2,63.9c0.9-1.2,2-1.9,3.3-2.1c2.1-0.3,3.8,0.5,5.2,2.1c8,9.2,15.7,16.9,23.1,23.1l-5.4,6.6
				c-4.3-4.4-8.1-8.5-11.6-12.4c-3.2-3.5-6.3-6.8-9.1-10.1c-0.8-0.9-1.4-0.9-1.9,0c-4,6.3-7.6,11.3-10.9,14.9l-5.4-6.4
				c2.8-2.7,5.2-5.4,7.2-7.9C289.7,68.9,291.6,66.4,293.2,63.9z M316.1,68.2c-1.5,0.1-2.8-0.3-3.7-1.4c-0.8-0.9-1.2-1.9-1.2-3.1
				c0-1.4,0.3-2.5,1-3.3c0.9-1.2,2.1-1.7,3.7-1.7c1.4,0.1,2.6,0.6,3.5,1.5c0.8,0.9,1.2,1.9,1.2,3.1c0,1.2-0.3,2.2-1,3.1
				C318.7,67.6,317.5,68.2,316.1,68.2z M317.5,64.9c0.4-0.4,0.6-0.8,0.6-1.4c0-0.5-0.2-1-0.6-1.4s-0.8-0.6-1.4-0.6
				c-0.5,0-1,0.2-1.4,0.6s-0.6,0.8-0.6,1.4c0,0.5,0.2,1,0.6,1.4c0.4,0.4,0.8,0.6,1.4,0.6C316.6,65.4,317.1,65.3,317.5,64.9z"/>
			<path class="st3" d="M327.7,74.2h37.6v6.6h-37.6V74.2z"/>
			<path class="st3" d="M369.2,64.1l4.8-6c3.2,2.2,6.7,4.8,10.5,7.9l-5,6C376.4,69.3,372.9,66.7,369.2,64.1z M369.4,90.2
				c7.6-2.1,14.1-4.9,19.4-8.5c5.9-4,11-9.3,15.3-15.9l5,6.2c-4.8,6.3-10.1,11.6-16.1,15.7c-5.4,3.7-12.2,7.1-20.3,10.1L369.4,90.2z
				"/>
		</g>
		<g class="st1">
			<path class="st4" d="M80,30.4c-1.3,1-2.2,1.8-2.7,2.3c-1,1.2-1.4,2.2-1.2,3.1c0.3,1.2,1.4,2,3.5,2.5c1.7,0.4,3.6,0.6,5.6,0.6
				c4.6,0,10.7-0.8,18.2-2.5l1.4,7c-10.6,2.3-19.1,3-25.6,2.1c-6.1-0.8-9.6-3-10.7-6.8c-1.2-4.4,1-8.7,6.6-12.8L80,30.4z M72,9.2
				c10.7,0.3,19.2-0.1,25.6-1l3.9,6.2c-4.1,1.7-8.8,4.6-14,8.7l-4.5-4.8c0.8-0.5,2.5-1.6,5-3.3c-4.5,0.5-9.8,0.8-15.9,0.8L72,9.2z
				 M99.2,8.9l3.3-1.7l3.1,5.4l-3.3,1.7L99.2,8.9z M103.4,6.9l3.3-1.7l2.7,5.2l-3.3,1.7L103.4,6.9z"/>
			<path class="st4" d="M118,18.4l-3.9-2.7l3.3-3.3h-3.3V6.7h17.4l0.4-0.4L135,11c-0.9,2.1-3.1,4.5-6.6,7.4h12
				c-1-0.8-2.2-2.3-3.5-4.5c-0.9-1.5-1.9-3.8-2.9-6.8l6-2.1c0.9,2.2,1.5,3.4,1.7,3.7l3.1-3.9l5,3.5l-4.5,5.2l1,1l4.5-5.4l5,3.7
				l-4.5,5.6c1.3,1.2,3.4,2.1,6.2,2.7l-3.5,6.4c-2.6-0.5-6-2.5-10.3-5.8V24h-19.4v-2.3c-3.4,2.7-6.8,4.5-10.3,5.4l-2.9-6.4
				C114.2,20.3,116.4,19.5,118,18.4z M144.1,42h12.4v6.4h-44.4V42h12.4l-1.2-3.3h-3.5V25.3h28.9v13.4h-3.1L144.1,42z M125.9,12.3h-6
				l3.5,2.3C124.5,13.9,125.4,13.1,125.9,12.3z M126.7,33.1H142v-2.1h-15.3V33.1z M136.4,42l1.2-3.3h-6.4l1.2,3.3H136.4z"/>
			<path class="st4" d="M169.3,5l6,0.6l-0.4,1.4c1.4,2.7,3.8,5,7.2,7l-3.1,5.8l-1.2-1v3.1h-2.9v3.1h4.5v-4.5h15.9v-1.5h-12.2v-5.4
				h12.2V12h-13.4V6.3H202v14.1h4.1v6.6h-10.5c0.3,1.2,0.9,2.4,1.9,3.7l3.7-3.5l4.5,3.9l-4.6,5c1,1.9,3.1,4.1,6.2,6.6l-3.9,6.2
				c-1.3-0.9-2.8-2.5-4.5-4.7c-1.6-1.9-2.6-3.6-3.3-5v6.6c0,2.6-1.4,3.9-4.3,3.9h-5.6l-1.5-6c-1.2,1.2-2.4,2.4-3.7,3.7l-1.2-1.4
				c-1.6,0.6-6.9,1.8-16.1,3.5l-1.4-6.2l6.4-1V30.6h-6v-5.6h6v-3.1h-3.9v-0.8l-1,1l-2.3-6.2C165.3,12.7,168,9.1,169.3,5z
				 M162.5,32.9l4.5-0.6c0.5,2.1,0.8,4.9,0.8,8.5l-4.5,0.6C163.3,38.3,163,35.5,162.5,32.9z M169.1,16.2h6c-1.7-1.8-2.7-3-3.1-3.7
				C171.2,14.1,170.3,15.3,169.1,16.2z M174.9,41l2.9-0.8l0.2,0.4l5.2-4.7l-1.2,0.4c-0.1-1.2-0.7-2.5-1.7-3.9l-1.2,6.6l-3.9-0.4
				l0.8-7l3.9,0.2l-1-1.4h-4.1V41z M188.9,40.8V27.1h-9.3v2.3l4.5-1.7c0.4,0.4,1,1.4,1.9,2.9c0.9,1.5,1.4,2.7,1.5,3.5l-2.7,1.4
				l3.5,4.3l-3.1,2.9h1.9C188.4,42.6,189,42,188.9,40.8z"/>
			<path class="st4" d="M225.3,24.7l-1.4-1.7c-3.7-4.8-4-9.1-0.8-13c1.2-1.4,2.6-2.5,4.5-3.3c2.2-0.8,4.3-1,6.2-0.6
				c5.6,1.3,8.3,4.3,8.1,8.9c-0.1,4.4-2.5,8.1-7.2,11.2l5.4,6.8c1-1.8,1.9-4.5,2.7-7.9h6.6c-0.8,5-2.5,9.4-5.2,13.2l6.8,7.9h-8.1
				l-2.9-3.5c-2.2,1.5-3.9,2.6-5,3.1c-1.8,0.8-3.7,1.2-5.6,1.2c-3.7,0-6.8-1.2-9.1-3.5c-2.3-2.5-3.1-5.5-2.3-9.1
				C218.8,31.1,221.3,27.8,225.3,24.7z M235.9,37.9l-7-8.3c-1.7,0.9-3,2.2-3.9,3.9c-1.3,2.1-1.3,3.9,0,5.6c1,1.4,2.6,2,4.6,1.7
				C232.2,40.6,234.3,39.6,235.9,37.9z M230.7,21.3c2.6-1.3,4.1-3.1,4.5-5.4c0.5-2.7-0.6-4.1-3.3-4.3c-2.6-0.1-4,0.9-4.3,3.1
				C227.4,16.9,228.4,19.1,230.7,21.3z"/>
			<path class="st4" d="M271.2,26.5v-4.8l-8.5,0.4l-0.2-6.6l8.9-0.4c0-2.7,0.1-5.6,0.2-8.7l6.8,0.4c-0.3,3.9-0.4,6.5-0.4,7.9
				c2.2-0.1,4.8-0.5,7.9-1l0.2,6.8l-8.1,0.8v3.3c3.9-1,7.2-1.4,9.9-1.2c3.6,0.4,6.6,1.8,8.9,4.3c2.1,2.2,3.2,4.9,3.3,8.1
				c0.1,3.4-0.8,6-2.9,7.9c-1.8,1.9-4.1,3-7,3.3c-2.7,0.3-5-0.3-7-1.7c-1.9-1.4-3.1-3.6-3.5-6.6l6.4-1.9c0.5,2.2,1.8,3.2,3.9,2.9
				c1.4-0.3,2.3-1.1,2.7-2.5c0.4-1.3,0.2-2.6-0.6-4.1c-1.2-1.9-3.4-3-6.6-3.3c-2.3-0.1-4.8,0.2-7.6,1l0.2,8.9c0,2.3-0.6,4.3-1.7,5.8
				c-1.4,1.8-3.4,2.7-6,2.7c-2.8-0.1-5.2-1.2-7.2-3.3c-2.1-2.2-2.8-4.8-2.3-7.9c0.4-2.1,1.7-4.2,3.9-6.4
				C266.8,28.8,268.9,27.4,271.2,26.5z M271.4,33.7c-1.4,0.8-2.4,1.4-2.9,1.9c-1,0.9-1.4,1.9-1.2,2.9c0.1,0.9,0.5,1.6,1.2,1.9
				c0.6,0.4,1.3,0.4,1.9,0c0.5-0.4,0.8-1,1-1.9C271.5,37.7,271.5,36.1,271.4,33.7z M288.6,17.8l4.1-5.2c4,2.8,7.3,5.4,9.9,7.8
				l-4.3,5.2C295.1,22.6,291.9,20,288.6,17.8z"/>
			<path class="st4" d="M320.2,7.3c-0.8,3.6-1.9,7-3.3,10.1v32.9h-6.6V27.8c-0.9,1.8-1.7,3.1-2.5,3.9l-2.7-8.5
				c4.1-5.2,7-11.2,8.7-18L320.2,7.3z M318.1,25.1v-6.2h12.6V5h7v14h13v6.2h-13v16.5h10.7v6.2h-28.1v-6.2h10.5V25.1H318.1z"/>
			<path class="st4" d="M374.5,7.1V4.4h7v2.7h18.8v5.4h-18.8v1.2h12.8v10.1h-12.8v1h14.7v6h4.3v5h-4.3v7.6h-7v-1.7h-7.8v3.9
				c0,3-1.3,4.5-3.9,4.5h-7.4l-2.3-5.8h4.8c1.2,0.1,1.7-0.5,1.7-1.7v-0.8H359v-4.8h15.5v-1.2h-19v-4.8h19v-1.2H359v-4.8h15.5v-1
				h-12.8V13.7h12.8v-1.2h-19V7.1H374.5z M368.5,19.3h6v-1.6h-6V19.3z M381.5,19.3h6v-1.6h-6V19.3z M381.5,30.8h7.8v-1.2h-7.8V30.8z
				 M381.5,36.8h7.8v-1.2h-7.8V36.8z"/>
			<path class="st4" d="M406.3,49.9V5.8h20.2v16.9h-13.2v27.3H406.3z M413.2,12.3h6.8v-1.5h-6.8V12.3z M413.2,17.8h6.8V16h-6.8V17.8
				z M419,38.7h-4.6v-5.6h5.2v-3.3h-4.3v-5.6h24.2v5.6h-4.3v3.3h5v5.6h-5v10.1h-6.4V38.7H426c-0.4,2.2-1,4.1-1.7,5.6
				c-1.2,2.1-3,3.9-5.6,5.6l-4.7-5.4C417.2,42.6,418.9,40.6,419,38.7z M426.4,33.1h2.5v-3.3h-2.5V33.1z M438.8,49.7l-2.3-6.4h3.7
				c0.9,0,1.4-0.8,1.4-2.5V22.6h-13V5.8h20v37.6c0,2.1-0.3,3.6-0.8,4.5c-0.6,1.3-1.8,1.9-3.5,1.9H438.8z M434.7,12.3h6.8v-1.5h-6.8
				V12.3z M434.7,17.8h6.8V16h-6.8V17.8z"/>
			<path class="st4" d="M487.8,13.1l5.6-2.9c2.1,3.5,4.3,7.8,6.6,13l-5.8,2.9l-1-2.3l-19.8,1.7c-0.1,1.4-0.5,3.3-1.2,5.6
				c-0.6,2.2-1.3,3.8-1.9,4.8l3.3,2.9l-3.5,5.6l-2.9-2.7c-1.9,3.5-4.5,6.3-7.6,8.3l-4.8-5.8c3.4-1.9,5.7-4.3,7.2-7l-1.9-1.7l-1,1.7
				l-5.6-3.5c1.4-2.3,2.7-4.9,3.9-7.8c1-2.6,1.7-4.9,2.1-7h-4.8v-6h6c0.5-2.5,0.8-5.2,1-8.3l6.4,0.6c0,0.6-0.1,1.9-0.4,3.7
				c-0.3,2.2-0.5,3.6-0.6,4.1h7.4l-0.4,6h2.5c1.2-3,2.6-7.8,4.5-14.5l6.8,0.8c-1.4,5-2.9,9.4-4.5,13.2l7-0.8
				C490.1,16.7,489.2,15.2,487.8,13.1z M467.9,19.1h-1.9c-0.8,4-1.9,7.5-3.3,10.5l2.7,1.9c0.6-1,1.2-2.9,1.7-5.6
				C467.6,23.2,467.9,20.9,467.9,19.1z M475.2,27.7h21.5v22.1H490V48h-7.8v1.7h-7V27.7z M482.2,41.8h7.8v-7.9h-7.8V41.8z"/>
		</g>
		<g class="st1">
			<path class="st4" d="M159.6,79l16.1-1.9l-0.6-5.2l-12,1.5l-1.2-6.8l12.2-1.5l-1.2-7.4l7.6-1l1,7.6l12-1.4l0.8,6.8l-12,1.4l0.8,5
				l15.3-1.9l1,6.8L184,82.7l2.1,14.7l-7.2,1l-2.1-14.7l-16.5,1.9L159.6,79z"/>
			<path class="st4" d="M202.6,75.9l8.3-1.4l-1.5-7.4l6.2-1.2l1.7,7.8l12.4-1.7l0.6-0.6l4.8,4.5c-3.2,4.7-6.1,8.3-8.7,11l-4.5-3.3
				c1.7-1.8,3.2-3.7,4.6-5.6l-8.3,1.4l3.7,17.4l-6.2,1.4l-3.7-17.8l-8.5,1.4L202.6,75.9z"/>
			<path class="st4" d="M238,64.1l4.8-6c3.2,2.2,6.7,4.8,10.5,7.9l-5,6C245.2,69.3,241.8,66.7,238,64.1z M238.2,90.2
				c7.6-2.1,14.1-4.9,19.4-8.5c5.9-4,11-9.3,15.3-15.9l5,6.2c-4.8,6.3-10.1,11.6-16.1,15.7c-5.4,3.7-12.2,7.1-20.3,10.1L238.2,90.2z
				"/>
			<path class="st4" d="M293.2,63.9c0.9-1.2,2-1.9,3.3-2.1c2.1-0.3,3.8,0.5,5.2,2.1c8,9.2,15.7,16.9,23.1,23.1l-5.4,6.6
				c-4.3-4.4-8.1-8.5-11.6-12.4c-3.2-3.5-6.3-6.8-9.1-10.1c-0.8-0.9-1.4-0.9-1.9,0c-4,6.3-7.6,11.3-10.9,14.9l-5.4-6.4
				c2.8-2.7,5.2-5.4,7.2-7.9C289.7,68.9,291.6,66.4,293.2,63.9z M316.1,68.2c-1.5,0.1-2.8-0.3-3.7-1.4c-0.8-0.9-1.2-1.9-1.2-3.1
				c0-1.4,0.3-2.5,1-3.3c0.9-1.2,2.1-1.7,3.7-1.7c1.4,0.1,2.6,0.6,3.5,1.5c0.8,0.9,1.2,1.9,1.2,3.1c0,1.2-0.3,2.2-1,3.1
				C318.7,67.6,317.5,68.2,316.1,68.2z M317.5,64.9c0.4-0.4,0.6-0.8,0.6-1.4c0-0.5-0.2-1-0.6-1.4s-0.8-0.6-1.4-0.6
				c-0.5,0-1,0.2-1.4,0.6s-0.6,0.8-0.6,1.4c0,0.5,0.2,1,0.6,1.4c0.4,0.4,0.8,0.6,1.4,0.6C316.6,65.4,317.1,65.3,317.5,64.9z"/>
			<path class="st4" d="M327.7,74.2h37.6v6.6h-37.6V74.2z"/>
			<path class="st4" d="M369.2,64.1l4.8-6c3.2,2.2,6.7,4.8,10.5,7.9l-5,6C376.4,69.3,372.9,66.7,369.2,64.1z M369.4,90.2
				c7.6-2.1,14.1-4.9,19.4-8.5c5.9-4,11-9.3,15.3-15.9l5,6.2c-4.8,6.3-10.1,11.6-16.1,15.7c-5.4,3.7-12.2,7.1-20.3,10.1L369.4,90.2z
				"/>
		</g>
		<g class="st1">
			<path class="st3" d="M80,30.4c-1.3,1-2.2,1.8-2.7,2.3c-1,1.2-1.4,2.2-1.2,3.1c0.3,1.2,1.4,2,3.5,2.5c1.7,0.4,3.6,0.6,5.6,0.6
				c4.6,0,10.7-0.8,18.2-2.5l1.4,7c-10.6,2.3-19.1,3-25.6,2.1c-6.1-0.8-9.6-3-10.7-6.8c-1.2-4.4,1-8.7,6.6-12.8L80,30.4z M72,9.2
				c10.7,0.3,19.2-0.1,25.6-1l3.9,6.2c-4.1,1.7-8.8,4.6-14,8.7l-4.5-4.8c0.8-0.5,2.5-1.6,5-3.3c-4.5,0.5-9.8,0.8-15.9,0.8L72,9.2z
				 M99.2,8.9l3.3-1.7l3.1,5.4l-3.3,1.7L99.2,8.9z M103.4,6.9l3.3-1.7l2.7,5.2l-3.3,1.7L103.4,6.9z"/>
			<path class="st3" d="M118,18.4l-3.9-2.7l3.3-3.3h-3.3V6.7h17.4l0.4-0.4L135,11c-0.9,2.1-3.1,4.5-6.6,7.4h12
				c-1-0.8-2.2-2.3-3.5-4.5c-0.9-1.5-1.9-3.8-2.9-6.8l6-2.1c0.9,2.2,1.5,3.4,1.7,3.7l3.1-3.9l5,3.5l-4.5,5.2l1,1l4.5-5.4l5,3.7
				l-4.5,5.6c1.3,1.2,3.4,2.1,6.2,2.7l-3.5,6.4c-2.6-0.5-6-2.5-10.3-5.8V24h-19.4v-2.3c-3.4,2.7-6.8,4.5-10.3,5.4l-2.9-6.4
				C114.2,20.3,116.4,19.5,118,18.4z M144.1,42h12.4v6.4h-44.4V42h12.4l-1.2-3.3h-3.5V25.3h28.9v13.4h-3.1L144.1,42z M125.9,12.3h-6
				l3.5,2.3C124.5,13.9,125.4,13.1,125.9,12.3z M126.7,33.1H142v-2.1h-15.3V33.1z M136.4,42l1.2-3.3h-6.4l1.2,3.3H136.4z"/>
			<path class="st3" d="M169.3,5l6,0.6l-0.4,1.4c1.4,2.7,3.8,5,7.2,7l-3.1,5.8l-1.2-1v3.1h-2.9v3.1h4.5v-4.5h15.9v-1.5h-12.2v-5.4
				h12.2V12h-13.4V6.3H202v14.1h4.1v6.6h-10.5c0.3,1.2,0.9,2.4,1.9,3.7l3.7-3.5l4.5,3.9l-4.6,5c1,1.9,3.1,4.1,6.2,6.6l-3.9,6.2
				c-1.3-0.9-2.8-2.5-4.5-4.7c-1.6-1.9-2.6-3.6-3.3-5v6.6c0,2.6-1.4,3.9-4.3,3.9h-5.6l-1.5-6c-1.2,1.2-2.4,2.4-3.7,3.7l-1.2-1.4
				c-1.6,0.6-6.9,1.8-16.1,3.5l-1.4-6.2l6.4-1V30.6h-6v-5.6h6v-3.1h-3.9v-0.8l-1,1l-2.3-6.2C165.3,12.7,168,9.1,169.3,5z
				 M162.5,32.9l4.5-0.6c0.5,2.1,0.8,4.9,0.8,8.5l-4.5,0.6C163.3,38.3,163,35.5,162.5,32.9z M169.1,16.2h6c-1.7-1.8-2.7-3-3.1-3.7
				C171.2,14.1,170.3,15.3,169.1,16.2z M174.9,41l2.9-0.8l0.2,0.4l5.2-4.7l-1.2,0.4c-0.1-1.2-0.7-2.5-1.7-3.9l-1.2,6.6l-3.9-0.4
				l0.8-7l3.9,0.2l-1-1.4h-4.1V41z M188.9,40.8V27.1h-9.3v2.3l4.5-1.7c0.4,0.4,1,1.4,1.9,2.9c0.9,1.5,1.4,2.7,1.5,3.5l-2.7,1.4
				l3.5,4.3l-3.1,2.9h1.9C188.4,42.6,189,42,188.9,40.8z"/>
			<path class="st3" d="M225.3,24.7l-1.4-1.7c-3.7-4.8-4-9.1-0.8-13c1.2-1.4,2.6-2.5,4.5-3.3c2.2-0.8,4.3-1,6.2-0.6
				c5.6,1.3,8.3,4.3,8.1,8.9c-0.1,4.4-2.5,8.1-7.2,11.2l5.4,6.8c1-1.8,1.9-4.5,2.7-7.9h6.6c-0.8,5-2.5,9.4-5.2,13.2l6.8,7.9h-8.1
				l-2.9-3.5c-2.2,1.5-3.9,2.6-5,3.1c-1.8,0.8-3.7,1.2-5.6,1.2c-3.7,0-6.8-1.2-9.1-3.5c-2.3-2.5-3.1-5.5-2.3-9.1
				C218.8,31.1,221.3,27.8,225.3,24.7z M235.9,37.9l-7-8.3c-1.7,0.9-3,2.2-3.9,3.9c-1.3,2.1-1.3,3.9,0,5.6c1,1.4,2.6,2,4.6,1.7
				C232.2,40.6,234.3,39.6,235.9,37.9z M230.7,21.3c2.6-1.3,4.1-3.1,4.5-5.4c0.5-2.7-0.6-4.1-3.3-4.3c-2.6-0.1-4,0.9-4.3,3.1
				C227.4,16.9,228.4,19.1,230.7,21.3z"/>
			<path class="st3" d="M271.2,26.5v-4.8l-8.5,0.4l-0.2-6.6l8.9-0.4c0-2.7,0.1-5.6,0.2-8.7l6.8,0.4c-0.3,3.9-0.4,6.5-0.4,7.9
				c2.2-0.1,4.8-0.5,7.9-1l0.2,6.8l-8.1,0.8v3.3c3.9-1,7.2-1.4,9.9-1.2c3.6,0.4,6.6,1.8,8.9,4.3c2.1,2.2,3.2,4.9,3.3,8.1
				c0.1,3.4-0.8,6-2.9,7.9c-1.8,1.9-4.1,3-7,3.3c-2.7,0.3-5-0.3-7-1.7c-1.9-1.4-3.1-3.6-3.5-6.6l6.4-1.9c0.5,2.2,1.8,3.2,3.9,2.9
				c1.4-0.3,2.3-1.1,2.7-2.5c0.4-1.3,0.2-2.6-0.6-4.1c-1.2-1.9-3.4-3-6.6-3.3c-2.3-0.1-4.8,0.2-7.6,1l0.2,8.9c0,2.3-0.6,4.3-1.7,5.8
				c-1.4,1.8-3.4,2.7-6,2.7c-2.8-0.1-5.2-1.2-7.2-3.3c-2.1-2.2-2.8-4.8-2.3-7.9c0.4-2.1,1.7-4.2,3.9-6.4
				C266.8,28.8,268.9,27.4,271.2,26.5z M271.4,33.7c-1.4,0.8-2.4,1.4-2.9,1.9c-1,0.9-1.4,1.9-1.2,2.9c0.1,0.9,0.5,1.6,1.2,1.9
				c0.6,0.4,1.3,0.4,1.9,0c0.5-0.4,0.8-1,1-1.9C271.5,37.7,271.5,36.1,271.4,33.7z M288.6,17.8l4.1-5.2c4,2.8,7.3,5.4,9.9,7.8
				l-4.3,5.2C295.1,22.6,291.9,20,288.6,17.8z"/>
			<path class="st3" d="M320.2,7.3c-0.8,3.6-1.9,7-3.3,10.1v32.9h-6.6V27.8c-0.9,1.8-1.7,3.1-2.5,3.9l-2.7-8.5
				c4.1-5.2,7-11.2,8.7-18L320.2,7.3z M318.1,25.1v-6.2h12.6V5h7v14h13v6.2h-13v16.5h10.7v6.2h-28.1v-6.2h10.5V25.1H318.1z"/>
			<path class="st3" d="M374.5,7.1V4.4h7v2.7h18.8v5.4h-18.8v1.2h12.8v10.1h-12.8v1h14.7v6h4.3v5h-4.3v7.6h-7v-1.7h-7.8v3.9
				c0,3-1.3,4.5-3.9,4.5h-7.4l-2.3-5.8h4.8c1.2,0.1,1.7-0.5,1.7-1.7v-0.8H359v-4.8h15.5v-1.2h-19v-4.8h19v-1.2H359v-4.8h15.5v-1
				h-12.8V13.7h12.8v-1.2h-19V7.1H374.5z M368.5,19.3h6v-1.6h-6V19.3z M381.5,19.3h6v-1.6h-6V19.3z M381.5,30.8h7.8v-1.2h-7.8V30.8z
				 M381.5,36.8h7.8v-1.2h-7.8V36.8z"/>
			<path class="st3" d="M406.3,49.9V5.8h20.2v16.9h-13.2v27.3H406.3z M413.2,12.3h6.8v-1.5h-6.8V12.3z M413.2,17.8h6.8V16h-6.8V17.8
				z M419,38.7h-4.6v-5.6h5.2v-3.3h-4.3v-5.6h24.2v5.6h-4.3v3.3h5v5.6h-5v10.1h-6.4V38.7H426c-0.4,2.2-1,4.1-1.7,5.6
				c-1.2,2.1-3,3.9-5.6,5.6l-4.7-5.4C417.2,42.6,418.9,40.6,419,38.7z M426.4,33.1h2.5v-3.3h-2.5V33.1z M438.8,49.7l-2.3-6.4h3.7
				c0.9,0,1.4-0.8,1.4-2.5V22.6h-13V5.8h20v37.6c0,2.1-0.3,3.6-0.8,4.5c-0.6,1.3-1.8,1.9-3.5,1.9H438.8z M434.7,12.3h6.8v-1.5h-6.8
				V12.3z M434.7,17.8h6.8V16h-6.8V17.8z"/>
			<path class="st3" d="M487.8,13.1l5.6-2.9c2.1,3.5,4.3,7.8,6.6,13l-5.8,2.9l-1-2.3l-19.8,1.7c-0.1,1.4-0.5,3.3-1.2,5.6
				c-0.6,2.2-1.3,3.8-1.9,4.8l3.3,2.9l-3.5,5.6l-2.9-2.7c-1.9,3.5-4.5,6.3-7.6,8.3l-4.8-5.8c3.4-1.9,5.7-4.3,7.2-7l-1.9-1.7l-1,1.7
				l-5.6-3.5c1.4-2.3,2.7-4.9,3.9-7.8c1-2.6,1.7-4.9,2.1-7h-4.8v-6h6c0.5-2.5,0.8-5.2,1-8.3l6.4,0.6c0,0.6-0.1,1.9-0.4,3.7
				c-0.3,2.2-0.5,3.6-0.6,4.1h7.4l-0.4,6h2.5c1.2-3,2.6-7.8,4.5-14.5l6.8,0.8c-1.4,5-2.9,9.4-4.5,13.2l7-0.8
				C490.1,16.7,489.2,15.2,487.8,13.1z M467.9,19.1h-1.9c-0.8,4-1.9,7.5-3.3,10.5l2.7,1.9c0.6-1,1.2-2.9,1.7-5.6
				C467.6,23.2,467.9,20.9,467.9,19.1z M475.2,27.7h21.5v22.1H490V48h-7.8v1.7h-7V27.7z M482.2,41.8h7.8v-7.9h-7.8V41.8z"/>
		</g>
		<g class="st1">
			<path class="st3" d="M159.6,79l16.1-1.9l-0.6-5.2l-12,1.5l-1.2-6.8l12.2-1.5l-1.2-7.4l7.6-1l1,7.6l12-1.4l0.8,6.8l-12,1.4l0.8,5
				l15.3-1.9l1,6.8L184,82.7l2.1,14.7l-7.2,1l-2.1-14.7l-16.5,1.9L159.6,79z"/>
			<path class="st3" d="M202.6,75.9l8.3-1.4l-1.5-7.4l6.2-1.2l1.7,7.8l12.4-1.7l0.6-0.6l4.8,4.5c-3.2,4.7-6.1,8.3-8.7,11l-4.5-3.3
				c1.7-1.8,3.2-3.7,4.6-5.6l-8.3,1.4l3.7,17.4l-6.2,1.4l-3.7-17.8l-8.5,1.4L202.6,75.9z"/>
			<path class="st3" d="M238,64.1l4.8-6c3.2,2.2,6.7,4.8,10.5,7.9l-5,6C245.2,69.3,241.8,66.7,238,64.1z M238.2,90.2
				c7.6-2.1,14.1-4.9,19.4-8.5c5.9-4,11-9.3,15.3-15.9l5,6.2c-4.8,6.3-10.1,11.6-16.1,15.7c-5.4,3.7-12.2,7.1-20.3,10.1L238.2,90.2z
				"/>
			<path class="st3" d="M293.2,63.9c0.9-1.2,2-1.9,3.3-2.1c2.1-0.3,3.8,0.5,5.2,2.1c8,9.2,15.7,16.9,23.1,23.1l-5.4,6.6
				c-4.3-4.4-8.1-8.5-11.6-12.4c-3.2-3.5-6.3-6.8-9.1-10.1c-0.8-0.9-1.4-0.9-1.9,0c-4,6.3-7.6,11.3-10.9,14.9l-5.4-6.4
				c2.8-2.7,5.2-5.4,7.2-7.9C289.7,68.9,291.6,66.4,293.2,63.9z M316.1,68.2c-1.5,0.1-2.8-0.3-3.7-1.4c-0.8-0.9-1.2-1.9-1.2-3.1
				c0-1.4,0.3-2.5,1-3.3c0.9-1.2,2.1-1.7,3.7-1.7c1.4,0.1,2.6,0.6,3.5,1.5c0.8,0.9,1.2,1.9,1.2,3.1c0,1.2-0.3,2.2-1,3.1
				C318.7,67.6,317.5,68.2,316.1,68.2z M317.5,64.9c0.4-0.4,0.6-0.8,0.6-1.4c0-0.5-0.2-1-0.6-1.4s-0.8-0.6-1.4-0.6
				c-0.5,0-1,0.2-1.4,0.6s-0.6,0.8-0.6,1.4c0,0.5,0.2,1,0.6,1.4c0.4,0.4,0.8,0.6,1.4,0.6C316.6,65.4,317.1,65.3,317.5,64.9z"/>
			<path class="st3" d="M327.7,74.2h37.6v6.6h-37.6V74.2z"/>
			<path class="st3" d="M369.2,64.1l4.8-6c3.2,2.2,6.7,4.8,10.5,7.9l-5,6C376.4,69.3,372.9,66.7,369.2,64.1z M369.4,90.2
				c7.6-2.1,14.1-4.9,19.4-8.5c5.9-4,11-9.3,15.3-15.9l5,6.2c-4.8,6.3-10.1,11.6-16.1,15.7c-5.4,3.7-12.2,7.1-20.3,10.1L369.4,90.2z
				"/>
		</g>
	</g>
</g>
<g>
	<path class="st5" d="M489.3,106.1c22.3-26.4,44.5-52.9,66.7-79.3"/>
	<path class="st5" d="M560.7,21.1c0.8-0.9,1.5-1.8,2.3-2.8"/>
</g>
<g>
	<path class="st5" d="M78.7,106.1C56.4,79.7,34.2,53.2,12,26.8"/>
	<path class="st5" d="M7.3,21.1c-0.8-0.9-1.5-1.8-2.3-2.7"/>
</g>
</svg>
