<?xml version="1.0" encoding="utf-8"?>
<!-- Generator: Adobe Illustrator 25.4.1, SVG Export Plug-In . SVG Version: 6.00 Build 0)  -->
<svg version="1.1" id="_x31_0" xmlns="http://www.w3.org/2000/svg" xmlns:xlink="http://www.w3.org/1999/xlink" x="0px" y="0px"
	 viewBox="0 0 512 424.5" style="enable-background:new 0 0 512 424.5;" xml:space="preserve">
<style type="text/css">
	.st0{fill:#FF69B4;}
	.st1{fill:#005B97;}
</style>
<g>
	<polygon class="st0" points="235.2,215.4 161.1,142.6 108,192.3 101.5,198.3 101.5,198.4 101.5,198.4 235.2,311.5 512,35.6 
		495.9,7.8 493.5,3.6 493.5,3.6 493.5,3.5 	"/>
	<path class="st1" d="M417.4,187v-0.1l-53.8,53.6v102.7c0,15.2-12.4,27.6-27.6,27.6H81.3c-15.2,0-27.6-12.4-27.6-27.6V210.8v-20
		V88.5c0-15.2,12.4-27.6,27.6-27.6H336c6.3,0,12.1,2.1,16.8,5.8l38.9-32l2.9-2.4c0,0,0,0,0,0l0.1-0.1C379.9,16.8,359.1,7.1,336,7.1
		H81.3C36.5,7.1,0,43.6,0,88.5v254.7c0,44.8,36.5,81.3,81.3,81.3H336c44.8,0,81.3-36.5,81.3-81.3v-92.1V187L417.4,187z"/>
</g>
</svg>
