<?xml version="1.0" encoding="utf-8"?>
<!-- Generator: Adobe Illustrator 26.0.1, SVG Export Plug-In . SVG Version: 6.00 Build 0)  -->
<svg version="1.1" id="レイヤー_1" xmlns="http://www.w3.org/2000/svg" xmlns:xlink="http://www.w3.org/1999/xlink" x="0px"
	 y="0px" viewBox="0 0 1985 1974.9" style="enable-background:new 0 0 1985 1974.9;" xml:space="preserve">
<style type="text/css">
	.st0{fill:#FFFFFF;}
	.st1{clip-path:url(#SVGID_00000031180448581034566040000006851272883998511263_);}
	.st2{fill:#005B97;}
	.st3{fill:#FFFFFF;stroke:#005B97;stroke-width:7;stroke-linecap:round;stroke-linejoin:round;stroke-miterlimit:10;}
	.st4{fill:#005B97;stroke:#005B97;stroke-width:7;stroke-linecap:round;stroke-linejoin:round;stroke-miterlimit:10;}
	.st5{fill:#FFE3B5;}
	.st6{fill:none;stroke:#005B97;stroke-width:7;stroke-linecap:round;stroke-linejoin:round;stroke-miterlimit:10;}
	.st7{fill:#FFFFFF;stroke:#3E487D;stroke-width:7;stroke-linejoin:round;stroke-miterlimit:10;}
	.st8{fill:#FFFFFF;stroke:#005B97;stroke-width:7;stroke-miterlimit:10;}
	.st9{fill:none;stroke:#005B97;stroke-width:7;stroke-miterlimit:10;}
	.st10{fill:#005B97;stroke:#005B97;stroke-width:7;stroke-linejoin:round;stroke-miterlimit:10;}
	.st11{fill:#FFFFFF;stroke:#3E487D;stroke-width:7;stroke-linecap:round;stroke-linejoin:round;stroke-miterlimit:10;}
	.st12{fill:none;stroke:#005B97;stroke-width:6;stroke-linecap:round;stroke-linejoin:round;stroke-miterlimit:10;}
</style>
<circle class="st0" cx="992.5" cy="987.5" r="987.5"/>
<g>
	<defs>
		<circle id="SVGID_1_" cx="992.5" cy="987.5" r="987.5"/>
	</defs>
	<clipPath id="SVGID_00000170243867996626749560000013401979260833332121_">
		<use xlink:href="#SVGID_1_"  style="overflow:visible;"/>
	</clipPath>
	<g style="clip-path:url(#SVGID_00000170243867996626749560000013401979260833332121_);">
		<g>
			<path class="st2" d="M776.5,774.8c-41.4-120.7-160.2-527.5,116-570.4c67.8-185.5,324.9-127.1,473.1-71.2
				c41.2,15.5,153.7,67.9,210.4,103.5c41.7,26.2,66,72.8,63.5,121.9c-5.4,103.9-19,288.3-51,416.2H776.5z"/>
			<path class="st3" d="M1278.4,1344.4c-4.9-50.7-10.3-107.4,23.6-143.1c27.9-29.4,83.6-29.1,154.2-99.7
				c40.5-40.5,52.4-85.7,76.1-188.9c56.4-3.7,123.8-44.3,127.1-108.7c3.3-64.4-39.5-124.2-137.7-115.6
				c17.1-130.1,1.5-315.3-21.2-365l-652.1,0c-22.7,49.6-38.3,234.8-21.2,365c-98.2-8.5-141,51.3-137.7,115.6
				c3.3,64.4,70.7,104.9,127.1,108.7c23.7,103.1,35.6,148.4,76.1,188.9c70.6,70.6,126.3,70.3,154.2,99.7
				c33.9,35.7,28.5,92.5,23.6,143.1H1278.4z"/>
			<path class="st4" d="M833.8,685.4c-7.1-105,40-212.2,119.9-281.1c119.1,34.2,223.1,60.3,350.9,60.3c-19-23.7-37.4-53.1-52.2-82.1
				c74.4,19.5,117,23.7,192.7,26.8c40.9,52.5,71.4,169.1,71.4,279.5c48.7-21.4,59.6-201,59.6-248.5c0-227.5-313.9-266.9-593.1-210.4
				c-114,23.1-174.5,97.7-193.8,211C775.8,519.4,785.3,618.1,833.8,685.4z"/>
			<g>
				<path class="st5" d="M936.4,905.3c-83.8-3-75.1-114.8,7.6-108.8C1026.7,802.7,1020.2,908.4,936.4,905.3z"/>
				<path class="st5" d="M1412.5,905.3c83.8-3,75.1-114.8-7.6-108.8C1322.1,802.7,1328.6,908.4,1412.5,905.3z"/>
			</g>
			<g>
				<ellipse class="st2" cx="1044.9" cy="695.1" rx="31.4" ry="46.5"/>
				<ellipse class="st2" cx="1304" cy="695.1" rx="31.4" ry="46.5"/>
			</g>
			<path class="st6" d="M1176.7,786.6c-3.2,14-4.3,31-4.5,42.6c-0.2,12.9,0,19.9,3.3,31"/>
			<path class="st6" d="M1075.6,965c14.7,76.6,181.6,88.2,197.7-2.6"/>
		</g>
		<g>
			<path class="st7" d="M548.9,2064.6c0-128.4,45.8-362.6,65.5-509.9c5-37.6,29.4-70.5,65.1-87.9L980.6,1320h387.6l301.1,146.9
				c35.8,17.4,60.1,50.3,65.1,87.9c19.7,147.3,65.5,381.5,65.5,509.9"/>
			<g>
				<path class="st8" d="M1274.3,2042.5c17.9-164-65.1-502-65.1-502c1.3-2.9,44.3-133.2,44.3-177.8h-158.1
					c0,44.6,43,174.9,44.3,177.8c0,0-83,338-65.1,502C1074.6,2043.1,1274.3,2043.1,1274.3,2042.5z"/>
				<line class="st9" x1="1139.5" y1="1540.6" x2="1209.3" y2="1540.6"/>
			</g>
			<path class="st10" d="M548.9,2064.6c0-128.4,45.8-362.6,65.5-509.9c5-37.6,29.4-70.5,65.1-87.9L980.6,1320
				c55.7,203.3,99.6,460.3,193.8,650c94.2-189.7,138.2-446.7,193.8-650l301.1,146.9c35.8,17.4,60.1,50.3,65.1,87.9
				c19.7,147.3,65.5,381.5,65.5,509.9"/>
			<path class="st11" d="M1249.8,1463.6c-21.1-22.9-48.3-39.8-77.2-72.3c-28.9,32.5-52.6,49.4-73.7,72.3
				c-23.3-14.7-111.3-128.5-103.3-150.9c7.9-22.5,17.4-48.3,34.9-74.9c31.1,9.4,103.4,59.3,143.9,88h0.1
				c40.5-28.8,112.7-78.7,143.9-88c17.5,26.6,27,52.5,34.9,74.9C1361.2,1335.1,1273.2,1448.9,1249.8,1463.6z"/>
		</g>
		<g>
			<g>
				<path class="st3" d="M319.9,1603.4c-19.2,0.6-15.7-26.3-30.3-30.6c-148.4-42.7-76.8-323.6,112.5-287.3
					c72.2,9.3,201,122.9,86.3,245.4c-0.2,24.9,15.2,39,8.3,41.3C436.6,1592,373.5,1601.6,319.9,1603.4z"/>
				<path class="st3" d="M333.8,1320.9c-10.4-36.8-41.2-209-28-282c6.7-36.9,60.2-38.9,78.2-4.5c18,34.4,42,198.9,73.9,296.1
					c0.2,0,0.3-0.1,0.5-0.1"/>
				<path class="st3" d="M307.1,1240.8c-42.3-36.1-154.3,89.7-162.6,122.8c-2.1,39.9,38.1,87.5,86.3,89.5
					c44-0.8,142.4-77.6,147.1-93.9C377.3,1314.2,339.4,1271.9,307.1,1240.8z"/>
				<path class="st12" d="M268.8,1319.4c11.3,33.9,34.8,63.5,65.2,82.1"/>
				<path class="st12" d="M223.9,1388.4c7.4,12.9,16.9,24.5,28.1,34.3"/>
				<path class="st3" d="M505.9,1509.6c65.5-77.4,48.2-228.8-76.9-252.5c-15.1-3.5-69.7-7.5-86.7,23.2c-26,46.9,72.1,58.7,72.7,77.4
					c0.5,13.5-13.8,42.8-3.7,77.6"/>
			</g>
			<g>
				<path class="st3" d="M321.6,1726.9c-12.9-38.3-21.9-78.3-27.3-120.1c66.3,2.7,144.8-20.3,210.5-46.3
					c3.1-1.2,18.8,84.6,25.7,116.4c-0.3,0.1,0.3-0.1,0,0"/>
				<path class="st10" d="M357.9,2064.6c0-23.2-64-236.2-81-394.1c94.7,6.2,187.6-16.1,270.9-65.2
					c34.1,142.6,123.2,340.4,123.2,459.3"/>
			</g>
		</g>
	</g>
</g>
</svg>
