<?xml version="1.0" encoding="utf-8"?>
<!-- Generator: Adobe Illustrator 26.0.1, SVG Export Plug-In . SVG Version: 6.00 Build 0)  -->
<svg version="1.1" id="レイヤー_1" xmlns="http://www.w3.org/2000/svg" xmlns:xlink="http://www.w3.org/1999/xlink" x="0px"
	 y="0px" viewBox="0 0 1985 1974.9" style="enable-background:new 0 0 1985 1974.9;" xml:space="preserve">
<style type="text/css">
	.st0{fill:#FFFFFF;}
	.st1{clip-path:url(#SVGID_00000161626296424394949130000002397147496058188448_);}
	.st2{fill:#005B97;}
	.st3{fill:#FFFFFF;stroke:#005B97;stroke-width:7;stroke-linecap:round;stroke-linejoin:round;stroke-miterlimit:10;}
	.st4{fill:#005B97;stroke:#005B97;stroke-width:7;stroke-linecap:round;stroke-linejoin:round;stroke-miterlimit:10;}
	.st5{fill:#FFE3B5;}
	.st6{fill:none;stroke:#005B97;stroke-width:7;stroke-linecap:round;stroke-linejoin:round;stroke-miterlimit:10;}
	.st7{fill:#FFFFFF;stroke:#005B97;stroke-width:6;stroke-miterlimit:10;}
	.st8{fill:#FFFFFF;stroke:#3E487D;stroke-width:7;stroke-linejoin:round;stroke-miterlimit:10;}
	.st9{fill:#FFFFFF;stroke:#005B97;stroke-width:7;stroke-miterlimit:10;}
	.st10{fill:none;stroke:#005B97;stroke-width:7;stroke-miterlimit:10;}
	.st11{fill:#005B97;stroke:#005B97;stroke-width:7;stroke-linejoin:round;stroke-miterlimit:10;}
	.st12{fill:#FFFFFF;stroke:#005B97;stroke-width:7;stroke-linejoin:round;stroke-miterlimit:10;}
	.st13{fill:#FFFFFF;stroke:#005B97;stroke-width:6;stroke-linecap:round;stroke-linejoin:round;stroke-miterlimit:10;}
</style>
<circle class="st0" cx="992.5" cy="987.5" r="987.5"/>
<g>
	<defs>
		<circle id="SVGID_1_" cx="992.5" cy="987.5" r="987.5"/>
	</defs>
	<clipPath id="SVGID_00000045583843909572794510000005507918715723218573_">
		<use xlink:href="#SVGID_1_"  style="overflow:visible;"/>
	</clipPath>
	<g style="clip-path:url(#SVGID_00000045583843909572794510000005507918715723218573_);">
		<g>
			<path class="st2" d="M773.4,775.7c-41.9-122.2-162.3-534.4,117.5-577.8c68.6-187.9,329.1-128.7,479.3-72.1
				c41.7,15.7,155.7,68.8,213.2,104.8c42.3,26.5,66.9,73.7,64.3,123.5c-5.5,105.3-19.3,292-51.7,421.6H773.4z"/>
			<path class="st3" d="M1281.9,1352.7c-5-51.3-10.4-108.9,23.9-145c28.2-29.8,84.7-29.5,156.2-101c41-41,53.1-86.9,77-191.3
				c57.1-3.8,125.4-44.9,128.8-110.1c3.3-65.2-40-125.8-139.5-117.2c17.3-131.8,1.5-319.5-21.5-369.8H846.2
				c-23,50.3-38.8,237.9-21.5,369.8c-99.4-8.6-142.8,51.9-139.5,117.2c3.3,65.2,71.6,106.3,128.8,110.1
				c24,104.5,36.1,150.3,77,191.3c71.5,71.5,128,71.3,156.2,101c34.3,36.2,28.9,93.7,23.9,145H1281.9z"/>
			<path class="st4" d="M831.5,685.1c-7.2-106.4,40.5-215,121.4-284.8c120.6,34.6,226,61.1,355.5,61.1c-19.3-24-37.9-53.8-52.8-83.2
				c75.3,19.8,118.5,24,195.2,27.2c41.5,53.2,72.3,171.3,72.3,283.2c49.3-21.7,60.4-203.6,60.4-251.8
				c0-230.5-318.1-270.3-600.9-213.1c-115.5,23.4-176.8,99-196.3,213.8C772.7,517,782.3,617,831.5,685.1z"/>
			<g>
				<path class="st5" d="M935.4,907.9c-84.9-3.1-76.1-116.3,7.7-110.2S1020.3,911,935.4,907.9z"/>
				<path class="st5" d="M1417.7,907.9c84.9-3.1,76.1-116.3-7.7-110.2S1332.7,911,1417.7,907.9z"/>
			</g>
			<g>
				<path class="st6" d="M992.1,718.5c6.3-16.7,23.1-28.8,40.9-29.5c17.8-0.7,35.5,10.2,43.1,26.3"/>
				<path class="st6" d="M1360.9,718.5c-6.3-16.7-23.1-28.8-40.9-29.5c-17.8-0.7-35.5,10.2-43.1,26.3"/>
			</g>
			<path class="st7" d="M1175.4,1076.6c92.7,0,136.1-77.1,104.3-94c-13.3-7.1-193-7.1-206.3,0c-31.8,16.8,11.6,94,104.3,94"/>
			<path class="st6" d="M1178.8,787.6c-3.2,14.2-4.3,31.4-4.5,43.1c-0.2,13.1,0,20.2,3.4,31.4"/>
		</g>
		<g>
			<path class="st8" d="M542.8,2082.4c0-130.1,46.4-367.4,66.4-516.5c5.1-38.1,29.7-71.4,66-89l305-148.8h392.7l305,148.8
				c36.2,17.7,60.9,51,66,89c19.9,149.2,66.4,386.5,66.4,516.5"/>
			<g>
				<path class="st9" d="M1277.7,2059.9c18.2-166.1-65.9-508.5-65.9-508.5c1.3-3,44.9-134.9,44.9-180.1h-160.2
					c0,45.2,43.5,177.2,44.9,180.1c0,0-84.1,342.4-65.9,508.5C1075.4,2060.5,1277.7,2060.5,1277.7,2059.9z"/>
				<line class="st10" x1="1141.2" y1="1551.6" x2="1211.9" y2="1551.6"/>
			</g>
			<path class="st11" d="M542.8,2082.4c0-130.1,46.4-367.4,66.4-516.5c5.1-38.1,29.7-71.4,66-89l305-148.8
				c56.4,206,100.9,466.3,196.3,658.5c95.4-192.2,140-452.5,196.3-658.5l305,148.8c36.2,17.7,60.9,51,66,89
				c19.9,149.2,66.4,386.5,66.4,516.5"/>
			<path class="st3" d="M1252.9,1473.5c-21.4-23.2-48.9-40.4-78.2-73.2c-29.3,32.9-53.3,50-74.7,73.2
				c-23.6-14.9-112.8-130.2-104.7-152.9c8-22.8,17.6-48.9,35.4-75.9c31.5,9.5,104.8,60,145.7,89.2h0.1
				c41-29.2,114.2-79.7,145.7-89.2c17.7,26.9,27.3,53.1,35.4,75.9C1365.7,1343.3,1276.6,1458.6,1252.9,1473.5z"/>
		</g>
		<g>
			<g>
				<path class="st12" d="M448.8,1132.6c23-52-23.9-92.6-76.2-40.3c-66,66-67.3,197.3-19,236.3
					C362.6,1336,439.1,1154.4,448.8,1132.6z"/>
				<path class="st12" d="M299.8,1634.3c3.7-41.7-0.2-122.1-2.8-121.6c-42.7-77-128.4-133.3-142.4-220.5
					c-7.8-48.4,68.7-186.1,146.4-196c78.9-10.1,174.5,123.4,179.1,187.5c1.8,25.6-20.1,33.8-41.9,53.5
					c25.6,33.5,67.9,98.7,22.5,150.3c4.2,38.7,13.7,101.4,17.1,138C428,1634.5,299.3,1639.6,299.8,1634.3z"/>
				<path class="st13" d="M460.2,1220.3c-50.5-7.6-94.8,29.4-115.4,64.3"/>
				<path class="st13" d="M407.2,1152.4c-44.4-6.1-111.1,25.3-127.7,66.9"/>
			</g>
			<g>
				<path class="st3" d="M284.7,1701.3c-7.8-40.2-11.5-81.5-11.3-124.3c66.2,11.5,148.1-1,217.6-18.4c3.3-0.8,7.5,87.5,10.3,120.3
					c-0.3,0,0.3,0,0,0"/>
				<path class="st11" d="M271.7,2082.4c0-18.4-28.4-282.9-24.4-443.7c94.3,18.9,190.6,8.9,280.8-29.2
					c15.2,147.7,63.1,353.7,63.1,472.9"/>
			</g>
		</g>
	</g>
</g>
</svg>
