<?xml version="1.0" encoding="utf-8"?>
<!-- Generator: Adobe Illustrator 26.0.1, SVG Export Plug-In . SVG Version: 6.00 Build 0)  -->
<svg version="1.1" id="レイヤー_1" xmlns="http://www.w3.org/2000/svg" xmlns:xlink="http://www.w3.org/1999/xlink" x="0px"
	 y="0px" viewBox="0 0 1985 1974.9" style="enable-background:new 0 0 1985 1974.9;" xml:space="preserve">
<style type="text/css">
	.st0{fill:#FFFFFF;}
	.st1{clip-path:url(#SVGID_00000090292325225176711410000001808639593830405538_);}
	.st2{fill:#005B97;}
	.st3{fill:#FFFFFF;stroke:#005B97;stroke-width:7;stroke-linecap:round;stroke-linejoin:round;stroke-miterlimit:10;}
	.st4{fill:#005B97;stroke:#005B97;stroke-width:7;stroke-linecap:round;stroke-linejoin:round;stroke-miterlimit:10;}
	.st5{fill:#FFE3B5;}
	.st6{fill:none;stroke:#005B97;stroke-width:7;stroke-linecap:round;stroke-linejoin:round;stroke-miterlimit:10;}
	.st7{fill:#FFFFFF;stroke:#005B97;stroke-width:6;stroke-miterlimit:10;}
	.st8{fill:#FFFFFF;stroke:#3E487D;stroke-width:7;stroke-linejoin:round;stroke-miterlimit:10;}
	.st9{fill:#FFFFFF;stroke:#005B97;stroke-width:7;stroke-miterlimit:10;}
	.st10{fill:none;stroke:#005B97;stroke-width:7;stroke-miterlimit:10;}
	.st11{fill:#005B97;stroke:#005B97;stroke-width:7;stroke-linejoin:round;stroke-miterlimit:10;}
	.st12{fill:#FFFFFF;stroke:#3E487D;stroke-width:7;stroke-linecap:round;stroke-linejoin:round;stroke-miterlimit:10;}
	.st13{fill:none;stroke:#FAAB91;stroke-width:10;stroke-linecap:round;stroke-linejoin:round;stroke-miterlimit:10;}
	.st14{fill:none;stroke:#005B97;stroke-width:6;stroke-linecap:round;stroke-linejoin:round;stroke-miterlimit:10;}
</style>
<circle class="st0" cx="992.5" cy="987.5" r="987.5"/>
<g>
	<defs>
		<circle id="SVGID_1_" cx="992.5" cy="987.5" r="987.5"/>
	</defs>
	<clipPath id="SVGID_00000021086314422091413950000011061087360028991636_">
		<use xlink:href="#SVGID_1_"  style="overflow:visible;"/>
	</clipPath>
	<g style="clip-path:url(#SVGID_00000021086314422091413950000011061087360028991636_);">
		<g>
			<path class="st2" d="M782.3,776.4c-40.9-119.2-158.2-520.9,114.6-563.3c66.9-183.2,320.9-125.5,467.2-70.3
				c40.7,15.3,151.8,67.1,207.8,102.2c41.2,25.8,65.2,71.9,62.7,120.4c-5.3,102.7-18.8,284.7-50.4,411H782.3z"/>
			<path class="st3" d="M1278,1339c-4.9-50-10.1-106.1,23.3-141.4c27.5-29,82.6-28.8,152.3-98.5c40-40,51.7-84.7,75.1-186.5
				c55.7-3.7,122.3-43.7,125.5-107.3c3.3-63.6-39-122.6-136-114.2c16.9-128.5,1.5-311.5-20.9-360.5l-644.1,0
				c-22.4,49-37.8,231.9-20.9,360.5c-97-8.4-139.2,50.6-136,114.2s69.8,103.6,125.5,107.3c23.4,101.9,35.2,146.6,75.1,186.5
				c69.7,69.7,124.8,69.5,152.3,98.5c33.5,35.2,28.2,91.3,23.3,141.4H1278z"/>
			<path class="st4" d="M838.9,688.1c-7-103.7,39.5-209.6,118.4-277.6c117.6,33.7,220.3,59.6,346.6,59.6
				c-18.8-23.4-36.9-52.5-51.5-81.1c73.4,19.3,115.6,23.4,190.3,26.5c40.4,51.9,70.5,167,70.5,276.1
				c48.1-21.1,58.9-198.5,58.9-245.4c0-224.7-310.1-263.6-585.8-207.8C873.7,261.2,813.9,335,794.8,446.9
				C781.6,524.2,791,621.7,838.9,688.1z"/>
			<g>
				<path class="st5" d="M940.2,905.4c-82.8-3-74.2-113.4,7.5-107.4C1029.4,804,1023,908.3,940.2,905.4z"/>
				<path class="st5" d="M1410.4,905.4c82.8-3,74.2-113.4-7.5-107.4C1321.2,804,1327.6,908.3,1410.4,905.4z"/>
			</g>
			<g>
				<path class="st6" d="M995.5,720.7c6.1-16.3,22.5-28.1,39.9-28.8c17.4-0.7,34.6,9.9,42,25.7"/>
				<path class="st6" d="M1355.1,720.7c-6.1-16.3-22.5-28.1-39.9-28.8c-17.4-0.7-34.6,9.9-42,25.7"/>
			</g>
			<path class="st7" d="M1174.2,1069.8c90.4,0,132.6-75.2,101.7-91.6c-13-6.9-188.1-6.9-201.1,0c-31,16.4,11.3,91.6,101.7,91.6"/>
			<path class="st6" d="M1177.5,788.1c-3.1,13.8-4.2,30.6-4.4,42c-0.2,12.8,0,19.7,3.3,30.6"/>
		</g>
		<g>
			<path class="st8" d="M557.5,2041.3c0-126.8,45.3-358.1,64.7-503.6c5-37.1,29-69.6,64.3-86.8l297.4-145.1h382.8l297.4,145.1
				c35.3,17.2,59.4,49.7,64.3,86.8c19.4,145.4,64.7,376.8,64.7,503.6"/>
			<g>
				<path class="st9" d="M1273.9,2019.4c17.7-161.9-64.3-495.8-64.3-495.8c1.3-2.9,43.8-131.6,43.7-175.6h-156.2
					c0,44,42.4,172.7,43.7,175.6c0,0-82,333.8-64.3,495.8C1076.7,2020,1273.9,2020,1273.9,2019.4z"/>
				<line class="st10" x1="1140.8" y1="1523.8" x2="1209.8" y2="1523.8"/>
			</g>
			<path class="st11" d="M557.5,2041.3c0-126.8,45.3-358.1,64.7-503.6c5-37.1,29-69.6,64.3-86.8l297.4-145.1
				c55,200.8,98.4,454.6,191.4,642c93-187.4,136.5-441.2,191.4-642l297.4,145.1c35.3,17.2,59.4,49.7,64.3,86.8
				c19.4,145.4,64.7,376.8,64.7,503.6"/>
			<path class="st3" d="M1249.8,1447.7c-20.8-22.6-47.7-39.3-76.2-71.4c-28.6,32.1-52,48.8-72.8,71.4
				c-23-14.5-110-126.9-102.1-149.1c7.8-22.2,17.2-47.7,34.5-74c30.7,9.3,102.1,58.5,142.1,87h0.1c40-28.4,111.3-77.7,142.1-87
				c17.3,26.3,26.6,51.8,34.5,74C1359.8,1320.8,1272.8,1433.2,1249.8,1447.7z"/>
		</g>
		<g>
			<path class="st12" d="M310.9,1548.5c-18.8-1.9-12.4-26.7-25.7-33.9c-136.2-73.3-34-352.7,146.6-292.5
				c69.5,18.5,189.6,174.6,53.5,277.4c-3.5,24.4,9.7,40.2,2.7,41.5C426.7,1552.6,363.6,1553.8,310.9,1548.5z"/>
			<g>
				
					<rect x="353.9" y="919.5" transform="matrix(0.9894 -0.1452 0.1452 0.9894 -161.9848 68.9265)" class="st3" width="75" height="449.9"/>
				<circle class="st3" cx="330.2" cy="727.6" r="206.1"/>
				<circle class="st13" cx="330.2" cy="727.6" r="104.6"/>
			</g>
			<g>
				<path class="st3" d="M310.7,1192.5c-50.2-29.6-127.6,124.1-127.3,160.3c8,42.2,59,84.2,106.4,76.9c42.6-9.5,119-109.1,119.5-127
					C397.4,1255.7,350,1218.8,310.7,1192.5z"/>
				<path class="st14" d="M290.2,1275.5c18.1,30.2,47.1,53.8,80.4,65.3"/>
				<path class="st14" d="M274.6,1360.1c9.9,10.8,21.6,20,34.4,27.1"/>
				<path class="st3" d="M414.3,1201.3c-3.6-30.7-12.1-62.1-29.7-92.3c-11.3-19.3-39.8-54.6-60.8-66.3c-21.1-11.7-52.6,15.6-56.5,27
					c-16,47.8,50.2,133.3,87.8,161.1C390.1,1250.4,418.1,1233.6,414.3,1201.3z"/>
				<path class="st3" d="M510.6,1476.1c77.3-77.9,86.7-244.4-12.6-328.4c-12.5-8.7-52-40-74.8-6.5c-34.7,51.2,38.5,73,45.1,150.8"/>
			</g>
			<g>
				<path class="st3" d="M302.8,1669.7c-7.6-39.2-11.2-79.5-11-121.2c64.5,11.3,144.4-0.9,212.1-17.9c3.2-0.8,7.3,85.3,10,117.3
					c-0.3,0,0.3,0,0,0"/>
				<path class="st11" d="M290.2,2041.3c0-18-27.7-275.8-23.7-432.6c91.9,18.5,185.8,8.7,273.7-28.5c14.8,144,61.5,344.8,61.5,461.1
					"/>
			</g>
		</g>
	</g>
</g>
</svg>
