<?xml version="1.0" encoding="utf-8"?>
<!-- Generator: Adobe Illustrator 26.0.1, SVG Export Plug-In . SVG Version: 6.00 Build 0)  -->
<svg version="1.1" id="レイヤー_1" xmlns="http://www.w3.org/2000/svg" xmlns:xlink="http://www.w3.org/1999/xlink" x="0px"
	 y="0px" viewBox="0 0 1985 1974.9" style="enable-background:new 0 0 1985 1974.9;" xml:space="preserve">
<style type="text/css">
	.st0{fill:#FFFFFF;}
	.st1{clip-path:url(#SVGID_00000033349968941336892270000012794581683394229684_);}
	.st2{fill:#005B97;}
	.st3{fill:#FFFFFF;stroke:#005B97;stroke-width:7;stroke-linecap:round;stroke-linejoin:round;stroke-miterlimit:10;}
	.st4{fill:#FFE3B5;}
	.st5{fill:none;stroke:#005B97;stroke-width:7;stroke-linecap:round;stroke-linejoin:round;stroke-miterlimit:10;}
	.st6{fill:#FFFFFF;stroke:#3E487D;stroke-width:7;stroke-linejoin:round;stroke-miterlimit:10;}
	.st7{fill:#FFFFFF;stroke:#005B97;stroke-width:7;stroke-miterlimit:10;}
	.st8{fill:none;stroke:#005B97;stroke-width:7;stroke-miterlimit:10;}
	.st9{fill:#005B97;stroke:#005B97;stroke-width:7;stroke-linejoin:round;stroke-miterlimit:10;}
</style>
<circle class="st0" cx="992.5" cy="987.5" r="987.5"/>
<g>
	<defs>
		<circle id="SVGID_1_" cx="992.5" cy="987.5" r="987.5"/>
	</defs>
	<clipPath id="SVGID_00000021080639599949037890000017786284057425585323_">
		<use xlink:href="#SVGID_1_"  style="overflow:visible;"/>
	</clipPath>
	<g style="clip-path:url(#SVGID_00000021080639599949037890000017786284057425585323_);">
		<g>
			<path class="st2" d="M492.5,918.1c-52-151.1-201.3-660.3,145.8-714C723.4-28.2,1046.5,45,1232.7,115
				c51.8,19.4,193.2,85,264.4,129.5c52.4,32.7,83,91.1,79.8,152.6c-6.8,130.1-23.9,360.9-64.1,521H492.5z"/>
			<path class="st3" d="M1123.2,1633.9c-6.2-63.7-12.9-135,29.7-179.9c35-36.9,105.1-36.6,193.8-125.3
				c50.8-50.8,65.8-107.7,95.6-237.3c70.9-4.7,155.6-55.7,159.7-136.5c4.1-80.9-49.6-156-173-145.3c21.5-163.5,1.9-396.3-26.6-458.6
				l-819.5,0c-28.5,62.4-48.1,295.1-26.6,458.6C432.8,798.9,379,874,383.1,954.9c4.1,80.9,88.8,131.8,159.7,136.5
				c29.8,129.6,44.7,186.5,95.6,237.3c88.7,88.7,158.7,88.4,193.8,125.3c42.6,44.8,35.9,116.2,29.7,179.9H1123.2z"/>
			<path class="st2" d="M564.5,805.8c-9-131.9,50.2-266.6,150.6-353.2c149.6,42.9,280.3,75.8,440.9,75.8
				c-23.9-29.8-47-66.7-65.5-103.1c93.4,24.5,147,29.8,242.1,33.7c51.4,66,89.7,212.4,89.7,351.2c61.2-26.9,75-252.6,75-312.3
				c0-285.9-394.5-335.3-745.3-264.3c-143.2,29-219.3,122.8-243.5,265.2C491.6,597.3,503.6,721.3,564.5,805.8z"/>
			<g>
				<path class="st4" d="M693.4,1082.2c-105.3-3.8-94.4-144.3,9.5-136.7C806.9,953.2,798.7,1086,693.4,1082.2z"/>
				<path class="st4" d="M1291.6,1082.2c105.3-3.8,94.4-144.3-9.5-136.7C1178.1,953.2,1186.3,1086,1291.6,1082.2z"/>
			</g>
			<g>
				<ellipse class="st2" cx="829.7" cy="818" rx="39.5" ry="58.4"/>
				<ellipse class="st2" cx="1155.3" cy="818" rx="39.5" ry="58.4"/>
			</g>
			<path class="st5" d="M995.3,932.9c-4,17.6-5.4,39-5.6,53.5c-0.2,16.3,0,25.1,4.2,38.9"/>
			<path class="st5" d="M868.3,1157.2c18.4,96.3,228.3,110.8,248.4-3.2"/>
		</g>
		<g>
			<path class="st6" d="M206.4,2538.9c0-161.3,57.6-455.7,82.3-640.7c6.3-47.2,36.9-88.5,81.8-110.4L749,1603.2H1236l378.4,184.6
				c44.9,21.9,75.5,63.2,81.8,110.4c24.7,185,82.3,479.4,82.3,640.7"/>
			<g>
				<path class="st7" d="M1118,2511.1c22.5-206-81.8-630.8-81.8-630.8c1.7-3.7,55.7-167.4,55.6-223.4H893.1
					c-0.1,56,54,219.7,55.6,223.4c0,0-104.3,424.7-81.8,630.8C867,2511.8,1118,2511.8,1118,2511.1z"/>
				<line class="st8" x1="948.7" y1="1880.5" x2="1036.4" y2="1880.5"/>
			</g>
			<path class="st9" d="M206.4,2538.9c0-161.3,57.6-455.7,82.3-640.7c6.3-47.2,36.9-88.5,81.8-110.4L749,1603.2
				c69.9,255.5,125.2,578.4,243.5,816.8c118.4-238.4,173.6-561.3,243.5-816.8l378.4,184.6c44.9,21.9,75.5,63.2,81.8,110.4
				c24.7,185,82.3,479.4,82.3,640.7"/>
			<path class="st3" d="M1087.3,1783.7c-26.5-28.8-60.7-50.1-97-90.8c-36.3,40.8-66.1,62-92.6,90.8
				c-29.3-18.5-139.9-161.5-129.9-189.6c10-28.2,21.9-60.7,43.9-94.1c39.1,11.8,129.9,74.5,180.8,110.6h0.1
				c50.8-36.2,141.6-98.9,180.8-110.6c22,33.4,33.9,65.9,43.9,94.1C1227.2,1622.2,1116.6,1765.2,1087.3,1783.7z"/>
		</g>
	</g>
</g>
</svg>
