<?xml version="1.0" encoding="utf-8"?>
<!-- Generator: Adobe Illustrator 26.0.1, SVG Export Plug-In . SVG Version: 6.00 Build 0)  -->
<svg version="1.1" id="レイヤー_1" xmlns="http://www.w3.org/2000/svg" xmlns:xlink="http://www.w3.org/1999/xlink" x="0px"
	 y="0px" viewBox="0 0 211 172.4" style="enable-background:new 0 0 211 172.4;" xml:space="preserve">
<style type="text/css">
	.st0{fill:#FFFF00;}
	.st1{display:none;fill:#FDF001;}
	.st2{display:none;}
	.st3{display:inline;}
	.st4{fill:none;stroke:#FFFFFF;stroke-miterlimit:10;}
	.st5{display:inline;fill:none;stroke:#FFFFFF;stroke-miterlimit:10;}
	.st6{fill:#FFFFFF;}
	.st7{display:inline;fill:none;stroke:#FFFFFF;stroke-width:6;stroke-linecap:round;stroke-linejoin:round;stroke-miterlimit:10;}
	.st8{enable-background:new    ;}
	.st9{fill:#005B97;}
</style>
<path class="st0" d="M211,84.7c-0.3-26.1-8-48.2-26.1-62.1c-17.8-14.2-46-20.1-79.4-20.4C72.1,2.5,43.8,8.4,26.1,22.6
	C8,36.5,0.3,58.5,0,84.7c0.3,26.1,8,48.2,26.1,62.1c17.8,14.2,46,20.1,79.4,20.4c25.5-0.2,48.1-3.7,65.2-11.7l0,0l20.1,15.5
	l-5.6-24.4C203.1,132.7,210.7,110.7,211,84.7z"/>
<path class="st1" d="M179.1,160.6c-46.7-13-96.1-13-142.8,0c-16.9,4.6-35.8-2.6-42.8-18.5l0,0c-7-15.9,4.3-36.2,26-42.2
	c57.7-16,118.8-16,176.5,0c21.7,6,33,26.3,26,42.2l0,0C214.9,158,196,165.2,179.1,160.6z"/>
<g class="st2">
	<g class="st3">
		<path class="st4" d="M32.1,88.7c32.8-7,66.5-8.9,99.7-5.7"/>
		<path class="st4" d="M108.5,144.6c21.4,0.6,42.8,3.8,63.6,9.6c3.4,0.9,6.9,1.4,10.3,1.4c3.7,0,7.3-0.5,10.8-1.5"/>
		<path class="st4" d="M16.5,92.4c-1.3,0.4-2.7,0.7-4,1.1c-17.4,4.8-28.1,18.8-28.1,32.3c0,3.4,0.7,6.7,2.1,9.9
			c7,16,25.9,23.1,42.8,18.5c20.8-5.8,42.2-9,63.6-9.6"/>
		<path class="st4" d="M147.4,84.8c14,2,27.9,4.9,41.6,8.7c21.7,6,33,26.3,26,42.2c-1.9,4.3-4.7,8-8,10.9"/>
	</g>
	<line class="st5" x1="100.7" y1="143.5" x2="100.7" y2="162.7"/>
</g>
<g class="st2">
	<g class="st3">
		<path class="st6" d="M66.2,116.9c0.4,4.1-0.3,5.7-2.9,7.8l-1.3-1c2.4-1.8,3-3.4,2.6-6.6l-2.7,0.4l0.5,3.3l-1.7,0.2l-0.5-3.3
			l-2.7,0.4l-0.2-1.6l2.7-0.4l-0.4-2.7h1.6c0.3,0,0.4,0,0.5,0.1c0,0.1,0,0.1-0.1,0.2s-0.2,0.2-0.2,0.2l0.3,2l2.7-0.4
			c-0.2-1.1-0.3-2.1-0.4-3h1.5c0.1,0,0.5,0,0.5,0.2c0,0.1,0,0.1-0.1,0.2s-0.1,0.1-0.1,0.2l0.3,2.2l2.4-0.3l0.2,1.6L66.2,116.9z"/>
	</g>
	<g class="st3">
		<path class="st6" d="M75.7,114.9c-0.9-0.6-1.9-1.2-3.1-1.6l0.8-1.4c1,0.3,2.2,0.9,3.2,1.5L75.7,114.9z M80.3,118.5
			c-2.1,2-3.5,2.8-5.2,3.7c-0.1,0.2-0.1,0.4-0.2,0.4s-0.2-0.1-0.3-0.2l-1.2-1.7c1.1-0.4,3-1,5.2-3c2.1-1.8,3.3-3.9,3.9-4.8l1.1,1.4
			C83.1,115.2,82.1,116.8,80.3,118.5z"/>
	</g>
	<g class="st3">
		<path class="st6" d="M97.3,113.2c-0.5,1.5-1.1,3.2-2.4,5c-1.5,2.1-3.2,3.1-4.2,3.7l-1.6-1.2c1-0.5,3-1.5,4.7-3.9
			c1.1-1.5,1.5-2.9,1.7-3.6l-7.8,0.2v-1.7l8.2-0.2c0.2,0,0.3-0.1,0.5-0.2l1.5,1.3C97.7,112.6,97.5,112.8,97.3,113.2z M98.3,111.5
			c-0.7,0-1.4-0.6-1.4-1.4s0.6-1.4,1.3-1.4c0.8,0,1.4,0.6,1.4,1.3C99.6,110.8,99,111.5,98.3,111.5z M98.2,109.3
			c-0.4,0-0.8,0.4-0.8,0.8c0,0.5,0.4,0.8,0.8,0.8s0.8-0.4,0.8-0.9C99,109.6,98.6,109.3,98.2,109.3z"/>
	</g>
	<g class="st3">
		<path class="st6" d="M106.3,111.7c-0.1,0.1-0.1,0.1-0.1,0.2c-0.1,2.7-0.1,2.9-0.2,3.6c-0.4,3-2.2,4.4-3.3,5.2l-1.6-1.2
			c1.4-0.8,3.2-2,3.3-5.6c0-1.4,0-2.3-0.1-2.8l1.8,0.2c0.3,0,0.4,0.1,0.4,0.2C106.5,111.6,106.4,111.6,106.3,111.7z M108.7,120.8
			l-1.2-1l0.2-8.8l1.7,0.2c0.1,0,0.4,0.1,0.4,0.2s0,0.1-0.2,0.2l-0.2,0.2l-0.2,6.4c1.3-0.7,3-2.2,3.9-3.6l1,1.5
			C112.7,118,110.5,119.9,108.7,120.8z"/>
	</g>
	<g class="st3">
		<path class="st6" d="M127,123.5c-1.9-0.7-3.1-1.4-4.8-3c-1.6,1-2.8,1.6-5.6,2.3l-1.2-1.5c0.8-0.1,1.7-0.2,3.1-0.7
			c1.5-0.5,2-0.9,2.6-1.3c-0.5-0.7-1.2-1.5-1.9-3.3c-0.4-1-0.6-1.7-0.8-2.4l-1.8-0.1l0.1-1.5l5.2,0.4l0.2-1.9l1.7,0.3
			c0.1,0,0.4,0.1,0.3,0.2c0,0.1-0.1,0.1-0.2,0.2c0,0-0.2,0.1-0.2,0.2l-0.1,1.1l5.2,0.4l-0.1,1.5l-2-0.2c-0.8,2-1.6,3.6-3.2,5.3
			c1.6,1.4,2.8,2,4.7,2.5L127,123.5z M120.3,113.7c0.6,2.2,1.2,3.3,2.1,4.5c1.4-1.4,2-3,2.4-4.2L120.3,113.7z"/>
	</g>
	<g class="st3">
		<path class="st6" d="M137.8,120.8l-0.4,2.8c-0.1,0.9-0.8,1.1-1.7,1l-1.2-0.2l-0.6-1.7c0.3,0.1,1.2,0.3,1.3,0.3
			c0.3,0,0.5-0.1,0.5-0.4l0.3-2l-5.2-0.7l0.2-1.5l5.2,0.7l0.2-1.1l0.8,0.3c0.4-0.2,0.7-0.4,1.1-0.7l-4.4-0.6l0.2-1.4l6.8,0.9
			l0.7,0.9c-1,0.6-2.3,1.3-3.5,1.9l5.3,0.7l-0.2,1.5L137.8,120.8z M141.8,117.2l0.2-1.8l-8.6-1.2l-0.3,1.9l-1.6-0.2l0.4-3.1l5,0.7
			l0.2-1.4l1.7,0.4c0.1,0,0.4,0.1,0.4,0.3c0,0.1-0.1,0.1-0.2,0.2c-0.1,0.1-0.2,0.1-0.2,0.2l-0.1,0.6l5,0.7l-0.4,3.1L141.8,117.2z"/>
	</g>
</g>
<path class="st1" d="M44.6,43.7c7.7-3.3,15.6-4.7,23.2-4.6c7-14.4,22-25.5,40.6-28.3c28.2-4.2,54,12.4,57.6,37
	c0.1,0.5,0.1,0.9,0.2,1.4c14.3,2.9,26.4,11.7,32,24.9c9.7,22.9-3.7,50.5-29.9,61.6c-6.1,2.6-12.5,4.1-18.6,4.5h-9.3l-3.9,6.2
	c-7.5,8.4-18.2,14.7-30.8,17.2c-27.7,5.5-54.1-9.4-59.3-33.5c-14.2-2.9-26.2-11.7-31.8-24.9C5,82.4,18.4,54.8,44.6,43.7z"/>
<g class="st2">
	<path class="st7" d="M171.1,130c24-12.1,35.9-38.4,26.5-60.5c-5.7-13.4-17.9-22.2-32.3-25.2c-0.1-0.5-0.1-0.9-0.2-1.4
		C161.4,18.1,135.4,1.3,107,5.6c-13.6,2-25.3,8.4-33.4,17.3"/>
	<path class="st7" d="M53.5,35.4c-3.6,0.8-7.3,1.9-10.9,3.4C16.1,50,2.6,77.9,12.4,101c5.6,13.3,17.8,22.1,32.1,25.1
		c5.2,24.3,31.9,39.3,59.8,33.8c12.7-2.5,23.5-8.9,31.1-17.4l32.2,27.7"/>
</g>
<g>
	<g class="st8">
		<path class="st9" d="M38.5,107.3l1.3-4.6l4.1,0.4l-1.1,4l4.1-0.2c1.2-0.1,2.2,0.3,3,1c0.9,0.8,1.3,2.1,1.3,4l0.1,8.9
			c0.1,4.4-1.5,6.6-4.7,6.6h-4.7l-0.7-4.3l5.5-0.1l-0.3-12.1l-4.5,0.3l-4,16.2l-4.6-1.4l4-14.1l-4.1,0.6v-4.4L38.5,107.3z M56.3,107
			c0.5,2.3,0.9,4.1,1.1,5.4c0.2,1.5,0.5,3.9,0.8,7.3l-4.5,0.5c-0.2-2.6-0.4-4.8-0.7-6.6c-0.1-1.3-0.5-3.3-1-5.9L56.3,107z"/>
		<path class="st9" d="M74.6,102.6l4.2,1.7c-1.1,2.1-1.8,3.6-2.2,4.3c-0.6,1.4-1.1,2.8-1.7,4.1c1.1-0.7,2-1.2,2.8-1.3
			c1-0.3,2-0.2,3,0.3c0.8,0.4,1.4,1,1.6,1.8c0.3,0.7,0.3,1.7,0,3c-0.3,1.2-0.5,2.2-0.5,2.9c-0.1,1.3,0.2,2.1,1,2.3
			c0.7,0.2,1.4,0,2.3-0.7c0.5-0.4,1.1-0.9,1.8-1.5l2.8,3.8c-1.9,1.9-3.6,3.1-5.1,3.5c-2.1,0.6-3.9,0.5-5.5-0.2
			c-1-0.4-1.7-1.2-2.1-2.4c-0.4-1.2-0.4-2.4-0.2-3.6l0.4-2.2c0.2-1.2,0-1.9-0.5-2.1c-0.7-0.2-1.5,0.1-2.6,1c-0.4,0.4-1,1-1.6,1.8
			l-2.8,8l-4.3-1.8c2.3-6.7,4.1-11.4,5.3-14C72,108.2,73.3,105.3,74.6,102.6z"/>
		<path class="st9" d="M99.2,117.5l1.5-7.2l-3.1,0.3l-0.2-4.5h4.2l0.9-3.5l5.1,0.3l-0.8,3.1l14.4-0.1l0.3,3.5l-9.3,0.4l-6.6,0.2
			c-0.5,2.3-1,4.7-1.5,7.1c-0.4,2.4-1,5.6-1.7,9.7l-5.1-0.8L99.2,117.5z M119.6,119.2l2.5,4.1c-2,1.7-3.6,2.8-4.8,3.2
			c-2.3,0.9-4.7,1-7.4,0.4c-2-0.4-3.5-1.6-4.6-3.4c-0.6-1-1-2.5-1.1-4.5l4.2-0.8c0.4,1.8,1,3,1.9,3.5c1.4,0.9,3,1.1,4.8,0.7
			C116.4,122.1,117.9,121.1,119.6,119.2z M120.8,111.4l0.1,3.7c-3.2-0.2-5.4-0.3-6.5-0.2c-1.6,0.1-4,0.4-7.3,0.9l-0.1-4.1
			c3.4-0.3,5.6-0.4,6.4-0.4C115.6,111.2,118.1,111.3,120.8,111.4z"/>
		<path class="st9" d="M139,102.6l4.2,1.7c-1.1,2.1-1.8,3.6-2.2,4.3c-0.6,1.4-1.1,2.8-1.7,4.1c1.1-0.7,2-1.2,2.8-1.3
			c1-0.3,2-0.2,3,0.3c0.8,0.4,1.4,1,1.7,1.8c0.3,0.7,0.3,1.7,0,3c-0.3,1.2-0.5,2.2-0.6,2.9c-0.1,1.3,0.2,2.1,1,2.3
			c0.7,0.2,1.4,0,2.3-0.7c0.5-0.4,1.1-0.9,1.8-1.5l2.8,3.8c-1.9,1.9-3.6,3.1-5.1,3.5c-2.1,0.6-3.9,0.5-5.5-0.2
			c-1-0.4-1.7-1.2-2.1-2.4c-0.4-1.2-0.4-2.4-0.2-3.6l0.4-2.2c0.2-1.2,0-1.9-0.6-2.1c-0.7-0.2-1.5,0.1-2.6,1c-0.4,0.4-1,1-1.6,1.8
			l-2.8,8l-4.3-1.8c2.3-6.7,4.1-11.4,5.3-14C136.3,108.2,137.6,105.3,139,102.6z"/>
	</g>
</g>
<g>
	<g class="st8">
		<path class="st9" d="M170.4,100.9l-0.3,18.7c-0.1,1.3-0.7,2.6-1.8,3.7c-1,1.2-2.3,1.9-3.7,2.2c-1.8,0.4-2.9,0-3.3-1.4
			c-0.4-1.8,0.2-3.4,2-4.8c1.3-1,3.1-1.4,5.4-1l0.2-17.5L170.4,100.9z"/>
	</g>
</g>
<g>
	<g class="st8">
		<path class="st9" d="M181.4,100.9l-0.3,18.7c-0.1,1.3-0.7,2.6-1.8,3.7c-1,1.2-2.3,1.9-3.7,2.2c-1.8,0.4-2.9,0-3.3-1.4
			c-0.4-1.8,0.2-3.4,2-4.8c1.3-1,3.1-1.4,5.4-1l0.2-17.5L181.4,100.9z"/>
	</g>
</g>
<g class="st8">
	<path class="st9" d="M49.9,38.6L61,37.2c4.4-0.6,7.1,0.5,8,3.3c0.5,1.3,0.5,3.4,0.2,6.4c-0.3,3-0.9,7-1.6,12
		c-1.1,8.3-2.1,18.8-3.1,31.6l-14.6,1.4l5.2-39.3l-7.1,1.6L49.9,38.6z"/>
</g>
<g class="st8">
	<path class="st9" d="M80.1,72.1c-0.2-6.9,1.1-13.6,3.8-20c3.1-7.4,7.5-12,13.2-13.9c3.3-1.1,6.6-1.3,9.9-0.7
		c4.2,0.8,7.6,2.5,10.1,5.2c2.8,3,4.6,7.1,5.4,12.2c0.6,4.9,0.4,10-0.7,15.3c-1.7,7.5-5.2,13.4-10.4,17.7c-2.8,2.4-6.1,3.7-9.9,4
		c-3.5,0.3-6.9-0.3-10.4-1.9c-3.8-1.7-6.6-4.3-8.5-7.8C81.1,79.2,80.2,75.8,80.1,72.1z M99.2,79.6c1.7,0,3.3-0.7,4.7-2.1
		c1.4-1.4,2.7-3.8,3.8-7.1c0.9-2.8,1.4-6.5,1.4-11.1c0-4.2-0.8-7.1-2.4-8.7c-1.1-1.1-2.4-1.6-4-1.6c-2.5,0-4.4,1.5-5.7,4.5
		c-2.7,6.4-4,12.1-4,17C93,76.5,95.1,79.6,99.2,79.6z"/>
</g>
<g class="st8">
	<path class="st9" d="M131.4,58.9l13.4-3.3l3.6,2.8v0.3l-5,1.6l-0.4,6h2.8l0.1,0.1l-0.1,3.6l-2.6,0.1l2.3,1.7l1.7-9l0.1-0.1l4.6,0.4
		l-2.6,17.2l-0.1,0.3l-5.3-1l1-4.8l-1.1,2.3l-1.1-1.3l-0.1,14.7l-0.1-0.1l-5.7,0.1l0.3-12.2l-3.8,5.8l-1.4-6l5.1-7.3l-5.1,0.4l0.1-5
		h5.6l0.1-4.1l-3.1,1l-3-4.1V58.9z M151.9,79.1l1.3-23.2h5.8l-0.7,14.8v3.6l2.1-1.9l-1.3-9.5l5.1-1.3l1.6,12.2l0.6,5.8l-0.1,0.3
		l-4.8,1.3l-0.3-2.7l-12.2,10.2l-2,1.7l-3.6-4.8L151.9,79.1z"/>
</g>
</svg>
