<?xml version="1.0" encoding="utf-8"?>
<!-- Generator: Adobe Illustrator 26.0.1, SVG Export Plug-In . SVG Version: 6.00 Build 0)  -->
<svg version="1.1" xmlns="http://www.w3.org/2000/svg" xmlns:xlink="http://www.w3.org/1999/xlink" x="0px" y="0px"
	 viewBox="0 0 320 322.2" style="enable-background:new 0 0 320 322.2;" xml:space="preserve">
<style type="text/css">
	.st0{fill:#06C755;}
	.st1{fill:#FFFFFF;}
</style>
<g id="BG">
</g>
<g id="LINE_LOGO_1_">
	<g>
		<path class="st0" d="M247.9,321.1H72.1C32.3,321.1,0,288.8,0,249V73.2C0,33.4,32.3,1.1,72.1,1.1h175.7c39.8,0,72.1,32.3,72.1,72.1
			V249C320,288.8,287.7,321.1,247.9,321.1z"/>
		<g>
			<g>
				<g>
					<path class="st1" d="M266.7,146c0-47.7-47.9-86.6-106.7-86.6c-58.8,0-106.7,38.8-106.7,86.6c0,42.8,38,78.6,89.2,85.4
						c3.5,0.8,8.2,2.3,9.4,5.3c1.1,2.7,0.7,6.9,0.3,9.6c0,0-1.3,7.5-1.5,9.1c-0.5,2.7-2.1,10.5,9.2,5.8
						c11.4-4.8,61.4-36.2,83.8-61.9h0C259.2,182.3,266.7,165.1,266.7,146z"/>
				</g>
				<g>
					<path class="st0" d="M231.2,173.6h-29.9h0c-1.1,0-2-0.9-2-2v0v0V125v0v0c0-1.1,0.9-2,2-2h0h29.9c1.1,0,2,0.9,2,2v7.6
						c0,1.1-0.9,2-2,2h-20.4v7.9h20.4c1.1,0,2,0.9,2,2v7.6c0,1.1-0.9,2-2,2h-20.4v7.9h20.4c1.1,0,2,0.9,2,2v7.6
						C233.2,172.7,232.3,173.6,231.2,173.6z"/>
					<path class="st0" d="M120.3,173.6c1.1,0,2-0.9,2-2V164c0-1.1-0.9-2-2-2H99.9v-37c0-1.1-0.9-2-2-2h-7.6c-1.1,0-2,0.9-2,2v46.5v0
						v0c0,1.1,0.9,2,2,2h0H120.3z"/>
					<path class="st0" d="M138.3,122.9h-7.6c-1.1,0-2,0.9-2,2v46.6c0,1.1,0.9,2,2,2h7.6c1.1,0,2-0.9,2-2V125
						C140.4,123.9,139.5,122.9,138.3,122.9z"/>
					<path class="st0" d="M189.8,122.9h-7.6c-1.1,0-2,0.9-2,2v27.7l-21.3-28.8c0-0.1-0.1-0.1-0.2-0.2c0,0,0,0,0,0
						c0,0-0.1-0.1-0.1-0.1c0,0,0,0,0,0c0,0-0.1-0.1-0.1-0.1c0,0,0,0-0.1,0c0,0-0.1-0.1-0.1-0.1c0,0,0,0-0.1,0c0,0-0.1,0-0.1-0.1
						c0,0,0,0-0.1,0c0,0-0.1,0-0.1-0.1c0,0,0,0-0.1,0c0,0-0.1,0-0.1,0c0,0,0,0-0.1,0c0,0-0.1,0-0.1,0c0,0-0.1,0-0.1,0
						c0,0-0.1,0-0.1,0c0,0-0.1,0-0.1,0c0,0,0,0-0.1,0h-7.5c-1.1,0-2,0.9-2,2v46.6c0,1.1,0.9,2,2,2h7.6c1.1,0,2-0.9,2-2v-27.6
						l21.3,28.8c0.1,0.2,0.3,0.4,0.5,0.5c0,0,0,0,0,0c0,0,0.1,0.1,0.1,0.1c0,0,0,0,0.1,0c0,0,0.1,0,0.1,0c0,0,0.1,0,0.1,0
						c0,0,0,0,0.1,0c0,0,0.1,0,0.1,0c0,0,0,0,0,0c0.2,0,0.3,0.1,0.5,0.1h7.5c1.1,0,2-0.9,2-2V125C191.9,123.9,191,122.9,189.8,122.9
						z"/>
				</g>
			</g>
		</g>
	</g>
</g>
</svg>
