<?xml version="1.0" encoding="utf-8"?>
<!-- Generator: Adobe Illustrator 26.0.1, SVG Export Plug-In . SVG Version: 6.00 Build 0)  -->
<svg version="1.1" id="レイヤー_1" xmlns="http://www.w3.org/2000/svg" xmlns:xlink="http://www.w3.org/1999/xlink" x="0px"
	 y="0px" viewBox="0 0 320 322.2" style="enable-background:new 0 0 320 322.2;" xml:space="preserve">
<style type="text/css">
	.st0{fill:#FFFFFF;}
</style>
<g id="BG">
</g>
<g>
	<path class="st0" d="M8.4,247.1c-1.4,2.6-0.9,5.8,1.2,7.8c1.2,1.2,2.8,1.7,4.5,1.7c1.2,0,2.3-0.3,3.4-1l48.7-30
		c9.1,4.5,18.7,8.2,28.7,10.8c19.9,30.2,59.5,50.9,104.9,50.9c22.7,0,44.8-5.2,63.9-14.9l44.4,27.4c0.5,0.3,1.2,0.5,1.7,0.5
		c0.8,0,1.6-0.3,2.2-0.9c1-1,1.3-2.6,0.6-3.9l-22.5-41.8c18.2-17.2,28.2-39,28.2-61.5c0-30.3-17.7-57.3-45.2-74.7
		C264.4,63.7,207.1,22,138,22C62.8,22,1.6,71.4,1.6,132c0,25.6,11,50.2,31.1,69.8L8.4,247.1z M14.5,132c0-53.5,55.4-97.1,123.5-97.1
		c58.2,0,107,31.8,120.1,74.4c2.3,7.3,3.4,14.9,3.4,22.7c0,53.5-55.4,97.1-123.5,97.1c-17.9,0-35.4-3-51.4-8.9
		c-6.1-2.1-11.9-4.7-17.5-7.7c-2.1-1-4.5-1-6.5,0.2L31.2,232l15.2-28.4c1.4-2.7,0.8-5.9-1.4-7.9C25.4,178,14.5,155.4,14.5,132z"/>
	
		<ellipse transform="matrix(2.772733e-02 -0.9996 0.9996 2.772733e-02 -59.5189 210.4882)" class="st0" cx="78.4" cy="135.8" rx="14.2" ry="14.2"/>
	<path class="st0" d="M139.1,150c7.8,0,14.2-6.4,14.2-14.2s-6.4-14.2-14.2-14.2c-7.8,0-14.2,6.4-14.2,14.2S131.3,150,139.1,150z"/>
	<path class="st0" d="M199.8,150c7.8,0,14.2-6.4,14.2-14.2s-6.4-14.2-14.2-14.2c-7.8,0-14.2,6.4-14.2,14.2S192,150,199.8,150z"/>
</g>
</svg>
