<?xml version="1.0" encoding="utf-8"?>
<!-- Generator: Adobe Illustrator 25.4.1, SVG Export Plug-In . SVG Version: 6.00 Build 0)  -->
<svg version="1.1" id="レイヤー_1" xmlns="http://www.w3.org/2000/svg" xmlns:xlink="http://www.w3.org/1999/xlink" x="0px"
	 y="0px" viewBox="0 0 684 170" style="enable-background:new 0 0 684 170;" xml:space="preserve">
<style type="text/css">
	.st0{fill:url(#SVGID_1_);}
	.st1{fill:#FFFFFF;}
	.st2{font-family:'HGPSoeiKakugothicUB';}
	.st3{font-size:90.3031px;}
	.st4{letter-spacing:5;}
	.st5{fill:url(#SVGID_00000106121007541491752080000009924466882983582635_);}
	.st6{fill:url(#SVGID_00000136409293726930934660000015703088435780252335_);}
	.st7{fill:url(#SVGID_00000097487149080629489470000001202852495139130015_);}
	.st8{fill:url(#SVGID_00000135679210767884700530000014486574218764074164_);}
	.st9{fill:url(#SVGID_00000156559357406804632690000008465298012582944389_);}
	.st10{fill:url(#SVGID_00000045617240344716730350000006326040753149581712_);}
</style>
<g>
	
		<linearGradient id="SVGID_1_" gradientUnits="userSpaceOnUse" x1="51.2738" y1="151.5123" x2="125.7662" y2="22.4877" gradientTransform="matrix(1 0 0 -1 0 172)">
		<stop  offset="0" style="stop-color:#CCE0F4"/>
		<stop  offset="9.310000e-02" style="stop-color:#9CCDEC"/>
		<stop  offset="0.2105" style="stop-color:#66B8E3"/>
		<stop  offset="0.312" style="stop-color:#3FA9DC"/>
		<stop  offset="0.3927" style="stop-color:#279FD8"/>
		<stop  offset="0.4424" style="stop-color:#1E9CD7"/>
		<stop  offset="0.6509" style="stop-color:#0075BE"/>
		<stop  offset="0.9944" style="stop-color:#005B97"/>
	</linearGradient>
	<circle class="st0" cx="88.5" cy="85" r="74.5"/>
	<g id="_x32_4">
		<g>
			<g>
				<path class="st1" d="M76.5,71.4c0-2.5-2-4.5-4.5-4.5c-2.5,0-4.5,2-4.5,4.5s2,4.5,4.5,4.5C74.5,75.9,76.5,73.9,76.5,71.4z"/>
			</g>
			<g>
				<path class="st1" d="M104.6,75.9c2.5,0,4.5-2,4.5-4.5s-2-4.5-4.5-4.5c-2.5,0-4.5,2-4.5,4.5S102.1,75.9,104.6,75.9z"/>
			</g>
			<g>
				<path class="st1" d="M73.9,82.1c-0.5-0.7-1.5-0.8-2.2-0.3c-0.7,0.5-0.8,1.5-0.3,2.2c3.9,5.1,10,8.3,16.9,8.3s13-3.3,16.9-8.3
					c0.5-0.7,0.4-1.7-0.3-2.2c-0.7-0.5-1.7-0.4-2.2,0.3c-3.3,4.3-8.5,7.1-14.4,7.1C82.4,89.2,77.2,86.4,73.9,82.1z"/>
			</g>
			<g>
				<path class="st1" d="M47.2,65.8c-0.7,2.4-1,4.9-1,7.4c0,0.3,0,0.6,0,0.9c0.2,6.6,2.4,12,5.3,16.6c2.9,4.6,6.4,8.6,9.5,12.7
					c1,1.4,2.1,3.5,3.1,5.9c1.6,3.6,3.1,7.8,5.1,11.2c1,1.7,2.1,3.3,3.6,4.5c1.4,1.2,3.2,2.1,5.3,2.1c0.7,0,1.4-0.1,2.1-0.3
					c2.2-0.6,4.2-1.7,5.8-3.1c0.8-0.7,1.6-1.5,2.3-2.4c0.7,0.9,1.5,1.7,2.3,2.4c1.7,1.4,3.6,2.5,5.8,3.1c0.7,0.2,1.4,0.3,2.1,0.3
					c1.3,0,2.6-0.4,3.7-1c1.9-1.1,3.4-2.8,4.6-4.7c1.8-2.9,3.2-6.5,4.6-9.8c1.4-3.3,2.7-6.4,4.1-8.2c3.1-4.1,6.7-8.1,9.5-12.7
					c2.9-4.6,5.1-10,5.3-16.6c0-0.3,0-0.6,0-0.9c0-5.9-2-11.7-5.2-16.5c-3.2-4.8-7.4-8.6-12.3-10.2l0,0c-1.9-0.6-4.1-0.9-6.5-0.9
					c-3.6,0-7.6,0.7-11.2,2.2c-2.6,1.1-5.1,2.7-7,4.9c-1.9-2.2-4.4-3.8-7-4.9c-2.7-1.1-5.5-1.8-8.2-2c-2.8-5.2-8.3-8.8-14.6-8.8
					c-9.2,0-16.6,7.4-16.6,16.6C41.8,58.5,43.9,62.8,47.2,65.8z M58.4,41.3c3.4,0,6.5,1.4,8.7,3.6c2.2,2.2,3.6,5.3,3.6,8.7
					c0,3.4-1.4,6.5-3.6,8.7c-2.2,2.2-5.3,3.6-8.7,3.6c-3.4,0-6.5-1.4-8.7-3.6c-2.2-2.2-3.6-5.3-3.6-8.7c0-3.4,1.4-6.5,3.6-8.7
					C51.9,42.7,55,41.3,58.4,41.3z M51.3,68.6l-0.5,0.5c0-0.2,0.1-0.4,0.1-0.7C51,68.5,51.2,68.6,51.3,68.6z M86.4,57.4
					c0.4,0.7,1.1,1.1,1.9,1.1s1.5-0.4,1.9-1.1c1.3-2.5,3.8-4.4,6.8-5.7c3-1.3,6.5-1.8,9.6-1.8c2,0,3.9,0.3,5.2,0.7l0.6-2l-0.6,2
					c3.6,1.1,7.3,4.2,10,8.4c2.7,4.2,4.5,9.4,4.5,14.2c0,0.2,0,0.5,0,0.8c-0.2,5.8-2,10.3-4.7,14.5c-2.6,4.2-6,8.1-9.3,12.4
					c-1.4,1.9-2.6,4.3-3.7,6.8c-1.6,3.7-3.1,7.8-4.9,10.8c-0.9,1.5-1.8,2.7-2.6,3.4c-0.9,0.7-1.6,1-2.5,1.1c-0.3,0-0.7,0-1.1-0.1
					c-1.6-0.4-2.9-1.2-4.2-2.2c-1.2-1-2.3-2.4-3.2-3.9c-0.4-0.6-1.1-1-1.8-1c-0.8,0-1.4,0.4-1.8,1c-0.9,1.6-2,2.9-3.2,3.9
					c-1.2,1-2.6,1.8-4.2,2.2c-0.4,0.1-0.7,0.1-1.1,0.1c-0.6,0-1.1-0.1-1.7-0.4c-1-0.5-2-1.7-3.1-3.3c-1.5-2.4-2.9-5.8-4.3-9.2
					c-1.4-3.3-2.8-6.6-4.7-9.1c-3.3-4.3-6.7-8.2-9.3-12.4c-2-3.3-3.5-6.7-4.2-10.7l8.2-7.5c8.2-0.3,14.9-6.5,15.9-14.5l4.5-4.1
					c0.1,0,0.2,0.1,0.3,0.1C82.7,53,85.1,54.9,86.4,57.4z"/>
			</g>
			<g>
				<path class="st1" d="M58.4,59.6c3,0,5.4-2.4,5.5-5.5c0-3-2.4-5.4-5.5-5.5c-3,0-5.4,2.4-5.5,5.5C53,57.2,55.4,59.6,58.4,59.6z
					 M59.6,54.2c0,0.7-0.5,1.2-1.2,1.2c-0.7,0-1.2-0.5-1.2-1.2c0-0.7,0.5-1.2,1.2-1.2C59.1,53,59.6,53.5,59.6,54.2z"/>
			</g>
		</g>
	</g>
</g>
<g>
	<text transform="matrix(1 0 0 1 172.4951 119.0146)" class="st1 st2 st3 st4">歯科キャリア</text>
	<g>
		
			<linearGradient id="SVGID_00000034087018946393294120000001293057300889895340_" gradientUnits="userSpaceOnUse" x1="329.4079" y1="-111.3175" x2="192.9596" y2="125.0179" gradientTransform="matrix(1 0 0 -1 0 172)">
			<stop  offset="0" style="stop-color:#CCE0F4"/>
			<stop  offset="9.310000e-02" style="stop-color:#9CCDEC"/>
			<stop  offset="0.2105" style="stop-color:#66B8E3"/>
			<stop  offset="0.312" style="stop-color:#3FA9DC"/>
			<stop  offset="0.3927" style="stop-color:#279FD8"/>
			<stop  offset="0.4424" style="stop-color:#1E9CD7"/>
			<stop  offset="0.6509" style="stop-color:#0075BE"/>
			<stop  offset="0.9944" style="stop-color:#005B97"/>
		</linearGradient>
		<path style="fill:url(#SVGID_00000034087018946393294120000001293057300889895340_);" d="M238.8,97.1h-6.4
			c0.9,0.7,2.1,1.7,3.5,2.8c2.1,1.4,3.8,2.3,4.9,2.8V75.3h12.7v52.2h-12.7v-2.1H194v2.1h-12.7V75.3H194v26.8
			c2.8-0.7,5.5-2.3,8.1-4.9h-6.4v-9.5h4.2l-5.3-8.5l9.2-5.3l6.7,10.2l-6,3.5h6.7V75.3h13.1v12.3h7.1l-6.7-5.3c3.1-3.1,5.2-6,6.4-8.8
			h-54.7V62.6h13.4V48.8h12.7v13.8h8.5V45.3h13.4v4.2h28.2v10.2h-28.2v2.8h34.2v10.9h-26.8l8.1,5.6c-0.5,0.9-1.4,2.5-2.8,4.6
			s-2.5,3.4-3.2,3.9h4.9L238.8,97.1L238.8,97.1z M224.4,104.6v7.8h-13.1v-7.8c-2.1,3.1-5.8,6-10.9,8.8l-6.4-8.1v9.5h46.9v-10.2
			l-6.4,8.5C230.4,110.7,226.9,107.8,224.4,104.6z"/>
		
			<linearGradient id="SVGID_00000055687081379148537950000010885876754521882266_" gradientUnits="userSpaceOnUse" x1="404.4958" y1="-67.9654" x2="268.0475" y2="168.37" gradientTransform="matrix(1 0 0 -1 0 172)">
			<stop  offset="0" style="stop-color:#CCE0F4"/>
			<stop  offset="9.310000e-02" style="stop-color:#9CCDEC"/>
			<stop  offset="0.2105" style="stop-color:#66B8E3"/>
			<stop  offset="0.312" style="stop-color:#3FA9DC"/>
			<stop  offset="0.3927" style="stop-color:#279FD8"/>
			<stop  offset="0.4424" style="stop-color:#1E9CD7"/>
			<stop  offset="0.6509" style="stop-color:#0075BE"/>
			<stop  offset="0.9944" style="stop-color:#005B97"/>
		</linearGradient>
		<path style="fill:url(#SVGID_00000055687081379148537950000010885876754521882266_);" d="M273.8,71.4H289v-9.2
			c-4.2,0.9-8.5,1.7-12.7,2.1l-3.9-10.6c12.2-1.2,23.3-3.6,33.2-7.4l6.7,9.2c-2.6,1.4-6.6,2.8-12,4.2v11.6h10.9v9.5l6.7-9.2
			c4.9,2.1,9.9,5.6,14.8,10.6l-7.8,9.5c-3.8-4.2-8.4-7.4-13.8-9.5h-9.9c4,4.7,7.3,8.2,9.9,10.6l-5.3,12.7l-5.6-7.1v29.3H289v-24.3
			c-4.7,7.8-8,12.7-9.9,14.8l-6.7-12c2.4-2.6,5.2-6.6,8.5-12c3.3-5.2,5.5-9.2,6.7-12h-13.8V71.4z M310.8,100l24.7-5.6v-48h12.4v45.2
			l4.9-1.8l2.1,12.3l-7.1,1.8v23.6h-12.4v-21.2l-21.9,4.9L310.8,100z M312.6,61.5L319,52c1.9,0.7,4.2,2,7,3.9
			c3.5,2.3,5.9,4.2,7.1,5.6l-7.1,9.9C322.5,67.2,318,63.9,312.6,61.5z"/>
		
			<linearGradient id="SVGID_00000097461168305444638140000016535011365116430014_" gradientUnits="userSpaceOnUse" x1="470.676" y1="-29.7563" x2="334.2277" y2="206.5791" gradientTransform="matrix(1 0 0 -1 0 172)">
			<stop  offset="0" style="stop-color:#CCE0F4"/>
			<stop  offset="9.310000e-02" style="stop-color:#9CCDEC"/>
			<stop  offset="0.2105" style="stop-color:#66B8E3"/>
			<stop  offset="0.312" style="stop-color:#3FA9DC"/>
			<stop  offset="0.3927" style="stop-color:#279FD8"/>
			<stop  offset="0.4424" style="stop-color:#1E9CD7"/>
			<stop  offset="0.6509" style="stop-color:#0075BE"/>
			<stop  offset="0.9944" style="stop-color:#005B97"/>
		</linearGradient>
		<path style="fill:url(#SVGID_00000097461168305444638140000016535011365116430014_);" d="M369.5,89.7l29.3-3.5l-1.1-9.5l-21.9,2.8
			l-2.1-12.3l22.2-2.8l-2.1-13.4l13.8-1.8l1.8,13.8l21.9-2.5l1.4,12.3l-21.9,2.5l1.4,9.2l27.9-3.5l1.8,12.3l-27.9,3.2l3.9,26.8
			l-13,1.8l-3.9-26.8l-30,3.5L369.5,89.7z"/>
		
			<linearGradient id="SVGID_00000107590584399085032320000010290375352485012869_" gradientUnits="userSpaceOnUse" x1="529.8484" y1="4.4069" x2="393.4001" y2="240.7423" gradientTransform="matrix(1 0 0 -1 0 172)">
			<stop  offset="0" style="stop-color:#CCE0F4"/>
			<stop  offset="9.310000e-02" style="stop-color:#9CCDEC"/>
			<stop  offset="0.2105" style="stop-color:#66B8E3"/>
			<stop  offset="0.312" style="stop-color:#3FA9DC"/>
			<stop  offset="0.3927" style="stop-color:#279FD8"/>
			<stop  offset="0.4424" style="stop-color:#1E9CD7"/>
			<stop  offset="0.6509" style="stop-color:#0075BE"/>
			<stop  offset="0.9944" style="stop-color:#005B97"/>
		</linearGradient>
		<path style="fill:url(#SVGID_00000107590584399085032320000010290375352485012869_);" d="M454.2,84.1l15.2-2.5l-2.8-13.4l11.3-2.1
			l3.2,14.1l22.6-3.2l1.1-1.1l8.8,8.1c-5.9,8.5-11.2,15.2-15.9,20.1l-8.1-6c3-3.3,5.9-6.7,8.5-10.2l-15.2,2.5l6.7,31.8l-11.3,2.5
			l-6.7-32.4L456,94.7L454.2,84.1z"/>
		
			<linearGradient id="SVGID_00000051384399383416342650000017907727901690482366_" gradientUnits="userSpaceOnUse" x1="589.1701" y1="38.6563" x2="452.7218" y2="274.9917" gradientTransform="matrix(1 0 0 -1 0 172)">
			<stop  offset="0" style="stop-color:#CCE0F4"/>
			<stop  offset="9.310000e-02" style="stop-color:#9CCDEC"/>
			<stop  offset="0.2105" style="stop-color:#66B8E3"/>
			<stop  offset="0.312" style="stop-color:#3FA9DC"/>
			<stop  offset="0.3927" style="stop-color:#279FD8"/>
			<stop  offset="0.4424" style="stop-color:#1E9CD7"/>
			<stop  offset="0.6509" style="stop-color:#0075BE"/>
			<stop  offset="0.9944" style="stop-color:#005B97"/>
		</linearGradient>
		<path style="fill:url(#SVGID_00000051384399383416342650000017907727901690482366_);" d="M527.6,95.4V50.2h13v45.2
			C540.7,95.4,527.6,95.4,527.6,95.4z M539.2,114.8c18.1-6.6,27.2-19.6,27.2-39.2V48.5h13.4v32.8c0,9.4-2.8,18.1-8.5,26.1
			c-6.1,8.9-13.9,14.9-23.3,18L539.2,114.8z"/>
		
			<linearGradient id="SVGID_00000178206980413609353880000000115682177162233991_" gradientUnits="userSpaceOnUse" x1="641.3972" y1="68.81" x2="504.9489" y2="305.1454" gradientTransform="matrix(1 0 0 -1 0 172)">
			<stop  offset="0" style="stop-color:#CCE0F4"/>
			<stop  offset="9.310000e-02" style="stop-color:#9CCDEC"/>
			<stop  offset="0.2105" style="stop-color:#66B8E3"/>
			<stop  offset="0.312" style="stop-color:#3FA9DC"/>
			<stop  offset="0.3927" style="stop-color:#279FD8"/>
			<stop  offset="0.4424" style="stop-color:#1E9CD7"/>
			<stop  offset="0.6509" style="stop-color:#0075BE"/>
			<stop  offset="0.9944" style="stop-color:#005B97"/>
		</linearGradient>
		<path style="fill:url(#SVGID_00000178206980413609353880000000115682177162233991_);" d="M595.4,66.5V54.8h63.5l1.1-1.1l9.2,8.5
			c-7.8,13.6-16.1,24.5-25,32.4l-9.2-9.9c5.4-3.8,10.9-9.9,16.6-18.3L595.4,66.5L595.4,66.5z M596.1,113.7c9.2-5.2,15.5-11.2,19-18
			c3.3-6.1,5.2-14.7,5.6-25.8h14.1c-0.9,12.7-3.8,23.4-8.5,32.1c-4.9,9.2-12.3,16.7-22.2,22.6L596.1,113.7z"/>
	</g>
</g>
</svg>
