<?xml version="1.0" encoding="utf-8"?>
<!-- Generator: Adobe Illustrator 26.0.1, SVG Export Plug-In . SVG Version: 6.00 Build 0)  -->
<svg version="1.1" id="レイヤー_1" xmlns="http://www.w3.org/2000/svg" xmlns:xlink="http://www.w3.org/1999/xlink" x="0px"
	 y="0px" viewBox="0 0 300 300" style="enable-background:new 0 0 300 300;" xml:space="preserve">
<style type="text/css">
	.st0{fill:#FFFF00;}
	.st1{enable-background:new    ;}
	.st2{fill:#005B97;}
</style>
<circle class="st0" cx="150" cy="150" r="149.5"/>
<g class="st1">
	<path class="st2" d="M70.3,127.6h7.6v-13.7h10.8v13.7h4.8v10.5h-4.8v8l4.1-1.6l1,7.6h19.4v-5.7h11.1v5.7h19.7v10.2h-12.7
		c3.4,4.5,8.6,8.6,15.6,12.4l-7.3,9.9c-6.4-3.8-11.5-8.5-15.3-14v16.9h-11.1v-16.9c-0.6,1.3-2.4,3.4-5.4,6.4c-3.4,3.4-6.4,5.7-8.9,7
		l-8-8.9c3.2-1.7,6.6-3.9,10.2-6.7c3.4-2.8,5.4-4.8,6-6H93.5v-7l-4.8,1.9v22.9c0,4.7-2.7,7-8,7h-7.3l-2.9-10.2h4.5
		c1.9,0,2.9-1,2.9-2.9v-13.7l-6,1.9l-1.6-11.5l7.6-1.6v-11.1h-7.6V127.6z M92.6,118.7c7.2,0.2,15-0.2,23.2-1.3
		c9.3-1.1,16.5-2.5,21.6-4.5l7,10.2c-4.2,1.5-11.4,2.9-21.3,4.1c-9.3,1.1-18,1.8-26.1,2.2L92.6,118.7z M94.5,132l10.5-1.9
		c0.6,1.1,1.5,3.2,2.5,6.4c1.1,3.2,1.7,5.5,1.9,7l-10.8,3.2c0-1.9-0.5-4.6-1.6-8C96.2,135.3,95.3,133.1,94.5,132z M122.2,128.5
		c0.4,1.1,1,3,1.6,5.7c0.8,3.8,1.3,6.6,1.3,8.3l-11.1,1.6c0-4.9-1-9.5-2.9-14L122.2,128.5z M126,142.8c1.5-1.5,3.1-4,4.8-7.6
		c1.5-3.4,2.4-5.9,2.9-7.6l10.2,4.5c-0.2,1.9-1.2,4.6-2.9,8c-1.7,3.6-3.4,6.4-5.1,8.3L126,142.8z"/>
	<path class="st2" d="M205,186.8l-2.9-10.5h7c1.9,0.4,2.9-0.6,2.9-3.2v-10.2h-14v22.3h-11.8v-22.3h-14c-0.9,11-3.4,19.2-7.6,24.5
		l-9.5-9.2c4-5.7,6-13.6,6-23.5v-37.9h62.7v62c0,5.3-2.3,8-7,8H205z M172.8,135.2h13.4v-8.3h-13.4V135.2z M172.8,152.7h13.4v-7.3
		h-13.4V152.7z M198,135.2h14v-8.3h-14V135.2z M198,152.7h14v-7.3h-14V152.7z"/>
</g>
</svg>
