<?xml version="1.0" encoding="utf-8"?>
<!-- Generator: Adobe Illustrator 26.0.1, SVG Export Plug-In . SVG Version: 6.00 Build 0)  -->
<svg version="1.1" id="レイヤー_1" xmlns="http://www.w3.org/2000/svg" xmlns:xlink="http://www.w3.org/1999/xlink" x="0px"
	 y="0px" viewBox="0 0 1985 1974.9" style="enable-background:new 0 0 1985 1974.9;" xml:space="preserve">
<style type="text/css">
	.st0{fill:#FFFFFF;}
	.st1{clip-path:url(#SVGID_00000175298874987107473640000003087406891757160617_);}
	.st2{fill:#005B97;}
	.st3{fill:#FFFFFF;stroke:#005B97;stroke-width:7;stroke-linecap:round;stroke-linejoin:round;stroke-miterlimit:10;}
	.st4{fill:#FFDAC4;}
	.st5{fill:none;stroke:#005B97;stroke-width:7;stroke-linecap:round;stroke-linejoin:round;stroke-miterlimit:10;}
	.st6{fill:#FFFFFF;stroke:#005B97;stroke-width:6;stroke-miterlimit:10;}
	.st7{fill:none;stroke:#005B97;stroke-width:6;stroke-linecap:round;stroke-linejoin:round;stroke-miterlimit:10;}
	.st8{fill:#FFFFFF;stroke:#005B97;stroke-width:6;stroke-linecap:round;stroke-linejoin:round;stroke-miterlimit:10;}
</style>
<circle class="st0" cx="992.5" cy="987.5" r="987.5"/>
<g>
	<defs>
		<circle id="SVGID_1_" cx="992.5" cy="987.5" r="987.5"/>
	</defs>
	<clipPath id="SVGID_00000019659356665555786220000010107557622944473522_">
		<use xlink:href="#SVGID_1_"  style="overflow:visible;"/>
	</clipPath>
	<g id="_x3C_グループ_x3E__4_" style="clip-path:url(#SVGID_00000019659356665555786220000010107557622944473522_);">
		<g>
			<path class="st2" d="M1493.6,725.9c-35.9,230.9-275,286.3-454.5,299.4c-10.8,0.8-21.4,1.5-31.8,2c-0.2,0-0.4,0-0.6,0.1
				c-0.2-0.1-0.5-0.1-0.7-0.1c-10.4-0.5-21-1.2-31.8-2c-179.5-13.2-418.6-68.5-454.5-299.4c-33.9-218.2-71.8-333.3,45.7-489.1
				c81.5-108,210.4-217.1,438.9-218.6h4.5c228.5,1.5,357.4,110.6,438.9,218.6C1565.4,392.6,1527.5,507.7,1493.6,725.9z"/>
			<path class="st2" d="M1523,1015.7c-6.9-95.6-99.9-176.4-195.5-169.9s-176.8,99.1-170.8,194.7s103.6,175.6,193.7,168.3
				S1529.9,1111.2,1523,1015.7z"/>
			<path class="st3" d="M1531.2,751.4c-3.6,71.7-61.2,116.8-123.9,121c-26.4,114.8-39.6,133-84.7,178.1
				c-78.6,78.6-152.3,92.9-183.3,125.6c-18.2,19.2-14.6,61.4-17.4,88.2c39.9,13.3,75.8,33.3,90.4,59.5
				c29.4,53.1,34.1,116.7,27.9,177c-77.9,2.3-389.6,2.3-467.5,0c-6.2-60.3-1.6-123.9,27.9-177c15.2-27.3,53.4-47.8,95.3-61.1
				c-3-26.2,0.6-67.8-17.2-86.6c-31.1-32.7-104.7-47.1-183.3-125.6c-45-45-58.3-63.3-84.7-178.1c-62.8-4.2-120.3-49.3-123.9-121
				c-3.7-71.7,26.5-138.2,135.7-128.7c-19-144.9-1.6-351,23.7-406.3h725.9c25.3,55.2,42.7,261.4,23.7,406.3
				C1504.8,613.2,1534.9,679.7,1531.2,751.4z"/>
			<g>
				<path class="st4" d="M743.9,882c-93.3-3.4-83.6-127.8,8.5-121.1C844.5,767.7,837.3,885.4,743.9,882z"/>
				<path class="st4" d="M1273.9,882c93.3-3.4,83.6-127.8-8.5-121.1C1173.3,767.7,1180.6,885.4,1273.9,882z"/>
			</g>
			<g>
				<path class="st5" d="M794.2,678c6.9-18.3,25.4-31.7,45-32.4s39.1,11.2,47.3,28.9"/>
				<path class="st5" d="M1223.6,678c-6.9-18.3-25.4-31.7-45-32.4s-39.1,11.2-47.3,28.9"/>
			</g>
			<path class="st5" d="M998.1,788c-3.5,8.3-4.8,18.4-5,25.3c-0.2,7.7,0,11.8,3.7,18.4"/>
			<path class="st6" d="M1007.7,1038.4c101.8,0,149.5-84.8,114.6-103.3c-14.7-7.8-212-7.8-226.7,0
				c-34.9,18.5,12.8,103.3,114.6,103.3"/>
			<path class="st2" d="M630,677.4c86.6-165.6,364.3-187.8,541.3-364.9c52.9,121.7,110.2,228.1,194.4,325.2
				c10.8,12.5,31.2,8.3,36-7.6c35-116.5,19-315.8-28.4-395.7c-52.2-88.1-180.8-146.9-299.6-164.4
				c-130.6-19.3-317.6,38.8-401.8,121.2c-78.7,77-93.3,269.8-77.3,431.2C596.3,639.9,621.9,693,630,677.4z"/>
			<path class="st2" d="M1088.6,372.2c34.8-66.5,146.2-75.4,217.2-146.4c21.2,48.8,44.2,91.5,78,130.5c4.4,5,12.5,3.3,14.4-3.1
				c14-46.7,7.6-126.8-11.4-158.8c-21-35.3-72.5-59-120.2-66c-52.4-7.7-127.5,15.6-161.3,48.6c-31.6,30.9-37.4,108.3-31,173.1
				C1075,357.1,1085.3,378.4,1088.6,372.2z"/>
		</g>
		<g>
			<path class="st0" d="M421.5,1963c0,0,10.1-262.7,74.2-459.8c63.2-129.2,153.6-141.1,312.7-217.7c0,0,52.3,117,200.6,120.1
				c148.2-3.1,200.6-120.1,200.6-120.1c159.1,76.6,249.5,88.5,312.6,217.7c64.2,197.1,74.2,459.8,74.2,459.8"/>
			<path class="st3" d="M628.7,1963c0,0-4.7-42-1.7-97.9c-89.7-23.3-233.3-121.3-231.7-132.8c10.9-81.3,28.4-130.8,56.1-216.1
				c62.4-127.6,226.1-190.8,356.9-230.8c0,0,50.4,119.3,200.6,119.3s200.6-119.3,200.6-119.3c130.8,40,294.5,103.1,356.9,230.8
				c27.7,85.3,45.2,134.8,56.1,216.1c1.6,11.5-142,109.5-231.7,132.8c3,55.9-1.7,97.9-1.7,97.9"/>
			<path class="st7" d="M1221.6,1486.2c19.7,172.2,31.3,303.4,34.7,476.8"/>
			<path class="st3" d="M1288.3,1303c0,60-41.1,185.5-137.2,211.2c-38.3,10.3-95.1-22.6-142.1-57.5c-47,34.9-103.8,67.7-142.1,57.5
				c-96.1-25.7-137.2-151.2-137.2-211.2c12.8-12.8,116.8-80.4,121.4-74.4c40.4,52.7,68.4,91.9,158,139.7
				c89.5-47.9,117.5-87.1,157.9-139.7C1171.4,1222.6,1275.5,1290.2,1288.3,1303z"/>
			<path class="st7" d="M1130.5,1644.5c17.4-5.7,28.4-26.2,23.6-43.8s-24.7-29.7-42.6-25.8s-30.9,23.2-27.9,41.3
				S1106.3,1652.4,1130.5,1644.5z"/>
		</g>
		<g>
			<g>
				<path class="st3" d="M1737.9,1963c-23.8-107-59-261.1-85.1-410.3c-5.3-30.3,5.7-61.2,29.4-80.8c35.5-29.3,43.6-51.8,55.8-118.2
					c5.2-28.4,7.3-80.4,1.3-113.2c-13.9-26.1-49.1-50-70.7-34.2s-24.3-39.9-65.8-45.2c-22.7-2.9-45.2,2.3-49.8,28.2
					c-28.7-21.8-77.4-4-78.7,28c-18.4-7-63.8,9-62.2,48.6c-36-8-50.1,30.4-52.5,44.4c-7.4,43.3,33.6,158.2,103.1,205.5
					c17.1,172.6,14.3,331.2,21.1,447.2"/>
				<path class="st8" d="M1652.1,1202.3c7.9,31,18.5,62.4,22.7,115.5"/>
			</g>
			<g>
				<path class="st3" d="M279.9,1963c23.8-107,59-261.1,85.1-410.3c5.3-30.3-5.7-61.2-29.4-80.8c-35.5-29.3-43.6-51.8-55.8-118.2
					c-5.2-28.4-7.3-80.4-1.3-113.2c13.9-26.1,49.1-50,70.7-34.2s24.3-39.9,65.8-45.2c22.7-2.9,45.2,2.3,49.8,28.2
					c28.7-21.8,77.4-4,78.7,28c18.4-7,63.8,9,62.2,48.6c36-8,50.1,30.4,52.5,44.4c7.4,43.3-33.6,158.2-103.1,205.5
					c-17.1,172.6-14.3,331.2-21.1,447.2"/>
				<path class="st8" d="M365.7,1202.3c-7.9,31-18.5,62.4-22.7,115.5"/>
			</g>
		</g>
	</g>
</g>
</svg>
