<?xml version="1.0" encoding="utf-8"?>
<!-- Generator: Adobe Illustrator 26.0.1, SVG Export Plug-In . SVG Version: 6.00 Build 0)  -->
<svg version="1.1" id="レイヤー_1" xmlns="http://www.w3.org/2000/svg" xmlns:xlink="http://www.w3.org/1999/xlink" x="0px"
	 y="0px" viewBox="0 0 1985 1974.9" style="enable-background:new 0 0 1985 1974.9;" xml:space="preserve">
<style type="text/css">
	.st0{fill:#FFFFFF;}
	.st1{clip-path:url(#SVGID_00000094594236089506265250000004089452984203397019_);}
	.st2{fill:#005B97;}
	.st3{fill:#FFFFFF;stroke:#005B97;stroke-width:7;stroke-linecap:round;stroke-linejoin:round;stroke-miterlimit:10;}
	.st4{fill:#FFDAC4;}
	.st5{fill:none;stroke:#005B97;stroke-width:7;stroke-linecap:round;stroke-linejoin:round;stroke-miterlimit:10;}
	.st6{fill:#FFFFFF;stroke:#005B97;stroke-width:6;stroke-miterlimit:10;}
	.st7{fill:none;stroke:#005B97;stroke-width:6;stroke-linecap:round;stroke-linejoin:round;stroke-miterlimit:10;}
	.st8{fill:#FCEF8B;}
	.st9{fill:#78D691;}
	.st10{fill:#FFFFFF;stroke:#005B97;stroke-width:6;stroke-linecap:round;stroke-linejoin:round;stroke-miterlimit:10;}
</style>
<circle class="st0" cx="992.5" cy="987.5" r="987.5"/>
<g>
	<defs>
		<circle id="SVGID_1_" cx="992.5" cy="987.5" r="987.5"/>
	</defs>
	<clipPath id="SVGID_00000085234832058455717830000014099300096731101058_">
		<use xlink:href="#SVGID_1_"  style="overflow:visible;"/>
	</clipPath>
	<g id="_x3C_グループ_x3E__6_" style="clip-path:url(#SVGID_00000085234832058455717830000014099300096731101058_);">
		<g>
			<path class="st2" d="M1490.1,723.1c-35.8,230.6-274.7,285.9-453.9,299c-10.8,0.8-21.4,1.5-31.7,2c-0.2,0-0.4,0-0.6,0.1
				c-0.2-0.1-0.5-0.1-0.7-0.1c-10.4-0.5-20.9-1.2-31.8-2c-179.3-13.2-418-68.4-453.8-299c-33.9-217.9-71.7-332.8,45.7-488.4
				c81.4-107.8,210.1-216.8,438.3-218.3h4.5c228.2,1.5,356.9,110.4,438.3,218.3C1561.8,390.3,1524,505.2,1490.1,723.1z"/>
			<path class="st2" d="M1519.4,1012.4c-6.9-95.4-99.8-176.1-195.2-169.6c-95.5,6.5-176.6,98.9-170.5,194.4
				c6,95.5,103.5,175.3,193.5,168.1C1437.1,1198.1,1526.3,1107.9,1519.4,1012.4z"/>
			<path class="st3" d="M1527.7,748.6c-3.5,70.2-59,114.9-120.3,120.5c-2.1,0.2-3.8,1.7-4.3,3.8c-25.8,111.5-39.2,129.8-83.7,174.3
				c-78.5,78.4-152.1,92.8-183.1,125.5c-17.4,18.4-14.9,57.7-17.1,84.5c-0.2,2.1,1.1,4.1,3.1,4.8c38.5,13.3,72.7,32.8,86.8,58.2
				c28.7,51.8,33.8,113.6,28.2,172.6c-0.2,2.4-2.2,4.2-4.6,4.3c-82.7,2.2-375.8,2.2-458.4,0c-2.4-0.1-4.4-1.9-4.6-4.3
				c-5.6-59-0.5-120.8,28.2-172.6c14.8-26.5,51.2-46.6,91.6-59.9c2.1-0.7,3.4-2.7,3.2-4.8c-2.3-26.2,0.2-64.9-16.9-82.8
				c-31-32.6-104.6-47-183.1-125.5c-44.5-44.5-57.9-62.8-83.7-174.3c-0.5-2.1-2.2-3.6-4.3-3.8c-61.3-5.6-116.7-50.3-120.3-120.5
				c-3.6-70.3,25.3-135.6,129.7-129c3,0.2,5.5-2.3,5.1-5.3c-17.5-141.9-1.1-338.8,23.1-397.1c0.7-1.8,2.5-2.8,4.4-2.8h718.6
				c1.9,0,3.6,1.1,4.4,2.8c24.2,58.3,40.6,255.2,23.1,397.1c-0.4,3,2.1,5.5,5.1,5.3C1502.3,613,1531.3,678.3,1527.7,748.6z"/>
			<g>
				<path class="st4" d="M741.5,879c-93.2-3.4-83.5-127.7,8.4-120.9S834.7,882.4,741.5,879z"/>
				<path class="st4" d="M1270.7,879c93.2-3.4,83.5-127.7-8.4-120.9S1177.5,882.4,1270.7,879z"/>
			</g>
			<g>
				<path class="st5" d="M791.7,675.3c6.9-18.3,25.4-31.7,44.9-32.4c19.5-0.7,39,11.2,47.2,28.9"/>
				<path class="st5" d="M1220.5,675.3c-6.9-18.3-25.4-31.7-44.9-32.4c-19.5-0.7-39,11.2-47.2,28.9"/>
			</g>
			<path class="st5" d="M995.3,785.1c-3.5,8.3-4.8,18.4-5,25.3c-0.2,7.7,0,11.8,3.7,18.4"/>
			<path class="st6" d="M1004.8,1035.2c101.7,0,149.3-84.6,114.4-103.1c-14.6-7.8-211.7-7.8-226.4,0
				c-34.8,18.5,12.7,103.1,114.4,103.1"/>
			<path class="st2" d="M656.6,632c107.3-126.8,346.4-160.6,506.7-316.8c2.4-2.3,6.3-1.6,7.7,1.5c50.8,116,106,218,185.3,311.4
				c13.4,15.8,39.2,10.1,44.6-9.9c31.4-117.4,15-308.2-31-385.8c-52.1-87.9-180.5-146.7-299.1-164.2
				c-130.4-19.2-317.2,38.8-401.2,121c-77.2,75.5-92.6,262.3-78.1,421.6C594.5,643.4,635.5,657,656.6,632z"/>
			<path class="st2" d="M1132.5,331.7c37.6-44.5,121.6-56.4,177.8-111.2c0.8-0.8,2.2-0.5,2.7,0.5c17.8,40.7,37.2,76.5,65,109.3
				c4.7,5.5,13.8,3.6,15.6-3.5c11-41.2,5.3-108.1-10.9-135.4c-18.3-30.9-63.3-51.5-105-57.6c-45.7-6.7-111.3,13.6-140.8,42.5
				c-27.1,26.5-32.5,92-27.4,147.9C1110.7,335.7,1125.1,340.5,1132.5,331.7z"/>
		</g>
		<g>
			<path class="st0" d="M419.5,1958.5c0,0,10.1-262.1,74-458.8c0.1-0.2,0.2-0.5,0.3-0.7c62.5-127.6,151.8-140.4,307.9-215
				c2.3-1.1,5-0.2,6.2,2c10.8,20.5,66.7,113.1,198.3,115.9c131.6-2.8,187.6-95.4,198.4-115.9c1.2-2.2,3.9-3.1,6.2-2
				c156.1,74.6,245.3,87.4,307.8,215c0.1,0.2,0.2,0.5,0.3,0.7c64,196.8,74,458.8,74,458.8"/>
			<path class="st3" d="M626.4,1958.5c0,0-4.4-40-1.9-93.9c0.1-2.2-1.3-4.3-3.5-4.9c-89.8-24.9-229.2-120.3-227.7-131.6
				c10.9-81.1,28.3-130.5,55.9-215.4c0.1-0.2,0.2-0.5,0.3-0.7C511.4,1386,672,1323,801.9,1283.1c2.2-0.7,4.6,0.3,5.6,2.4
				c9.9,19.9,64.3,115.6,198.6,115.6s188.7-95.6,198.6-115.6c1-2.1,3.4-3.1,5.6-2.4c129.8,39.9,290.5,102.9,352.3,228.9
				c0.1,0.2,0.2,0.5,0.3,0.7c27.6,84.9,45,134.3,55.9,215.4c1.5,11.4-137.9,106.7-227.7,131.6c-2.2,0.6-3.6,2.6-3.5,4.9
				c2.6,53.9-1.9,93.9-1.9,93.9"/>
			<path class="st7" d="M1218.4,1482.3c19.7,172,31.3,302.9,34.7,476.1"/>
			<path class="st3" d="M1283.5,1297.9c1,0.9,1.6,2.1,1.6,3.5c-0.9,60.7-42.1,183.5-137,208.9c-37.5,10-92.8-21.3-139.2-55.3
				c-1.7-1.2-3.9-1.2-5.5,0c-46.4,34.1-101.6,65.4-139.2,55.3c-94.9-25.4-136.1-148.2-137-208.9c0-1.4,0.5-2.6,1.6-3.5
				c18-15.7,115.2-78.6,119.7-72.8c40,52.1,67.8,91.1,155.4,138.3c1.5,0.8,3.3,0.8,4.7,0c87.5-47.3,115.3-86.1,155.3-138.3
				C1168.2,1219.3,1265.4,1282.1,1283.5,1297.9z"/>
			<path class="st7" d="M1127.5,1640.4c5-1.6,9.5-4.5,13.3-8.2c20.7-20.4,8.5-56.5-20.2-61.5c-23.6-4.1-43.5,19.6-39.9,41.5
				C1083.7,1630.2,1103.3,1648.3,1127.5,1640.4z"/>
		</g>
		<g>
			<g>
				<path class="st8" d="M1574.4,1072.7l64-303.5c6.5-30.9,47.9-37.1,63.2-9.5l84.8,152.6l-74.4,352.8c-2.9,13.8-21.4,16.6-28.3,4.3
					L1574.4,1072.7z"/>
				<path class="st9" d="M1915.7,1144.7l63.4-300.7c6.7-31.9-29.7-55-55.7-35.3l-136.9,103.6l-73.9,350.3
					c-3.1,14.7,13.7,25.4,25.7,16.3L1915.7,1144.7z"/>
				<path class="st5" d="M1979.2,843.4l-59.5,282c-2.6,12.4-9.6,23.4-19.7,31.1l-148,112c-25.5,19.3-62.2,11.6-77.8-16.4
					l-90.2-162.3c-6.2-11.1-8.1-24-5.5-36.4l59.5-282.1c6.7-31.7,49.1-38.1,64.8-9.8l65.8,118.4c9.4,17,31.7,21.7,47.2,10l108-81.7
					C1949.7,788.8,1985.9,811.7,1979.2,843.4z"/>
			</g>
			<path class="st3" d="M1699,1958.5c0.7-2.9,40.1-337.7,42.2-339.3c23.8-18.3,107.4-123.7,121.6-157.3
				c25-59.2,38.1-123.5-13.5-227.3c-10.6-21.3-46.2-38.4-69.2-39c-50.7-1.5-105.9,16.5-118.7,37.5c-5.9,9.7-2.2,28,2,40.9
				c0.7,2.2-0.2,4.6-2.1,5.8c-107.2,72.2-77.3,99.3-62.3,161.1c0.5,2-0.3,4-1.9,5.4c-26.9,23.5-35.2,120.9-30.8,162
				c1.7,15.6-89.9,350.3-89.9,350.3"/>
			<path class="st10" d="M1721.8,1282.1c10.3-3.2,22.6-1.6,33,4.3c10.4,5.9,18.6,16,22,27.1"/>
			<path class="st10" d="M1668.7,1415.5c-38.6,6.5-72.7,26.5-87.3,57.9"/>
		</g>
		<g>
			<path class="st3" d="M286.5,1958.5l-22.9-342.3c-1.2-17.6-10.3-33.8-24.7-43.9c-75.9-53-291.4-208.7-264.9-251.5
				c30.3-49,105.5,20.8,145.3,46.2c-17.4-29.7-166.4-158.5-121.8-196.4S136,1278.8,175,1306.3c-24.1-37.1-64.3-118.2-93.7-180.5
				c-27.6-58.4,22.1-89.4,56.6-43.1c46.5,62.4,64.3,117.6,112.2,181.9c-11-48-31.5-95.9,7.2-126.2c25.5-20,93.6-29.3,132.3-18.5
				c21.6,6,32.9,38.9,13.6,58.2c-15.7,15.7-51.5,7.5-74,14.2c-22.6,6.6-9.2,38.8,0.1,66.6c14.2,42.5,39.9,78.9,72.2,58.8
				c32.3-20.1,33.6-33.5,15.8-71.9s42-101.7,66.2-37.1c24.2,64.6,16.6,123.5,4.8,176.8c-11.8,53.3-42.8,82.2-55.8,105.7
				c35.2,174.8,98.3,467.2,98.3,467.2"/>
		</g>
	</g>
</g>
</svg>
