<?xml version="1.0" encoding="utf-8"?>
<!-- Generator: Adobe Illustrator 26.0.1, SVG Export Plug-In . SVG Version: 6.00 Build 0)  -->
<svg version="1.1" id="レイヤー_1" xmlns="http://www.w3.org/2000/svg" xmlns:xlink="http://www.w3.org/1999/xlink" x="0px"
	 y="0px" viewBox="0 0 300 300" style="enable-background:new 0 0 300 300;" xml:space="preserve">
<style type="text/css">
	.st0{fill:#FFFF00;}
	.st1{enable-background:new    ;}
	.st2{fill:#005B97;}
</style>
<circle class="st0" cx="150" cy="150" r="149.5"/>
<g class="st1">
	<path class="st2" d="M101.8,174.7l10.5,0.3l23.5-0.6l8.6-0.6l-2.9,11.8l-31.5,0.3c-6.4,0-10.8-0.2-13.4-0.6
		c-4.7-0.9-8.6-2.7-11.8-5.4l-9.2,7l-5.7-9.5l8-7v-13.7h-6.4V146h17.5v19.4c0,2.8,1.5,5,4.5,6.7C95.9,173.6,98.6,174.5,101.8,174.7z
		 M78.6,115.5c3.6,0.9,8.6,3.7,15,8.6l-6,9.2c-2.8-3.2-7.9-6.2-15.3-8.9L78.6,115.5z M115.2,115.8c-0.9,3.4-2.2,6.3-4.1,8.6h6.4
		l7.3-11.1l11.5,3.5l-5.1,7.6h10.8v9.2h-15.6v3.5h13v8h-13v4.1h13v8h-13v3.5h16.5v9.2h-35v2.5H96.1v-27.4c-0.9,1.7-1.9,3-3.2,3.8
		l-6.7-10.5c8.7-7.6,14.5-16.2,17.5-25.8L115.2,115.8z M107.9,137.1h7.3v-3.5h-7.3V137.1z M107.9,149.2h7.3v-4.1h-7.3V149.2z
		 M107.9,160.7h7.3v-3.5h-7.3V160.7z"/>
	<path class="st2" d="M155.6,174.3h30.9v-5.7h-21.6v-9.5h21.6v-4.1h-25.8v-9.9h63.3v9.9h-25.5v4.1h21.6v9.5h-21.6v5.7h30.2v9.9
		h-73.2V174.3z M164.9,141.2v-25.5h55.4v25.5H164.9z M209.1,125.7H176v5.7h33.1V125.7z"/>
</g>
</svg>
