<?xml version="1.0" encoding="utf-8"?>
<!-- Generator: Adobe Illustrator 26.0.1, SVG Export Plug-In . SVG Version: 6.00 Build 0)  -->
<svg version="1.1" id="レイヤー_1" xmlns="http://www.w3.org/2000/svg" xmlns:xlink="http://www.w3.org/1999/xlink" x="0px"
	 y="0px" viewBox="0 0 300 300" style="enable-background:new 0 0 300 300;" xml:space="preserve">
<style type="text/css">
	.st0{fill:#FFFF00;}
	.st1{enable-background:new    ;}
	.st2{fill:#005B97;}
</style>
<circle class="st0" cx="150" cy="150" r="149.5"/>
<g class="st1">
	<path class="st2" d="M80.5,135.5l-6.4-4.5l5.4-5.4h-5.4v-9.2h28.6l0.6-0.6l5.1,7.6c-1.5,3.4-5.1,7.4-10.8,12.1h19.7
		c-1.7-1.3-3.6-3.7-5.7-7.3c-1.5-2.5-3.1-6.3-4.8-11.1l9.9-3.5c1.5,3.6,2.4,5.6,2.9,6l5.1-6.4l8.3,5.7l-7.3,8.6l1.6,1.6l7.3-8.9
		l8.3,6l-7.3,9.2c2.1,1.9,5.5,3.4,10.2,4.5l-5.7,10.5c-4.2-0.8-9.9-4-16.9-9.5v3.8H91.3v-3.8c-5.5,4.5-11.1,7.4-16.9,8.9l-4.8-10.5
		C74.3,138.7,77.9,137.4,80.5,135.5z M123.4,174.3h20.4v10.5H70.9v-10.5h20.4l-1.9-5.4h-5.7v-22h47.4v22H126L123.4,174.3z
		 M93.5,125.7h-9.9l5.7,3.8C91.3,128.2,92.7,126.9,93.5,125.7z M94.8,159.7h25.1v-3.5H94.8V159.7z M110.7,174.3l1.9-5.4h-10.5
		l1.9,5.4H110.7z"/>
	<path class="st2" d="M167.7,113.6l9.9,1l-0.6,2.2c2.3,4.5,6.3,8.3,11.8,11.5l-5.1,9.5l-1.9-1.6v5.1H177v5.1h7.3V139h26.1v-2.5h-20
		v-8.9h20V125h-22v-9.2h33.1V139h6.7v10.8H211c0.4,1.9,1.5,3.9,3.2,6l6-5.7l7.3,6.4l-7.6,8.3c1.7,3.2,5.1,6.8,10.2,10.8l-6.4,10.2
		c-2.1-1.5-4.6-4-7.3-7.6c-2.5-3.2-4.4-5.9-5.4-8.3v10.8c0,4.2-2.3,6.4-7,6.4h-9.2l-2.5-9.9c-1.9,1.9-3.9,3.9-6,6l-1.9-2.2
		c-2.5,1.1-11.3,3-26.4,5.7l-2.2-10.2l10.5-1.6v-19.4h-9.9v-9.2h9.9v-5.1h-6.4V140l-1.6,1.6l-3.8-10.2
		C161.2,126.3,165.6,120.4,167.7,113.6z M156.6,159.4l7.3-1c0.8,3.4,1.3,8.1,1.3,14l-7.3,1C157.9,168.3,157.4,163.6,156.6,159.4z
		 M167.4,132h9.9c-2.8-3-4.5-5-5.1-6C170.9,128.5,169.3,130.5,167.4,132z M177,172.8l4.8-1.3l0.3,0.6l8.6-7.6l-1.9,0.6
		c-0.2-1.9-1.2-4-2.9-6.4l-1.9,10.8l-6.4-0.6l1.3-11.5l6.4,0.3l-1.6-2.2H177V172.8z M199.9,172.4v-22.6h-15.3v3.8l7.3-2.9
		c0.6,0.6,1.7,2.2,3.2,4.8c1.5,2.5,2.3,4.5,2.5,5.7l-4.5,2.2l5.7,7l-5.1,4.8h3.2C199.1,175.3,200.1,174.3,199.9,172.4z"/>
</g>
</svg>
